<?xml version="1.0" encoding="UTF-8"?>
<svg width="24px" height="24px" viewBox="0 0 24 24" version="1.1" xmlns="http://www.w3.org/2000/svg" xmlns:xlink="http://www.w3.org/1999/xlink">
    <title>icon/icon-usercenterMode</title>
    <g id="页面-1" stroke="none" stroke-width="1" fill="none" fill-rule="evenodd">
        <g id="画板" transform="translate(-68.000000, -362.000000)">
            <g id="icon/icon-usercenterMode" transform="translate(68.000000, 362.000000)">
                <rect id="矩形备份-6" fill="#F6F6F6" opacity="0" x="0" y="0" width="24" height="24"></rect>
                <path d="M12.2260876,3.64285714 C14.2774309,3.64285714 15.9403733,5.3057995 15.9403733,7.35714286 C15.9403733,9.35450349 14.3638026,10.9836363 12.3872056,11.0679969 L12.2260876,11.0714286 C10.1747442,11.0714286 8.51180187,9.40848621 8.51180187,7.35714286 C8.51180187,5.35978222 10.0883726,3.7306494 12.0649696,3.64628878 L12.2260876,3.64285714 Z M16.3505156,14.1167025 C16.6207932,13.8430461 17.0617389,13.840307 17.3353954,14.1105846 C17.5841739,14.3562915 17.6090539,14.7430464 17.408458,15.016937 L17.3415133,15.0954643 L16.6781429,15.7663049 L20.5832304,15.7667977 C20.9358051,15.7667977 21.2271863,16.0287977 21.2733014,16.368725 L21.279659,16.4632263 C21.279659,16.8158009 21.017659,17.1071822 20.6777317,17.1532973 L20.5832304,17.1596548 L15.0118019,17.1596548 C14.4259796,17.1596548 14.1154312,16.4902496 14.4538303,16.0457014 L14.516303,15.9738454 L16.3505156,14.1167025 Z M13.5238884,13.8469477 L7.23051948,13.8469477 C4.84387976,13.8469477 2.94642857,15.9955322 2.94642857,18.6058763 L2.94642857,20.2951767 C2.94642857,20.8336543 3.38295094,21.2701767 3.92142857,21.2701767 L13.5238884,21.2701767 C14.1368183,21.2701767 14.450838,20.5355359 14.0272847,20.0924946 L12.3716197,18.3606514 C11.9426591,17.911954 11.9426591,17.2051704 12.3716197,16.756473 L14.0272847,15.0246298 C14.450838,14.5815885 14.1368183,13.8469477 13.5238884,13.8469477 Z M19.2431227,21.1248974 C18.9728451,21.3985539 18.5318994,21.401293 18.258243,21.1310154 C18.0094644,20.8853085 17.9845844,20.4985536 18.1851804,20.224663 L18.252125,20.1461357 L18.9154955,19.475514 L15.0104079,19.4748023 C14.6578332,19.4748023 14.366452,19.2128022 14.3203369,18.8728749 L14.3139793,18.7783737 C14.3139793,18.4257991 14.5759793,18.1344178 14.9159067,18.0883027 L15.0104079,18.0819451 L20.5818365,18.0819451 C21.1676587,18.0819451 21.4782071,18.7513503 21.139808,19.1958986 L21.0773353,19.2677546 L19.2431227,21.1248974 Z" id="形状结合" fill="#212121" fill-rule="nonzero"></path>
            </g>
        </g>
    </g>
</svg>