<?xml version="1.0" encoding="UTF-8"?>
<svg width="28px" height="28px" viewBox="0 0 28 28" version="1.1" xmlns="http://www.w3.org/2000/svg" xmlns:xlink="http://www.w3.org/1999/xlink">
    <title>icon-footerError</title>
    <g id="页面-1" stroke="none" stroke-width="1" fill="none" fill-rule="evenodd">
        <g id="画板" transform="translate(-526.000000, -80.000000)">
            <g id="icon-footerError" transform="translate(526.000000, 80.000000)">
                <rect id="矩形备份-4" opacity="0" x="0" y="0" width="28" height="28"></rect>
                <path d="M16.4883869,13.1028606 C16.9753774,12.2680197 18.0469334,11.9860313 18.8817743,12.4730218 C19.1425307,12.6251297 19.3595052,12.8421042 19.5116131,13.1028606 L19.5116131,13.1028606 L24.7705761,22.1182257 C25.2575666,22.9530666 24.9755781,24.0246226 24.1407373,24.5116131 C23.8730992,24.6677353 23.5688086,24.75 23.258963,24.75 L23.258963,24.75 L12.741037,24.75 C11.7745387,24.75 10.991037,23.9664983 10.991037,23 C10.991037,22.6901544 11.0733017,22.3858638 11.2294239,22.1182257 L11.2294239,22.1182257 Z M21,3.25 C22.4625318,3.25 23.6584043,4.3917046 23.7449812,5.83247767 L23.75,6 L23.75,15.3658174 C23.75,15.780031 23.4142136,16.1158174 23,16.1158174 C22.6203042,16.1158174 22.306509,15.8336635 22.2568466,15.467588 L22.25,15.3658174 L22.25,6 C22.25,5.35279131 21.7581253,4.8204661 21.1278052,4.75645361 L21,4.75 L7,4.75 C6.35279131,4.75 5.8204661,5.24187466 5.75645361,5.87219476 L5.75,6 L5.75,21 C5.75,21.6472087 6.24187466,22.1795339 6.87219476,22.2435464 L7,22.25 L8.95454545,22.25 C9.36875902,22.25 9.70454545,22.5857864 9.70454545,23 C9.70454545,23.3796958 9.42239157,23.693491 9.05631601,23.7431534 L8.95454545,23.75 L7,23.75 C5.53746816,23.75 4.34159572,22.6082954 4.25501879,21.1675223 L4.25,21 L4.25,6 C4.25,4.53746816 5.3917046,3.34159572 6.83247767,3.25501879 L7,3.25 L21,3.25 Z M18.0640614,13.7429167 C17.957998,13.7147419 17.8420303,13.7592813 17.7840553,13.8586671 L17.7840553,13.8586671 L12.5250923,22.8740322 C12.5027891,22.9122663 12.491037,22.9557363 12.491037,23 C12.491037,23.1380712 12.6029658,23.25 12.741037,23.25 L12.741037,23.25 L23.258963,23.25 C23.3032267,23.25 23.3466967,23.2382479 23.3849308,23.2159447 C23.5041937,23.1463747 23.5444778,22.9932952 23.4749077,22.8740322 L23.4749077,22.8740322 L18.2159447,13.8586671 C18.194215,13.8214162 18.1632187,13.7904198 18.1259678,13.7686901 L18.1259678,13.7686901 Z M18,20.75 C18.3796958,20.75 18.693491,21.0321539 18.7431534,21.3982294 L18.75,21.5 L18.75,21.635232 C18.75,22.0494456 18.4142136,22.385232 18,22.385232 C17.6203042,22.385232 17.306509,22.1030782 17.2568466,21.7370026 L17.25,21.635232 L17.25,21.5 C17.25,21.0857864 17.5857864,20.75 18,20.75 Z M18,16.4565514 C18.3796958,16.4565514 18.693491,16.7387053 18.7431534,17.1047809 L18.75,17.2065514 L18.75,19.5 C18.75,19.9142136 18.4142136,20.25 18,20.25 C17.6203042,20.25 17.306509,19.9678461 17.2568466,19.6017706 L17.25,19.5 L17.25,17.2065514 C17.25,16.7923379 17.5857864,16.4565514 18,16.4565514 Z M12.9545455,11.75 C13.368759,11.75 13.7045455,12.0857864 13.7045455,12.5 C13.7045455,12.8796958 13.4223916,13.193491 13.056316,13.2431534 L12.9545455,13.25 L8.95454545,13.25 C8.54033189,13.25 8.20454545,12.9142136 8.20454545,12.5 C8.20454545,12.1203042 8.48669934,11.806509 8.8527749,11.7568466 L8.95454545,11.75 L12.9545455,11.75 Z M18.9545455,7.75 C19.368759,7.75 19.7045455,8.08578644 19.7045455,8.5 C19.7045455,8.87969577 19.4223916,9.19349096 19.056316,9.24315338 L18.9545455,9.25 L8.95454545,9.25 C8.54033189,9.25 8.20454545,8.91421356 8.20454545,8.5 C8.20454545,8.12030423 8.48669934,7.80650904 8.8527749,7.75684662 L8.95454545,7.75 L18.9545455,7.75 Z" id="形状结合" fill="#212121" fill-rule="nonzero"></path>
            </g>
        </g>
    </g>
</svg>