<?xml version="1.0" encoding="UTF-8"?>
<svg width="20px" height="20px" viewBox="0 0 20 20" version="1.1" xmlns="http://www.w3.org/2000/svg" xmlns:xlink="http://www.w3.org/1999/xlink">
    <title>icon-search</title>
    <g id="页面-1" stroke="none" stroke-width="1" fill="none" fill-rule="evenodd">
        <g id="画板" transform="translate(-182.000000, -548.000000)">
            <g id="icon-search" transform="translate(182.000000, 548.000000)">
                <rect id="矩形" x="0" y="0" width="20" height="20"></rect>
                <path d="M9.5,3 C13.0898509,3 16,5.91014913 16,9.5 C16,11.2004047 15.3470694,12.7483092 14.2782472,13.9066748 L17.0254185,16.6541631 C17.259733,16.8884776 17.259733,17.2683766 17.0254185,17.5026912 C16.8171388,17.7109708 16.4938296,17.734113 16.2599878,17.5721177 L16.1768903,17.5026912 L13.3847621,14.711887 C12.3010259,15.5209776 10.9564538,16 9.5,16 C5.91014913,16 3,13.0898509 3,9.5 C3,5.91014913 5.91014913,3 9.5,3 Z M9.5,4.2 C6.57289083,4.2 4.2,6.57289083 4.2,9.5 C4.2,12.4271092 6.57289083,14.8 9.5,14.8 C12.4271092,14.8 14.8,12.4271092 14.8,9.5 C14.8,6.57289083 12.4271092,4.2 9.5,4.2 Z" id="形状结合" fill="#212121" fill-rule="nonzero"></path>
            </g>
        </g>
    </g>
</svg>