<?xml version="1.0" encoding="UTF-8"?>
<svg width="120px" height="120px" viewBox="0 0 120 120" version="1.1" xmlns="http://www.w3.org/2000/svg" xmlns:xlink="http://www.w3.org/1999/xlink">
    <title>icon/icon-authentication</title>
    <defs>
        <circle id="path-1" cx="60" cy="60" r="60"></circle>
    </defs>
    <g id="橘色-最终" stroke="none" stroke-width="1" fill="none" fill-rule="evenodd">
        <g id="08、实名认证" transform="translate(-128.000000, -142.000000)">
            <g id="icon/icon-authentication" transform="translate(128.000000, 142.000000)">
                <g id="路径">
                    <mask id="mask-2" fill="white">
                        <use xlink:href="#path-1"></use>
                    </mask>
                    <use id="蒙版" fill="#F8F8F8" xlink:href="#path-1"></use>
                    <g id="编组-2" mask="url(#mask-2)">
                        <g transform="translate(10.000000, 16.000000)">
                            <rect id="矩形" fill="#CCDAE6" x="33" y="70" width="34" height="8"></rect>
                            <path d="M0,113.198107 L0,93.7434106 C16.2073196,88.8250228 25.9153149,85.4295665 29.1239858,83.5570418 C32.3326567,81.6845171 34.2760095,78.7087951 34.9540442,74.6298758 L34.9540442,74.6298758 L34.9540442,58.5611842 L65.0459558,58.5611842 L65.0459558,74.6298758 C65.7239905,78.7087951 67.6673433,81.6845171 70.8760142,83.5570418 C74.0846851,85.4295665 83.7926804,88.8250228 100,93.7434106 L100,113.198107 L0,113.198107 Z" id="形状结合" fill="#FFCBA2"></path>
                            <polygon id="路径-2" fill="#EFF3F7" points="30.1066534 77.8701781 2.93297955 88.9810655 2.93297955 115.735858 49.9741998 115.735858 49.9741998 97.3030179 49.9741998 84.9468043"></polygon>
                            <polygon id="路径-2" fill="#EFF3F7" transform="translate(73.494810, 96.803018) scale(-1, 1) translate(-73.494810, -96.803018) " points="77.1478736 77.8701781 49.9741998 88.9810655 49.9741998 115.735858 97.01542 115.735858 97.01542 97.3030179 97.01542 84.9468043"></polygon>
                            <rect id="矩形" fill="#454545" x="44" y="83" width="11" height="8" rx="4"></rect>
                            <path d="M46.2418528,89 L52.7581472,89 L56.3553535,113.592787 C56.6630938,115.696695 55.2070117,117.651723 53.103103,117.959464 C52.9185921,117.986452 52.7323641,118 52.5458898,118 L46.4541102,118 C44.3278139,118 42.6041102,116.276296 42.6041102,114.15 C42.6041102,113.963526 42.617658,113.777298 42.6446465,113.592787 L46.2418528,89 L46.2418528,89 Z" id="矩形备份" fill="#454545"></path>
                            <path d="M33,70 L50,83 L39.4837142,91.0688708 C38.8702787,91.5395437 37.9914351,91.4238119 37.5207621,90.8103764 C37.4956379,90.7776315 37.4719739,90.7437917 37.4498396,90.708956 L29.4404187,78.1034794 C29.1684734,77.6754834 29.14922,77.1338922 29.390087,76.6876659 L33,70 L33,70 Z" id="路径-24" fill="#DEE8F0"></path>
                            <path d="M54,70 L71,83 L60.4837142,91.0688708 C59.8702787,91.5395437 58.9914351,91.4238119 58.5207621,90.8103764 C58.4956379,90.7776315 58.4719739,90.7437917 58.4498396,90.708956 L50.4404187,78.1034794 C50.1684734,77.6754834 50.14922,77.1338922 50.390087,76.6876659 L54,70 L54,70 Z" id="路径-24" fill="#DEE8F0" transform="translate(60.500000, 81.000000) scale(-1, 1) translate(-60.500000, -81.000000) "></path>
                            <g id="编组-3" stroke-width="1" fill="none" transform="translate(20.454816, 0.000000)">
                                <g id="编组" transform="translate(0.000000, 2.523315)" fill="#FED7B8">
                                    <path d="M29.2909645,0 C44.0354757,0 53.8893694,14.4261799 53.8893694,32.2217747 C53.8893694,32.4751357 53.8886484,32.7278138 53.8871358,32.9797769 C54.1080808,32.9722908 54.3295671,32.9895399 54.549915,33.0324227 C57.0355181,33.5161565 58.4350125,37.078507 57.6757735,40.9891553 C56.9575409,44.6885867 54.564757,47.3744725 52.2041636,47.2443032 C51.3395591,50.1155464 50.0544217,52.7302034 48.1688058,55.0060101 C45.6847639,58.0040751 42.7134885,60.4140831 39.4106302,62.0481747 C37.8225424,62.8338823 36.1577959,64.8411524 34.4336931,65.247209 C32.7695627,65.6391409 31.0501336,65.8444962 29.2909645,65.8444962 C27.5317955,65.8444962 25.8123663,65.6391409 24.1482359,65.247209 C22.4241331,64.8411524 20.7593867,62.8338823 19.1712989,62.0481747 C15.8684406,60.4140831 12.8971651,58.0040751 10.4131232,55.0060101 C8.50252937,52.7000568 7.20842799,50.0462164 6.34201933,47.1299684 L6.24960888,47.1564125 L6.24960888,47.1564125 L6.08183155,47.1941329 C3.59622837,47.6778666 0.965763776,44.8998035 0.206524139,40.9891553 C-0.552714922,37.078507 0.846779472,33.5161565 3.33238265,33.0324227 C3.78599177,32.944144 4.24442541,32.9644969 4.69543008,33.0805407 L4.69365122,32.7546207 L4.69365122,32.7546207 L4.69255963,32.2217747 C4.69255963,14.4261799 14.5464533,0 29.2909645,0 Z" id="形状结合"></path>
                                </g>
                                <path d="M44.0745791,19.4125836 C48.1947465,22.8279833 50.4103084,27.7136141 50.7212649,34.0694761 C50.8321977,36.3369106 50.3626503,39.2680926 50.2302734,40.6271435 C50.740774,41.9866406 52.444314,39.0387311 53.641033,36.9506456 C54.0266307,36.2778385 54.2500026,35.4616274 54.5602505,35.559401 C55.184879,35.7562508 55.6851478,36.0150354 56.061057,36.3357549 C59.2063738,19.1061537 56.2298767,9.34517046 47.1315659,7.05280511 C38.033255,4.76043977 37.0142594,8.88036594 44.0745791,19.4125836 Z" id="路径-50" fill="#7B3818"></path>
                                <path d="M47.1315659,8.12710204 C49.3018164,11.5801026 48.2828208,15.3419298 44.0745791,19.4125836 C37.7622166,25.5185644 17.3744228,20.0630522 13.3502833,23.65353 C9.3261438,27.2440078 7.06544375,30.6061077 7.89141952,37.2674697 C8.13664074,39.2451395 7.98327571,42.2269825 7.43132445,42.2130478 C6.97301152,42.2014038 5.66720177,39.972444 3.51389522,35.5261683 C0.236411616,27.3592157 0.355221439,20.1932322 3.87032469,14.0282178 C6.70088898,9.06379188 8.96906112,7.70636789 9.36680696,6.93110514 C9.70996516,6.26224139 6.09207847,6.48580386 6.6192587,2.95155595 C10.0642465,3.91399302 15.6807141,2.09090409 20.6075399,0.726457934 C22.8948347,0.0930093912 31.8368501,-0.91172043 39.5136202,1.7296757 C41.7449906,2.4974378 44.2843058,4.62991325 47.1315659,8.12710204 Z" id="路径-49" fill="#8D4827"></path>
                            </g>
                        </g>
                    </g>
                </g>
                <g id="02-表单---单选&amp;复选框/单复购选/32-选中" transform="translate(85.000000, 91.000000)">
                    <circle id="椭圆形备份" fill="#3BC48B" cx="14.5" cy="14.5" r="14.5"></circle>
                    <g id="编组-2" transform="translate(5.437500, 5.437500)">
                        <rect id="矩形" x="0" y="0" width="18.125" height="18.125"></rect>
                        <path d="M1.69312151,8.21122328 C2.22399047,7.68035432 3.08469912,7.68035432 3.61556808,8.21122328 L7.13941262,11.7350678 L14.5094319,4.36633016 C15.0403009,3.8354612 15.9010095,3.8354612 16.4318785,4.36633016 C16.9627474,4.89719912 16.9627474,5.75790776 16.4318785,6.28877672 L8.10127672,14.6193785 C7.57040776,15.1502474 6.70969912,15.1502474 6.17883016,14.6193785 L1.69312151,10.1336698 C1.16225256,9.60280088 1.16225256,8.74209224 1.69312151,8.21122328 Z" id="路径" fill="#FFFFFF"></path>
                    </g>
                </g>
            </g>
        </g>
    </g>
</svg>