<?xml version="1.0" encoding="UTF-8"?>
<svg width="28px" height="28px" viewBox="0 0 28 28" version="1.1" xmlns="http://www.w3.org/2000/svg" xmlns:xlink="http://www.w3.org/1999/xlink">
    <title>icon-delivery-staff-checked</title>
    <g id="页面-1" stroke="none" stroke-width="1" fill="none" fill-rule="evenodd">
        <g id="画板" transform="translate(-282.000000, -134.000000)">
            <g id="icon-delivery-staff-checked" transform="translate(282.000000, 134.000000)">
                <rect id="矩形备份-4" opacity="0" x="0" y="0" width="28" height="28"></rect>
                <path d="M16,3 C17.5727118,3 18.862769,4.2101879 18.9897427,5.75013463 L21.5,5.75 C21.9142136,5.75 22.25,6.08578644 22.25,6.5 C22.25,6.87969577 21.9678461,7.19349096 21.6017706,7.24315338 L21.5,7.25 L19,7.25 L19,7.26618887 L9,7.27903261 L9,6 C9,4.34314575 10.3431458,3 12,3 L16,3 Z M19,8.48756983 L19,9 C19,11.7614237 16.7614237,14 14,14 C11.2385763,14 9,11.7614237 9,9 L9,8.48292686 L9,8.48292686 L19,8.48756983 Z M12.2959881,15.25 L10,15.25 C6.82436269,15.25 4.25,17.8243627 4.25,21 L4.25,23 C4.25,23.9664983 5.03350169,24.75 6,24.75 L12.2959881,24.75 C12.913726,24.75 13.2518988,24.055318 12.913537,23.5735199 L12.8467225,23.4908913 C12.6924161,23.3239686 12.5953321,22.9975337 12.5953321,22.4847158 L12.5953321,17.5761788 C12.5953321,17.1296695 12.6750039,16.7952021 12.8206384,16.5576121 L12.8870518,16.4616749 C13.2716747,15.9692578 12.9208156,15.25 12.2959881,15.25 Z M19.5,16 L19.5,18.5 L18.5,18.5 L18.5,16 L19.5,16 Z M22,16 C23.1045695,16 24,16.8954305 24,18 L24,23 C24,24.1045695 23.1045695,25 22,25 L16,25 C14.8954305,25 14,24.1045695 14,23 L14,18 C14,16.8954305 14.8954305,16 16,16 L17,16 L17,19.2857143 C17,19.6802034 17.4477153,20 18,20 L18,20 L20,20 C20.5522847,20 21,19.6802034 21,19.2857143 L21,19.2857143 L21,16 L22,16 Z" id="形状结合" fill="#212121"></path>
            </g>
        </g>
    </g>
</svg>