<?xml version="1.0" encoding="UTF-8"?>
<svg width="24px" height="24px" viewBox="0 0 24 24" version="1.1" xmlns="http://www.w3.org/2000/svg" xmlns:xlink="http://www.w3.org/1999/xlink">
    <title>icon/icon-usercenterClockIn</title>
    <g id="页面-1" stroke="none" stroke-width="1" fill="none" fill-rule="evenodd">
        <g id="画板" transform="translate(-100.000000, -362.000000)">
            <g id="icon/icon-usercenterClockIn" transform="translate(100.000000, 362.000000)">
                <rect id="矩形备份-6" x="0" y="0" width="24" height="24"></rect>
                <path d="M12,1 C17.0626102,1 21.1666667,5.08659239 21.1666667,10.1276596 C21.1666667,11.5201205 20.3736907,13.425532 19.2398974,15.3435119 L19.0478536,15.6632058 L18.7179768,16.1905326 L18.63326,16.3219719 L18.63326,16.3219719 L18.5477096,16.4531818 L18.1978289,16.9750006 L18.1086028,17.1045188 L18.1086028,17.1045188 L18.0187398,17.2335898 L17.6535755,17.7446768 L17.4680247,17.9965942 L17.0922972,18.4917256 L16.7121499,18.9733179 L16.3296808,19.4390494 L15.9469878,19.8865983 C14.3548811,21.7102808 12.811578,23 12,23 C11.2208851,23 9.76741242,21.8113948 8.24378707,20.1028288 L8.05301223,19.8865983 L7.67031924,19.4390494 L7.28785013,18.9733179 L6.90770283,18.4917256 L6.81327463,18.3691213 L6.81327463,18.3691213 L6.71915546,18.2457072 L6.34642449,17.7446768 L6.16276537,17.4902453 L5.80217109,16.9750006 L5.45229036,16.4531818 L5.36674002,16.3219719 L5.36674002,16.3219719 L5.28202317,16.1905326 L4.95214638,15.6632058 C3.71686522,13.6388276 2.83333333,11.5974795 2.83333333,10.1276596 C2.83333333,5.08659239 6.93738979,1 12,1 Z M12,5 C9.23857625,5 7,7.23857625 7,10 C7,12.7614237 9.23857625,15 12,15 C14.7614237,15 17,12.7614237 17,10 C17,7.23857625 14.7614237,5 12,5 Z M11.6482238,6.72119653 C12.0279196,6.72119653 12.3417148,7.00335041 12.3913772,7.36942597 L12.3982238,7.47119653 L12.398,9.721 L14.6482238,9.72119653 C15.0279196,9.72119653 15.3417148,10.0033504 15.3913772,10.369426 L15.3982238,10.4711965 C15.3982238,10.8508923 15.1160699,11.1646875 14.7499944,11.2143499 L14.6482238,11.2211965 L11.6482238,11.2211965 C11.2685281,11.2211965 10.9547329,10.9390426 10.9050704,10.5729671 L10.8982238,10.4711965 L10.8982238,7.47119653 C10.8982238,7.05698296 11.2340103,6.72119653 11.6482238,6.72119653 Z" id="形状结合" fill="#212121" fill-rule="nonzero"></path>
            </g>
        </g>
    </g>
</svg>