<svg width="24" height="24" viewBox="0 0 24 24" fill="none" xmlns="http://www.w3.org/2000/svg">
<path d="M7 11.85C6.58579 11.85 6.25 12.1858 6.25 12.6C6.25 13.0142 6.58579 13.35 7 13.35H9.4C9.81421 13.35 10.15 13.0142 10.15 12.6C10.15 12.1858 9.81421 11.85 9.4 11.85H7Z" fill="#212121"/>
<path d="M6.25 9.00002C6.25 8.5858 6.58579 8.25002 7 8.25002H9.4C9.81421 8.25002 10.15 8.5858 10.15 9.00002C10.15 9.41423 9.81421 9.75002 9.4 9.75002H7C6.58579 9.75002 6.25 9.41423 6.25 9.00002Z" fill="#212121"/>
<path d="M7 15.45C6.58579 15.45 6.25 15.7858 6.25 16.2C6.25 16.6142 6.58579 16.95 7 16.95H9.4C9.81421 16.95 10.15 16.6142 10.15 16.2C10.15 15.7858 9.81421 15.45 9.4 15.45H7Z" fill="#212121"/>
<path d="M3.59209 4.16833C2.66465 4.36154 2 5.17894 2 6.12629V20C2 21.1046 2.89543 22 4 22L20 22C21.1046 22 22 21.1046 22 20V9.00002C22 7.89545 21.1046 7.00002 20 7.00002H14V4.45962C14 3.191 12.8341 2.24292 11.5921 2.50166L3.59209 4.16833ZM11.898 3.97013C12.2085 3.90545 12.5 4.14246 12.5 4.45962V20.5H4C3.72386 20.5 3.5 20.2762 3.5 20V6.12629C3.5 5.88945 3.66616 5.6851 3.89802 5.6368L11.898 3.97013ZM14.0093 8.50002H20C20.2761 8.50002 20.5 8.72387 20.5 9.00002V20C20.5 20.2762 20.2761 20.5 20 20.5H17.9502V14.8C17.9502 14.3858 17.6144 14.05 17.2002 14.05C16.786 14.05 16.4502 14.3858 16.4502 14.8V20.5H14.0093V8.50002Z" fill="#212121"/>
</svg>
