<svg width="36" height="36" viewBox="0 0 36 36" fill="none" xmlns="http://www.w3.org/2000/svg">
<path d="M19 8C19.5523 8 20 8.44772 20 9V21C20 21.5523 19.5523 22 19 22H18C17.4477 22 17 21.5523 17 21V9C17 8.44772 17.4477 8 18 8H19Z" fill="#212121"/>
<path d="M19 25H18C17.4477 25 17 25.4477 17 26V27C17 27.5523 17.4477 28 18 28H19C19.5523 28 20 27.5523 20 27V26C20 25.4477 19.5523 25 19 25Z" fill="#212121"/>
<path d="M36 18C36 27.9411 27.9411 36 18 36C8.05887 36 0 27.9411 0 18C0 8.05887 8.05887 0 18 0C27.9411 0 36 8.05887 36 18ZM33.5 18C33.5 9.43959 26.5604 2.5 18 2.5C9.43959 2.5 2.5 9.43959 2.5 18C2.5 26.5604 9.43959 33.5 18 33.5C26.5604 33.5 33.5 26.5604 33.5 18Z" fill="#212121"/>
</svg>
