<?xml version="1.0" encoding="UTF-8"?>
<svg width="24px" height="24px" viewBox="0 0 24 24" version="1.1" xmlns="http://www.w3.org/2000/svg" xmlns:xlink="http://www.w3.org/1999/xlink">
    <title>icon/iconAssistantProperVote</title>
    <g id="页面-1" stroke="none" stroke-width="1" fill="none" fill-rule="evenodd">
        <g id="画板" transform="translate(-168.000000, -420.000000)">
            <g id="icon/iconAssistantProperVote" transform="translate(168.000000, 420.000000)">
                <rect id="矩形备份-2" fill="#FFFFFF" opacity="0" x="0" y="0" width="24" height="24"></rect>
                <path d="M19.475,17.1 C20.7866763,17.1 21.85,18.1633237 21.85,19.475 C21.85,20.7320231 20.8734405,21.7609585 19.6376071,21.8445208 L19.475,21.85 L5.5,21.85 C5.08578644,21.85 4.75,21.5142136 4.75,21.1 C4.75,20.7203042 5.03215388,20.406509 5.39822944,20.3568466 L5.5,20.35 L19.475,20.35 C19.9582492,20.35 20.35,19.9582492 20.35,19.475 C20.35,19.0289239 20.0162005,18.6608108 19.5847581,18.6068175 L19.475,18.6 L4.525,18.6 C3.21332372,18.6 2.15,17.5366763 2.15,16.225 C2.15,14.9679769 3.12655946,13.9390415 4.36239292,13.8554792 L4.525,13.85 L6.8,13.85 C7.21421356,13.85 7.55,14.1857864 7.55,14.6 C7.55,14.9796958 7.26784612,15.293491 6.90177056,15.3431534 L6.8,15.35 L4.525,15.35 C4.04175084,15.35 3.65,15.7417508 3.65,16.225 C3.65,16.6710761 3.98379954,17.0391892 4.41524186,17.0931825 L4.525,17.1 L19.475,17.1 Z M16.7552498,3.94040526 C17.9350617,5.08742047 18.6,6.6519381 18.6,8.28505849 C18.6,9.82211297 18.0109889,11.2983982 16.9580077,12.4231015 L16.7551671,12.6297922 L12.8483051,16.4371276 C12.5861672,16.6925875 12.1837744,16.7181201 11.8936003,16.5137344 L11.8013782,16.4370904 L7.89515672,12.629837 C6.7148148,11.482141 6.05,9.91775591 6.05,8.28478766 C6.05,6.65181941 6.7148148,5.08743436 7.89447169,3.94040526 C10.3433285,1.55319825 14.306393,1.55319825 16.7552498,3.94040526 Z M8.94084053,5.01516632 C8.05012536,5.88124609 7.55,7.05809812 7.55,8.28478766 C7.55,9.42969789 7.98566476,10.5311941 8.76845866,11.3776338 L8.94148115,11.5550326 L12.324,14.852 L15.7089195,11.5549132 C16.4809999,10.8042946 16.9596636,9.8201902 17.0735814,8.77250268 L17.0933629,8.52967727 L17.1,8.28505849 C17.1,7.05825443 16.5997815,5.88130212 15.7081959,5.01449938 C13.841879,3.19516687 10.8078425,3.19516687 8.94084053,5.01516632 Z" id="形状结合" fill="#212121" fill-rule="nonzero"></path>
                <path d="M12.325,6.05 C11.0133255,6.05 9.95,7.11331439 9.95,8.42498308 C9.95,9.73665176 11.0133255,10.7999662 12.325,10.7999662 C13.6366745,10.7999662 14.7,9.73665176 14.7,8.42498308 C14.7,7.11331439 13.6366745,6.05 12.325,6.05 Z M12.325,7.55 C12.8082509,7.55 13.2,7.94174502 13.2,8.42498308 C13.2,8.90822114 12.8082509,9.29996615 12.325,9.29996615 C11.8417491,9.29996615 11.45,8.90822114 11.45,8.42498308 C11.45,7.94174502 11.8417491,7.55 12.325,7.55 Z" id="路径" fill="#FE8F1D" fill-rule="nonzero"></path>
            </g>
        </g>
    </g>
</svg>