<?xml version="1.0" encoding="UTF-8"?>
<svg width="21px" height="22px" viewBox="0 0 21 22" version="1.1" xmlns="http://www.w3.org/2000/svg" xmlns:xlink="http://www.w3.org/1999/xlink">
    <title>Combined Shape</title>
    <g id="Page-1" stroke="none" stroke-width="1" fill="none" fill-rule="evenodd">
        <g id="icon-footerDeliveryStaff" transform="translate(0.600000, 0.000000)" fill="#212121">
            <path d="M5.8,13.8 L7.8,13.8 C8.2,13.8 8.6,13.5 8.6,13 C8.6,12.5 8.3,12.2 7.8,12.2 L5.8,12.2 C2.6,12.2 0,14.8 0,18 L0,20 C0,21 0.8,21.8 1.8,21.8 L7.8,21.8 C8.2,21.8 8.6,21.5 8.6,21 C8.6,20.5 8.3,20.2 7.8,20.2 L1.8,20.2 C1.7,20.2 1.6,20.1 1.6,20 L1.6,18 C1.6,15.7 3.5,13.8 5.8,13.8 Z M17.9,13 L16.9,13 L12.9,13 L11.9,13 C10.8,13 9.9,13.9 9.9,15 L9.9,20 C9.9,21.1 10.8,22 11.9,22 L17.9,22 C19,22 19.9,21.1 19.9,20 L19.9,15 C19.9,13.9 19,13 17.9,13 Z M14.4,14.5 L15.4,14.5 L15.4,16.5 L14.4,16.5 L14.4,14.5 Z M18.4,20 C18.4,20.3 18.2,20.5 17.9,20.5 L11.9,20.5 C11.6,20.5 11.4,20.3 11.4,20 L11.4,15 C11.4,14.7 11.6,14.5 11.9,14.5 L12.9,14.5 L12.9,17 C12.9,17.6 13.3,18 13.9,18 L15.9,18 C16.5,18 16.9,17.6 16.9,17 L16.9,14.5 L17.9,14.5 C18.2,14.5 18.4,14.7 18.4,15 L18.4,20 Z M9.9,11 C12.7,11 14.9,8.8 14.9,6 L14.9,5.2 L17.4,5.2 C17.8,5.2 18.2,4.9 18.2,4.4 C18.2,3.9 17.8,3.8 17.4,3.8 L14.9,3.8 L14.9,3 C14.9,1.3 13.6,0 11.9,0 L7.9,0 C6.2,0 4.9,1.3 4.9,3 L4.9,6 C4.9,8.8 7.1,11 9.9,11 Z M6.4,3 C6.4,2.2 7.1,1.5 7.9,1.5 L11.9,1.5 C12.7,1.5 13.4,2.2 13.4,3 L13.4,3.8 L6.4,3.8 L6.4,3 Z M6.4,5.2 L13.4,5.2 L13.4,6 C13.4,7.9 11.8,9.5 9.9,9.5 C8,9.5 6.4,7.9 6.4,6 L6.4,5.2 Z" id="Combined-Shape"></path>
        </g>
    </g>
</svg>