<?xml version="1.0" encoding="UTF-8"?>
<svg width="28px" height="28px" viewBox="0 0 28 28" version="1.1" xmlns="http://www.w3.org/2000/svg" xmlns:xlink="http://www.w3.org/1999/xlink">
    <title>icon-footerErrorChecked</title>
    <g id="页面-1" stroke="none" stroke-width="1" fill="none" fill-rule="evenodd">
        <g id="画板" transform="translate(-526.000000, -134.000000)">
            <g id="icon-footerErrorChecked" transform="translate(526.000000, 134.000000)">
                <rect id="矩形备份-4" opacity="0" x="0" y="0" width="28" height="28"></rect>
                <path d="M18.0640614,13.7429167 L18.1259678,13.7686901 C18.1632187,13.7904198 18.194215,13.8214162 18.2159447,13.8586671 L23.4749077,22.8740322 C23.5444778,22.9932952 23.5041937,23.1463747 23.3849308,23.2159447 C23.3466967,23.2382479 23.3032267,23.25 23.258963,23.25 L12.741037,23.25 C12.6029658,23.25 12.491037,23.1380712 12.491037,23 C12.491037,22.9557363 12.5027891,22.9122663 12.5250923,22.8740322 L17.7840553,13.8586671 C17.8420303,13.7592813 17.957998,13.7147419 18.0640614,13.7429167 Z M21,4 C22.1045695,4 23,4.8954305 23,6 L23,19.084 L19.5116131,13.1028606 C19.3595052,12.8421042 19.1425307,12.6251297 18.8817743,12.4730218 C18.0469334,11.9860313 16.9753774,12.2680197 16.4883869,13.1028606 L11.2294239,22.1182257 C11.0733017,22.3858638 10.991037,22.6901544 10.991037,23 L7,23 C5.8954305,23 5,22.1045695 5,21 L5,6 C5,4.8954305 5.8954305,4 7,4 L21,4 Z M18,20.75 C17.6203042,20.75 17.306509,21.0321539 17.2568466,21.3982294 L17.25,21.5 L17.25,21.635232 L17.2568466,21.7370026 C17.306509,22.1030782 17.6203042,22.385232 18,22.385232 C18.3796958,22.385232 18.693491,22.1030782 18.7431534,21.7370026 L18.75,21.635232 L18.75,21.5 L18.7431534,21.3982294 C18.693491,21.0321539 18.3796958,20.75 18,20.75 Z M18,16.4565514 C17.6203042,16.4565514 17.306509,16.7387053 17.2568466,17.1047809 L17.25,17.2065514 L17.25,19.5 L17.2568466,19.6017706 C17.306509,19.9678461 17.6203042,20.25 18,20.25 C18.3796958,20.25 18.693491,19.9678461 18.7431534,19.6017706 L18.75,19.5 L18.75,17.2065514 L18.7431534,17.1047809 C18.693491,16.7387053 18.3796958,16.4565514 18,16.4565514 Z M12.9545455,11.75 L8.95454545,11.75 L8.8527749,11.7568466 C8.48669934,11.806509 8.20454545,12.1203042 8.20454545,12.5 C8.20454545,12.8796958 8.48669934,13.193491 8.8527749,13.2431534 L8.95454545,13.25 L12.9545455,13.25 L13.056316,13.2431534 C13.4223916,13.193491 13.7045455,12.8796958 13.7045455,12.5 C13.7045455,12.0857864 13.368759,11.75 12.9545455,11.75 Z M18.9545455,7.75 L8.95454545,7.75 L8.8527749,7.75684662 C8.48669934,7.80650904 8.20454545,8.12030423 8.20454545,8.5 C8.20454545,8.87969577 8.48669934,9.19349096 8.8527749,9.24315338 L8.95454545,9.25 L18.9545455,9.25 L19.056316,9.24315338 C19.4223916,9.19349096 19.7045455,8.87969577 19.7045455,8.5 C19.7045455,8.08578644 19.368759,7.75 18.9545455,7.75 Z" id="形状结合" fill="#212121"></path>
            </g>
        </g>
    </g>
</svg>