<?xml version="1.0" encoding="UTF-8"?>
<svg width="22px" height="20px" viewBox="0 0 22 20" version="1.1" xmlns="http://www.w3.org/2000/svg" xmlns:xlink="http://www.w3.org/1999/xlink">
    <title>icon-camera</title>
    <g id="页面-1" stroke="none" stroke-width="1" fill="none" fill-rule="evenodd">
        <g id="画板" transform="translate(-301.000000, -362.000000)" fill="#212121" fill-rule="nonzero">
            <g id="icon-camera" transform="translate(301.000000, 362.000000)">
                <path d="M13.1,0 C13.7416667,0 14.2993056,0.33611111 14.6958912,0.85428241 L14.8,1 L16.2,3.5 L20,3.5 C21.05,3.5 21.9177686,4.32004132 21.9944872,5.35130541 L22,5.5 L22,17.5 C22,18.55 21.1799587,19.4177686 20.1486946,19.4944872 L20,19.5 L2,19.5 C0.95,19.5 0.0822314,18.6799587 0.00551277,17.6486946 L0,17.5 L0,5.5 C0,4.45 0.82004132,3.5822314 1.85130541,3.50551277 L2,3.5 L5.8,3.5 L7.3,1 C7.5785714,0.44285714 8.2020408,0.05816327 8.8501458,0.00604956 L9,0 L13.1,0 Z M20,5 L2,5 C1.73333333,5 1.54567901,5.15802469 1.50727023,5.40384088 L1.5,5.5 L1.5,17.5 C1.5,17.7666667 1.65802469,17.954321 1.90384088,17.9927298 L2,18 L20,18 C20.2666667,18 20.454321,17.8419753 20.4927298,17.5961591 L20.5,17.5 L20.5,5.5 C20.5,5.2 20.3,5 20,5 Z M11,6.5 C13.8,6.5 16,8.7 16,11.5 C16,14.3 13.8,16.5 11,16.5 C8.2,16.5 6,14.3 6,11.5 C6,8.7 8.2,6.5 11,6.5 Z M11,8 C9.1,8 7.5,9.6 7.5,11.5 C7.5,13.4 9.1,15 11,15 C12.9,15 14.5,13.4 14.5,11.5 C14.5,9.6 12.9,8 11,8 Z M18,6.3 C18.4,6.3 18.8,6.6 18.8,7.1 C18.8,7.5615385 18.4591716,7.8526627 18.0921256,7.8947201 L18,7.9 L17,7.9 C16.5,7.9 16.2,7.5 16.2,7.1 C16.2,6.6384615 16.5408284,6.3473373 16.9078744,6.3052799 L17,6.3 L18,6.3 Z M13,1.5 L8.9,1.5 C8.8166667,1.5 8.6638889,1.56944444 8.5574074,1.70833333 L8.5,1.8 L7.5,3.5 L14.4,3.5 L13.4,1.8 C13.3,1.6 13.2,1.5 13,1.5 Z" id="形状结合"></path>
            </g>
        </g>
    </g>
</svg>