<?xml version="1.0" encoding="utf-8"?>
<!-- Generator: Adobe Illustrator 24.0.3, SVG Export Plug-In . SVG Version: 6.00 Build 0)  -->
<svg version="1.1" id="图层_1" xmlns="http://www.w3.org/2000/svg" xmlns:xlink="http://www.w3.org/1999/xlink" x="0px" y="0px"
	 viewBox="0 0 29 28" style="enable-background:new 0 0 29 28;" xml:space="preserve">
<style type="text/css">
	.st0{fill-rule:evenodd;clip-rule:evenodd;fill:#212121;}
</style>
<g>
	<path class="st0" d="M10.4,16.8h2c0.4,0,0.8-0.3,0.8-0.8s-0.3-0.8-0.8-0.8h-2c-3.2,0-5.8,2.6-5.8,5.8v2c0,1,0.8,1.8,1.8,1.8h6
		c0.4,0,0.8-0.3,0.8-0.8s-0.3-0.8-0.8-0.8h-6c-0.1,0-0.2-0.1-0.2-0.2v-2C6.2,18.7,8.1,16.8,10.4,16.8z"/>
	<path class="st0" d="M22.5,16h-1h-4h-1c-1.1,0-2,0.9-2,2v5c0,1.1,0.9,2,2,2h6c1.1,0,2-0.9,2-2v-5C24.5,16.9,23.6,16,22.5,16z
		 M19,17.5h1v2h-1V17.5z M23,23c0,0.3-0.2,0.5-0.5,0.5h-6c-0.3,0-0.5-0.2-0.5-0.5v-5c0-0.3,0.2-0.5,0.5-0.5h1V20c0,0.6,0.4,1,1,1h2
		c0.6,0,1-0.4,1-1v-2.5h1c0.3,0,0.5,0.2,0.5,0.5V23z"/>
	<path class="st0" d="M14.5,14c2.8,0,5-2.2,5-5V8.2H22c0.4,0,0.8-0.3,0.8-0.8S22.4,6.8,22,6.8h-2.5V6c0-1.7-1.3-3-3-3h-4
		c-1.7,0-3,1.3-3,3v3C9.5,11.8,11.7,14,14.5,14z M11,6c0-0.8,0.7-1.5,1.5-1.5h4C17.3,4.5,18,5.2,18,6v0.8h-7V6z M11,8.2h7V9
		c0,1.9-1.6,3.5-3.5,3.5S11,10.9,11,9V8.2z"/>
</g>
</svg>
