<?xml version="1.0" encoding="utf-8"?>
<!-- Generator: Adobe Illustrator 24.0.3, SVG Export Plug-In . SVG Version: 6.00 Build 0)  -->
<svg version="1.1" id="图层_1" xmlns="http://www.w3.org/2000/svg" xmlns:xlink="http://www.w3.org/1999/xlink" x="0px" y="0px"
	 viewBox="0 0 28 28" style="enable-background:new 0 0 28 28;" xml:space="preserve">
<style type="text/css">
	.st0{fill-rule:evenodd;clip-rule:evenodd;fill:#FE8F1D;}
	.st1{fill-rule:evenodd;clip-rule:evenodd;fill:#FFFFFF;}
</style>
<path class="st0" d="M4,11.9c0,2.6,1.1,5.2,2.9,7l7.1,7l7.1-7c1.9-1.9,2.9-4.4,2.9-7c0-2.6-1.1-5.2-2.9-7C17.1,1,10.8,1,6.9,4.9
	C5,6.8,4,9.3,4,11.9z"/>
<g>
	<path class="st1" d="M19.8,7c0,0-0.1,0-0.1,0l-1.3,0.6V9l1.3-1.3l0.2-0.2C20,7.4,20,7.3,20,7.2C20,7.1,19.9,7,19.8,7z"/>
	<path class="st1" d="M17.7,13L17.7,13h-0.8h-3.7v1.3h1.9c-0.6,0.8-1.5,1.3-2.6,1.3c-1.8,0-3.2-1.5-3.2-3.3c0-1.8,1.5-3.3,3.2-3.3h0
		h3.2h2.7V7.7h-5.8v0c0,0-0.1,0-0.1,0C10,7.7,8,9.8,8,12.3s2,4.7,4.5,4.7c1.4,0,2.6-0.6,3.4-1.6l1.9-2c0.1,0,0.1-0.1,0.1-0.2
		C18,13.1,17.9,13,17.7,13z"/>
	<path class="st1" d="M14.5,10.3L14.5,10.3l-1.2,1.2c0,0,0,0,0,0.1c0,0,0,0.1,0.1,0.1h0h1.1h0h2.6v-1.3H14.5L14.5,10.3z"/>
	<path class="st1" d="M12,14.2C12,14.2,12,14.2,12,14.2c0,0.1,0,0.1,0,0.1h1.1V13L12,14.2L12,14.2z"/>
	<path class="st1" d="M18.5,9.7c0,0-0.1,0-0.1,0l-1.2,0.6v1.3l1.3-1.3l0.2-0.2c0.1,0,0.1-0.1,0.1-0.2C18.7,9.8,18.6,9.7,18.5,9.7z"
		/>
</g>
</svg>
