<?xml version="1.0" encoding="utf-8"?>
<!-- Generator: Adobe Illustrator 24.0.3, SVG Export Plug-In . SVG Version: 6.00 Build 0)  -->
<svg version="1.1" id="图层_1" xmlns="http://www.w3.org/2000/svg" xmlns:xlink="http://www.w3.org/1999/xlink" x="0px" y="0px"
	 viewBox="0 0 20 20" style="enable-background:new 0 0 20 20;" xml:space="preserve">
<style type="text/css">
	.st0{fill-rule:evenodd;clip-rule:evenodd;fill:#FFFFFF;}
</style>
<path class="st0" d="M16.9,3.1c-1.8-1.8-4.3-2.9-6.9-2.9c-5.4,0-9.8,4.4-9.8,9.8c0,0.4,0.3,0.8,0.8,0.8c0.4,0,0.8-0.3,0.8-0.8
	c0-4.6,3.7-8.2,8.2-8.2c2.2,0,4.3,0.9,5.8,2.4c0.8,0.8,1.4,1.7,1.8,2.7c0.3,0.8,1.4,0.5,1.4-0.3V3.1l0-0.1c0-0.4-0.4-0.6-0.7-0.6
	l-0.1,0c-0.4,0-0.6,0.4-0.6,0.7l0,0.8l-0.2-0.2C17.2,3.5,17.1,3.3,16.9,3.1z M19.8,10c0-0.4-0.3-0.8-0.8-0.8s-0.8,0.3-0.8,0.8
	c0,4.6-3.7,8.2-8.2,8.2c-2.2,0-4.3-0.9-5.8-2.4c-0.8-0.8-1.4-1.7-1.8-2.7c-0.3-0.8-1.4-0.5-1.4,0.3v3.4l0,0.1c0,0.4,0.4,0.6,0.7,0.6
	l0.1,0c0.4,0,0.6-0.4,0.6-0.7l0-0.7l0.2,0.2c0.2,0.2,0.3,0.4,0.5,0.6c1.8,1.8,4.3,2.9,6.9,2.9C15.4,19.8,19.8,15.4,19.8,10z"/>
</svg>
