<?xml version="1.0" encoding="UTF-8"?>
<svg width="24px" height="24px" viewBox="0 0 24 24" version="1.1" xmlns="http://www.w3.org/2000/svg" xmlns:xlink="http://www.w3.org/1999/xlink">
    <title>icon-iconPhone</title>
    <g id="页面-1" stroke="none" stroke-width="1" fill="none" fill-rule="evenodd">
        <g id="画板" transform="translate(-260.000000, -544.000000)">
            <g id="icon-iconPhone" transform="translate(260.000000, 544.000000)">
                <rect id="矩形" opacity="0" x="0" y="0" width="24" height="24"></rect>
                <path d="M4.58391262,6.41221862 L4.66335773,6.29457674 L5.89447412,4.55011831 C6.3524985,3.94136983 7.2268541,3.81763669 7.84246541,4.28051904 C8.38102645,4.68546968 8.96441701,5.24159757 9.59523719,5.95199832 C10.2266251,6.66303845 10.6840403,7.30789619 10.9719439,7.89136095 C11.2908813,8.53771886 11.0637225,9.3168198 10.4390067,9.70360838 L10.3554315,9.75041368 L9.75207701,9.98907079 L9.46097768,10.1054733 L9.61347704,10.3793879 C9.84746853,10.7996761 10.1765049,11.2279534 10.6506312,11.7558292 L10.9239354,12.0541896 L11.2424643,12.3918117 L11.4178879,12.572132 L11.606978,12.7563491 L11.9464584,13.0765256 C12.6181251,13.7022326 13.1256025,14.1110881 13.6221132,14.3874077 L13.8961367,14.5399081 L14.2666643,13.6121732 C14.5907036,12.9909431 15.3663197,12.7124642 16.033812,12.9939356 L16.1175961,13.032364 C16.6937931,13.3167285 17.3387522,13.7740753 18.0499031,14.405368 C18.7604131,15.0360917 19.3166259,15.6193925 19.7216394,16.157872 C20.1628663,16.7445027 20.0716988,17.5676752 19.5039599,18.0631502 L19.4002134,18.1433069 L17.7072402,19.3364147 C16.7423644,20.0166135 15.5070359,20.1854963 14.3949491,19.7892386 C12.6383166,19.1633171 10.7706184,17.8973881 8.78299563,15.9824339 L8.47862402,15.6851154 L8.24566631,15.4510527 C6.20399612,13.3784483 4.86126423,11.432241 4.21045059,9.60630944 C3.83173604,8.54378278 3.96884106,7.36741224 4.58391262,6.41221862 Z" id="路径" fill="#212121"></path>
            </g>
        </g>
    </g>
</svg>