<?xml version="1.0" encoding="utf-8"?>
<!-- Generator: Adobe Illustrator 24.0.3, SVG Export Plug-In . SVG Version: 6.00 Build 0)  -->
<svg version="1.1" id="图层_1" xmlns="http://www.w3.org/2000/svg" xmlns:xlink="http://www.w3.org/1999/xlink" x="0px" y="0px"
	 viewBox="0 0 24 24" style="enable-background:new 0 0 24 24;" xml:space="preserve">
<style type="text/css">
	.st0{fill-rule:evenodd;clip-rule:evenodd;fill:#FE8F1D;}
</style>
<path class="st0" d="M4.6,6.4l0.1-0.1l1.2-1.7c0.5-0.6,1.3-0.7,1.9-0.3C8.4,4.7,9,5.2,9.6,6c0.6,0.7,1.1,1.4,1.4,1.9
	c0.3,0.6,0.1,1.4-0.5,1.8l-0.1,0L9.8,10l-0.3,0.1l0.2,0.3c0.2,0.4,0.6,0.8,1,1.4l0.3,0.3l0.3,0.3l0.2,0.2l0.2,0.2l0.3,0.3
	c0.7,0.6,1.2,1,1.7,1.3l0.3,0.2l0.4-0.9c0.3-0.6,1.1-0.9,1.8-0.6l0.1,0c0.6,0.3,1.2,0.7,1.9,1.4c0.7,0.6,1.3,1.2,1.7,1.8
	c0.4,0.6,0.4,1.4-0.2,1.9l-0.1,0.1l-1.7,1.2c-1,0.7-2.2,0.8-3.3,0.5c-1.8-0.6-3.6-1.9-5.6-3.8l-0.3-0.3l-0.2-0.2c-2-2.1-3.4-4-4-5.8
	C3.8,8.5,4,7.4,4.6,6.4z"/>
</svg>
