<?xml version="1.0" encoding="utf-8"?>
<!-- Generator: Adobe Illustrator 24.0.3, SVG Export Plug-In . SVG Version: 6.00 Build 0)  -->
<svg version="1.1" id="图层_1" xmlns="http://www.w3.org/2000/svg" xmlns:xlink="http://www.w3.org/1999/xlink" x="0px" y="0px"
	 viewBox="0 0 28 28" style="enable-background:new 0 0 28 28;" xml:space="preserve">
<style type="text/css">
	.st0{fill-rule:evenodd;clip-rule:evenodd;fill:#757575;}
</style>
<path class="st0" d="M16.1,6h-4.1c-0.2,0-0.3,0.1-0.4,0.3l-1,1.7h6.9l-1-1.7C16.4,6.1,16.2,6,16.1,6z M10.2,5.5L8.8,8H5
	c-1.1,0-2,0.9-2,2v12c0,1.1,0.9,2,2,2h18c1.1,0,2-0.9,2-2V10c0-1.1-0.9-2-2-2h-3.8l-1.4-2.5c-0.4-0.6-1-1-1.7-1h-4.1
	C11.2,4.5,10.6,4.9,10.2,5.5z M8,9.5h12h3c0.3,0,0.5,0.2,0.5,0.5v12c0,0.3-0.2,0.5-0.5,0.5H5c-0.3,0-0.5-0.2-0.5-0.5V10
	c0-0.3,0.2-0.5,0.5-0.5H8z M20,10.8c-0.4,0-0.8,0.3-0.8,0.8s0.3,0.8,0.8,0.8h1c0.4,0,0.8-0.3,0.8-0.8s-0.3-0.8-0.8-0.8H20z M17.5,16
	c0,1.9-1.6,3.5-3.5,3.5s-3.5-1.6-3.5-3.5s1.6-3.5,3.5-3.5S17.5,14.1,17.5,16z M19,16c0,2.8-2.2,5-5,5s-5-2.2-5-5s2.2-5,5-5
	S19,13.2,19,16z"/>
</svg>
