<?xml version="1.0" encoding="utf-8"?>
<!-- Generator: Adobe Illustrator 24.0.3, SVG Export Plug-In . SVG Version: 6.00 Build 0)  -->
<svg version="1.1" id="图层_1" xmlns="http://www.w3.org/2000/svg" xmlns:xlink="http://www.w3.org/1999/xlink" x="0px" y="0px"
	 viewBox="0 0 29 28" style="enable-background:new 0 0 29 28;" xml:space="preserve">
<style type="text/css">
	.st0{fill-rule:evenodd;clip-rule:evenodd;fill:#FE8F1D;}
</style>
<path class="st0" d="M4.5,6c0-1.1,0.9-2,2-2h16c1.1,0,2,0.9,2,2v12c0,1.1-0.9,2-2,2h-16c-1.1,0-2-0.9-2-2V6z M19.4,9.5
	c0.3-0.3,0.8-0.3,1.1,0c0.3,0.3,0.3,0.7,0.1,1l-0.1,0.1L17,14c-0.3,0.3-0.7,0.3-1,0.1L15.9,14L13,11.1L10,14c-0.3,0.3-0.7,0.3-1,0.1
	L9,14c-0.3-0.3-0.3-0.7-0.1-1L9,12.9l3.5-3.4c0.3-0.3,0.7-0.3,1-0.1l0.1,0.1l2.9,2.9L19.4,9.5z M6.5,22.8c-0.4,0-0.8,0.3-0.8,0.8
	s0.3,0.8,0.8,0.8h16c0.4,0,0.8-0.3,0.8-0.8s-0.3-0.8-0.8-0.8H6.5z"/>
</svg>
