<?xml version="1.0" encoding="UTF-8"?>
<svg width="29px" height="26px" viewBox="0 0 29 26" version="1.1" xmlns="http://www.w3.org/2000/svg" xmlns:xlink="http://www.w3.org/1999/xlink">
    <title>icon/icon-departure</title>
    <g id="页面-1" stroke="none" stroke-width="1" fill="none" fill-rule="evenodd">
        <g id="画板" transform="translate(-1102.000000, -154.000000)" fill="#212121" fill-rule="nonzero">
            <g id="icon/icon-departure" transform="translate(1084.196520, 143.000000)">
                <path d="M39.8553396,11 C41.0452033,11 42.1560756,11.5769055 42.8412665,12.5385643 L42.9646667,12.7233372 L45.514665,16.8033344 C46.827717,18.9042177 46.1890536,21.6717591 44.0881703,22.9848112 C43.951372,23.0703101 43.8104917,23.1481024 43.666193,23.2179976 L43.6666667,23.2387993 L43.6666667,25.345928 C43.6666667,25.8982128 43.2189514,26.345928 42.6666667,26.345928 C42.1538308,26.345928 41.7311595,25.9598879 41.6733944,25.4625492 L41.6666667,25.345928 L41.6664796,23.666 L22.3324796,23.666 L22.3333333,34.3333333 C22.3333333,34.6485982 22.5152508,34.9010372 22.7000745,34.9725754 L22.7691699,34.9906919 L22.8888889,35 L41.1111111,35 C41.3474008,35 41.5696324,34.8117532 41.6390502,34.5677801 L41.6576477,34.4739369 L41.668113,34.2795683 C41.6978066,33.7280824 42.1689457,33.3050861 42.7204317,33.3347797 C43.2325257,33.3623523 43.6338303,33.7705591 43.6647724,34.2702842 L43.6652203,34.3870983 L43.6503767,34.6354757 C43.5125498,35.9068811 42.5204022,36.909416 41.2815216,36.9941895 L41.1111111,37 L22.8271972,36.9980953 L22.5839861,36.9811327 C21.3479499,36.8273144 20.4173063,35.7726403 20.3387173,34.5071431 L20.3333333,34.3333333 L20.3334498,23.2189595 C18.8359197,22.4922876 17.8034796,20.9571262 17.8034796,19.1808255 C17.8034796,18.4335054 17.9901595,17.699555 18.3445951,17.0449592 L18.485335,16.8033344 L21.0353333,12.7233372 C21.6659597,11.7143349 22.7439358,11.0780763 23.9225713,11.0067137 L24.1446604,11 L39.8553396,11 Z M39.3869848,26.661161 C39.7775091,26.2706367 40.4106741,26.2706367 40.8011984,26.661161 L40.8011984,26.661161 L43.467865,29.3278277 L43.5510536,29.422035 C43.8560785,29.8143263 43.828349,30.3815573 43.467865,30.7420413 L43.467865,30.7420413 L40.8011984,33.4087079 L40.706991,33.4918965 C40.3146998,33.7969214 39.7474688,33.7691919 39.3869848,33.4087079 L39.3869848,33.4087079 L39.3037962,33.3145006 C38.9987713,32.9222094 39.0265008,32.3549783 39.3869848,31.9944944 L39.3869848,31.9944944 L40.3794796,31 L35.3333333,31 C34.7810486,31 34.3333333,30.5522847 34.3333333,30 C34.3333333,29.4871642 34.7193735,29.0644928 35.2167122,29.0067277 L35.3333333,29 L40.3114796,29 L39.3869848,28.0753746 L39.3037962,27.9811673 C38.9987713,27.5888761 39.0265008,27.021645 39.3869848,26.661161 Z M39.8553396,13 L24.1446604,13 C23.6222512,13 23.1333409,13.2446552 22.8199421,13.6552554 L22.7313299,13.7833351 L20.1813316,17.8633323 C19.9344074,18.258411 19.8034796,18.7149298 19.8034796,19.1808255 C19.8034796,20.498802 20.8291734,21.5772148 22.125876,21.6613791 L22.2893208,21.6666667 L41.7106792,21.6666667 C42.1765749,21.6666667 42.6330937,21.5357388 43.0281724,21.2888146 C44.1438739,20.5915012 44.5153999,19.1539466 43.9040088,18.0106976 L43.8186684,17.8633323 L41.2686701,13.7833351 C40.9641062,13.2960328 40.4299897,13 39.8553396,13 Z"></path>
            </g>
        </g>
    </g>
</svg>