<?xml version="1.0" encoding="UTF-8"?>
<svg width="28px" height="28px" viewBox="0 0 28 28" version="1.1" xmlns="http://www.w3.org/2000/svg" xmlns:xlink="http://www.w3.org/1999/xlink">
    <title>切片</title>
    <g id="页面-1" stroke="none" stroke-width="1" fill="none" fill-rule="evenodd">
        <g id="icon-config" fill="#212121">
            <path d="M18.28593,5 C19.26833,5 20.17623,5.52415 20.66743,6.375 L20.66743,6.375 L24.51273,13.03528 C25.00403,13.88608 25.00403,14.93438 24.51273,15.78528 L24.51273,15.78528 L20.66743,22.44548 C20.17623,23.29638 19.26833,23.82048 18.28593,23.82048 L18.28593,23.82048 L10.59533,23.82048 C9.61282,23.82048 8.70497,23.29638 8.21373,22.44548 L8.21373,22.44548 L4.36843,15.78528 C3.87719,14.93438 3.87719,13.88608 4.36843,13.03528 L4.36843,13.03528 L8.21373,6.375 C8.70497,5.52415 9.61282,5 10.59533,5 L10.59533,5 Z M18.28593,6.5 L10.59533,6.5 C10.14872,6.5 9.73606,6.73825 9.51277,7.125 L9.51277,7.125 L5.66747,13.78528 C5.44418,14.17198 5.44418,14.64848 5.66747,15.03528 L5.66747,15.03528 L9.51277,21.69548 C9.73606,22.08228 10.14872,22.32048 10.59533,22.32048 L10.59533,22.32048 L18.28593,22.32048 C18.73253,22.32048 19.14513,22.08228 19.36843,21.69548 L19.36843,21.69548 L23.21373,15.03528 C23.43703,14.64848 23.43703,14.17198 23.21373,13.78528 L23.21373,13.78528 L19.36843,7.125 C19.14513,6.73825 18.73243,6.5 18.28593,6.5 L18.28593,6.5 Z M14.44023,10.66028 C16.51133,10.66028 18.19023,12.33918 18.19023,14.41028 C18.19023,16.48128 16.51133,18.16028 14.44023,18.16028 C12.36923,18.16028 10.69033,16.48128 10.69033,14.41028 C10.69033,12.33918 12.36923,10.66028 14.44023,10.66028 Z M14.44023,12.16028 C13.19763,12.16028 12.19023,13.16758 12.19023,14.41028 C12.19023,15.65288 13.19763,16.66028 14.44023,16.66028 C15.68293,16.66028 16.69023,15.65288 16.69023,14.41028 C16.69023,13.16758 15.68293,12.16028 14.44023,12.16028 Z" id="形状结合"></path>
        </g>
    </g>
</svg>