<?xml version="1.0" encoding="UTF-8"?>
<svg width="36px" height="36px" viewBox="0 0 36 36" version="1.1" xmlns="http://www.w3.org/2000/svg" xmlns:xlink="http://www.w3.org/1999/xlink">
    <title>icon-toast成功</title>
    <g id="页面-1" stroke="none" stroke-width="1" fill="none" fill-rule="evenodd">
        <g id="画板" transform="translate(-820.000000, -202.000000)" fill="#212121" fill-rule="nonzero">
            <g id="icon-toast成功" transform="translate(820.000000, 202.000000)">
                <path d="M18,0 C27.9411255,0 36,8.0588745 36,18 C36,27.9411255 27.9411255,36 18,36 C8.0588745,36 0,27.9411255 0,18 C0,8.0588745 8.0588745,0 18,0 Z M18,2.5 C9.43958638,2.5 2.5,9.43958638 2.5,18 C2.5,26.5604136 9.43958638,33.5 18,33.5 C26.5604136,33.5 33.5,26.5604136 33.5,18 C33.5,9.43958638 26.5604136,2.5 18,2.5 Z M27.8916328,12.1239344 C28.3432146,12.5835406 28.3672487,13.3036006 27.9680782,13.7909438 L27.8760656,13.8916328 L16.6806013,24.8916328 C16.2229086,25.3413346 15.5064544,25.3672946 15.018879,24.9723709 L14.9180796,24.8813033 L9.11354388,19.0428297 C8.62681349,18.5532535 8.62912048,17.7618007 9.11869668,17.2750703 C9.57563446,16.8207886 10.2955404,16.7925128 10.7852268,17.1888053 L10.8864561,17.2802231 L15.814,22.237 L26.1239344,12.1083672 C26.6163696,11.6245295 27.4077952,11.6314992 27.8916328,12.1239344 Z" id="形状结合"></path>
            </g>
        </g>
    </g>
</svg>