<?xml version="1.0" encoding="UTF-8"?>
<svg width="36px" height="36px" viewBox="0 0 36 36" version="1.1" xmlns="http://www.w3.org/2000/svg" xmlns:xlink="http://www.w3.org/1999/xlink">
    <title>icon-toast说明注释</title>
    <g id="页面-1" stroke="none" stroke-width="1" fill="none" fill-rule="evenodd">
        <g id="画板" transform="translate(-734.000000, -202.000000)" fill="#212121" fill-rule="nonzero">
            <g id="icon-toast说明注释" transform="translate(734.000000, 202.000000)">
                <path d="M18,0 C27.9411255,0 36,8.0588745 36,18 C36,27.9411255 27.9411255,36 18,36 C8.0588745,36 0,27.9411255 0,18 C0,8.0588745 8.0588745,0 18,0 Z M18,2.5 C9.43958638,2.5 2.5,9.43958638 2.5,18 C2.5,26.5604136 9.43958638,33.5 18,33.5 C26.5604136,33.5 33.5,26.5604136 33.5,18 C33.5,9.43958638 26.5604136,2.5 18,2.5 Z M18.1999844,23.8 C19.0836844,23.8 19.7999844,24.5163 19.7999844,25.4 C19.7999844,26.2837 19.0836844,27 18.1999844,27 C17.3162844,27 16.5999844,26.2837 16.5999844,25.4 C16.5999844,24.5163 17.3162844,23.8 18.1999844,23.8 Z M18.1769844,9 C19.7541844,9 21.2507844,9.46491 22.1716844,10.4147 C22.9879844,11.3202 23.3999844,12.491 23.3999844,13.8702 C23.3999844,14.863 23.0649844,15.818 22.4257844,16.6956 L22.4257844,16.6956 L22.3113844,16.8422 L22.1748844,17.0042 L22.0119844,17.1867 L21.7086844,17.5092 L21.3217844,17.905 L20.8778844,18.3494 C20.2554844,18.9263 20.0597844,19.1968 19.7622844,19.8746 L19.7622844,19.8746 L19.6915844,20.0385 L19.6575844,20.1116 C19.5137844,20.3956 19.4243844,20.7894 19.4042844,21.2156 L19.4042844,21.2156 L19.3999844,21.4 C19.3999844,22.0627 18.8626844,22.6 18.1999844,22.6 C17.5372844,22.6 16.9999844,22.0627 16.9999844,21.4 C16.9999844,20.6373 17.1344844,19.886 17.4169844,19.2389 L17.4169844,19.2389 L17.4927844,19.0752 L17.5743844,18.8883 C17.9678844,17.9995 18.3153844,17.4807 19.0409844,16.7833 L19.0409844,16.7833 L19.2153844,16.619 L19.8440844,15.9851 L20.1933844,15.6193 L20.3215844,15.4783 L20.4784844,15.292 L20.4942844,15.2712 C20.8363844,14.8014 20.9999844,14.335 20.9999844,13.8702 C20.9999844,13.0622 20.7905844,12.4669 20.4194844,12.0541 C20.0519844,11.6756 19.1648844,11.4 18.1769844,11.4 C17.1971844,11.4 16.5578844,11.6918 16.1059844,12.3124 C15.6638844,12.9079 15.4184844,13.735 15.3997844,14.8145 C15.3882844,15.4771 14.8417844,16.005 14.1791844,15.9935 C13.5165844,15.982 12.9886844,15.4355 13.0001844,14.7729 C13.0270844,13.2209 13.4161844,11.9092 14.1723844,10.8907 C15.0934844,9.62571 16.4641844,9 18.1769844,9 Z" id="形状结合"></path>
            </g>
        </g>
    </g>
</svg>