<?xml version="1.0" encoding="utf-8"?>
<!-- Generator: Adobe Illustrator 24.0.3, SVG Export Plug-In . SVG Version: 6.00 Build 0)  -->
<svg version="1.1" id="图层_1" xmlns="http://www.w3.org/2000/svg" xmlns:xlink="http://www.w3.org/1999/xlink" x="0px" y="0px"
	 viewBox="0 0 29 28" style="enable-background:new 0 0 29 28;" xml:space="preserve">
<style type="text/css">
	.st0{fill-rule:evenodd;clip-rule:evenodd;fill:#212121;}
</style>
<path class="st0" d="M16.5,4.5h-4C11.7,4.5,11,5.2,11,6v0.8h7V6C18,5.2,17.3,4.5,16.5,4.5z M11,9V8.2h7V9c0,1.9-1.6,3.5-3.5,3.5
	S11,10.9,11,9z M19.5,9V8.2H22c0.4,0,0.8-0.3,0.8-0.8S22.4,6.8,22,6.8h-2.5V6c0-1.7-1.3-3-3-3h-4c-1.7,0-3,1.3-3,3v3
	c0,2.8,2.2,5,5,5S19.5,11.8,19.5,9z M6.2,21c0-2.3,1.9-4.2,4.2-4.2h2c0.4,0,0.8-0.3,0.8-0.8s-0.3-0.8-0.8-0.8h-2
	c-3.2,0-5.8,2.6-5.8,5.8v2c0,1,0.8,1.8,1.8,1.8h6c0.4,0,0.8-0.3,0.8-0.8s-0.3-0.8-0.8-0.8h-6c-0.1,0-0.2-0.1-0.2-0.2V21z M16.5,17.5
	c-0.3,0-0.5,0.2-0.5,0.5v5c0,0.3,0.2,0.5,0.5,0.5h6c0.3,0,0.5-0.2,0.5-0.5v-5c0-0.3-0.2-0.5-0.5-0.5h-1V20c0,0.6-0.4,1-1,1h-2
	c-0.6,0-1-0.4-1-1v-2.5H16.5z M17.5,16h4h1c1.1,0,2,0.9,2,2v5c0,1.1-0.9,2-2,2h-6c-1.1,0-2-0.9-2-2v-5c0-1.1,0.9-2,2-2H17.5z
	 M19,17.5v2h1v-2H19z"/>
</svg>
