<?xml version="1.0" encoding="UTF-8"?>
<svg width="120px" height="120px" viewBox="0 0 120 120" version="1.1" xmlns="http://www.w3.org/2000/svg" xmlns:xlink="http://www.w3.org/1999/xlink">
    <title>icon/icon-authentication</title>
    <g id="页面-1" stroke="none" stroke-width="1" fill="none" fill-rule="evenodd">
        <g id="画板" transform="translate(-442.000000, -348.000000)">
            <g id="icon/icon-authentication" transform="translate(442.000000, 348.000000)">
                <circle id="蒙版" fill="#F8F8F8" cx="60" cy="60" r="60"></circle>
                <rect id="矩形" fill="#CCDAE6" x="43" y="86" width="34" height="8"></rect>
                <rect id="矩形" fill="#FFCBA2" x="45" y="75.5611842" width="30" height="26"></rect>
                <path d="M40.1066534,93.8701781 L59.9741998,100.946804 L59.9739459,119.999994 C43.6536294,119.993059 28.8568199,113.47013 18.0438967,102.891586 L40.1066534,93.8701781 Z" id="形状结合" fill="#EFF3F7"></path>
                <path d="M79.8417461,93.8701781 L101.941042,102.906316 C91.1236859,113.481812 76.3230452,120 60,120 C59.9913149,120 59.9826302,119.999998 59.9739459,119.999994 L59.9741998,100.946804 L79.8417461,93.8701781 Z" id="形状结合" fill="#EFF3F7"></path>
                <rect id="矩形" fill="#454545" x="54" y="99" width="11" height="8" rx="4"></rect>
                <path d="M62.7581472,105 L64.9229385,119.800939 C63.2993752,119.932787 61.6575368,120 60,120 C58.0059433,120 56.0346063,119.902725 54.0904755,119.712663 L56.2418528,105 L62.7581472,105 Z" id="形状结合" fill="#454545"></path>
                <path d="M43,86 L60,99 L49.4837142,107.068871 C48.8702787,107.539544 47.9914351,107.423812 47.5207621,106.810376 C47.4956379,106.777632 47.4719739,106.743792 47.4498396,106.708956 L39.4404187,94.1034794 C39.1684734,93.6754834 39.14922,93.1338922 39.390087,92.6876659 L43,86 L43,86 Z" id="路径-24" fill="#DEE8F0"></path>
                <path d="M64,86 L81,99 L70.4837142,107.068871 C69.8702787,107.539544 68.9914351,107.423812 68.5207621,106.810376 C68.4956379,106.777632 68.4719739,106.743792 68.4498396,106.708956 L60.4404187,94.1034794 C60.1684734,93.6754834 60.14922,93.1338922 60.390087,92.6876659 L64,86 L64,86 Z" id="路径-24" fill="#DEE8F0" transform="translate(70.500000, 97.000000) scale(-1, 1) translate(-70.500000, -97.000000) "></path>
                <path d="M59.7457804,18.5233151 C74.4902916,18.5233151 84.3441853,32.9494951 84.3441853,50.7450899 C84.3441853,50.9984509 84.3434643,51.2511289 84.3419517,51.503092 C84.5628967,51.4956059 84.784383,51.5128551 85.0047309,51.5557379 C87.4903341,52.0394716 88.8898285,55.6018221 88.1305894,59.5124704 C87.4123568,63.2119018 85.0195729,65.8977876 82.6589796,65.7676184 C81.794375,68.6388615 80.5092376,71.2535186 78.6236217,73.5293253 C76.1395799,76.5273902 73.1683044,78.9373983 69.8654461,80.5714898 C68.2773583,81.3571974 66.6126118,83.3644676 64.888509,83.7705241 C63.2243786,84.1624561 61.5049495,84.3678113 59.7457804,84.3678113 C57.9866114,84.3678113 56.2671822,84.1624561 54.6030519,83.7705241 C52.8789491,83.3644676 51.2142026,81.3571974 49.6261148,80.5714898 C46.3232565,78.9373983 43.351981,76.5273902 40.8679392,73.5293253 C38.9573453,71.2233719 37.6632439,68.5695315 36.7968352,65.6532835 L36.7044248,65.6797276 L36.7044248,65.6797276 L36.5366475,65.717448 C34.0510443,66.2011818 31.4205797,63.4231186 30.6613401,59.5124704 C29.902101,55.6018221 31.3015954,52.0394716 33.7871986,51.5557379 C34.2408077,51.4674591 34.6992413,51.4878121 35.150246,51.6038558 L35.1484671,51.2779358 L35.1484671,51.2779358 L35.1473756,50.7450899 C35.1473756,32.9494951 45.0012693,18.5233151 59.7457804,18.5233151 Z" id="形状结合" fill="#FED7B8"></path>
                <path d="M74.529395,35.4125836 C78.6495624,38.8279833 80.8651244,43.7136141 81.1760808,50.0694761 C81.2870136,52.3369106 80.8174662,55.2680926 80.6850893,56.6271435 C81.1955899,57.9866406 82.8991299,55.0387311 84.0958489,52.9506456 C84.4814466,52.2778385 84.7048185,51.4616274 85.0150664,51.559401 C85.6396949,51.7562508 86.1399637,52.0150354 86.515873,52.3357549 C89.6611897,35.1061537 86.6846926,25.3451705 77.5863818,23.0528051 C68.4880709,20.7604398 67.4690754,24.8803659 74.529395,35.4125836 Z" id="路径-50" fill="#7B3818"></path>
                <path d="M77.5863818,24.127102 C79.7566323,27.5801026 78.7376367,31.3419298 74.529395,35.4125836 C68.2170325,41.5185644 47.8292387,36.0630522 43.8050992,39.65353 C39.7809597,43.2440078 37.5202597,46.6061077 38.3462354,53.2674697 C38.5914567,55.2451395 38.4380916,58.2269825 37.8861404,58.2130478 C37.4278274,58.2014038 36.1220177,55.972444 33.9687111,51.5261683 C30.6912275,43.3592157 30.8100374,36.1932322 34.3251406,30.0282178 C37.1557049,25.0637919 39.423877,23.7063679 39.8216229,22.9311051 C40.1647811,22.2622414 36.5468944,22.4858039 37.0740746,18.951556 C40.5190624,19.913993 46.1355301,18.0909041 51.0623558,16.7264579 C53.3496506,16.0930094 62.291666,15.0882796 69.9684361,17.7296757 C72.1998065,18.4974378 74.7391218,20.6299132 77.5863818,24.127102 Z" id="路径-49" fill="#8D4827"></path>
                <circle id="椭圆形备份" fill="#3BC48B" cx="99.5" cy="105.5" r="14.5"></circle>
                <path d="M92.1306215,104.648723 C92.6614905,104.117854 93.5221991,104.117854 94.0530681,104.648723 L97.5769126,108.172568 L104.946932,100.80383 C105.477801,100.272961 106.33851,100.272961 106.869378,100.80383 C107.400247,101.334699 107.400247,102.195408 106.869378,102.726277 L98.5387767,111.056878 C98.0079078,111.587747 97.1471991,111.587747 96.6163302,111.056878 L92.1306215,106.57117 C91.5997526,106.040301 91.5997526,105.179592 92.1306215,104.648723 Z" id="路径" fill="#FFFFFF"></path>
            </g>
        </g>
    </g>
</svg>