<?xml version="1.0" encoding="utf-8"?>
<!-- Generator: Adobe Illustrator 24.0.3, SVG Export Plug-In . SVG Version: 6.00 Build 0)  -->
<svg version="1.1" id="图层_1" xmlns="http://www.w3.org/2000/svg" xmlns:xlink="http://www.w3.org/1999/xlink" x="0px" y="0px"
	 viewBox="0 0 24 24" style="enable-background:new 0 0 24 24;" xml:space="preserve">
<style type="text/css">
	.st0{fill-rule:evenodd;clip-rule:evenodd;fill:#212121;}
</style>
<path class="st0" d="M11.9,4l-8,1.7c-0.2,0-0.4,0.3-0.4,0.5V20c0,0.3,0.2,0.5,0.5,0.5h8.5v-16C12.5,4.1,12.2,3.9,11.9,4z M3.6,4.2
	C2.7,4.4,2,5.2,2,6.1V20c0,1.1,0.9,2,2,2h8.5H14h6c1.1,0,2-0.9,2-2V9c0-1.1-0.9-2-2-2h-6V4.5c0-1.3-1.2-2.2-2.4-2L3.6,4.2z M14,8.5
	h6c0.3,0,0.5,0.2,0.5,0.5v11c0,0.3-0.2,0.5-0.5,0.5h-2v-5.7c0-0.4-0.3-0.8-0.8-0.8c-0.4,0-0.8,0.3-0.8,0.8v5.7H14V8.5z M7,11.9
	c-0.4,0-0.8,0.3-0.8,0.8c0,0.4,0.3,0.8,0.8,0.8h2.4c0.4,0,0.8-0.3,0.8-0.8c0-0.4-0.3-0.8-0.8-0.8H7z M6.2,9c0-0.4,0.3-0.8,0.8-0.8
	h2.4c0.4,0,0.8,0.3,0.8,0.8c0,0.4-0.3,0.8-0.8,0.8H7C6.6,9.8,6.2,9.4,6.2,9z M7,15.4c-0.4,0-0.8,0.3-0.8,0.8C6.2,16.6,6.6,17,7,17
	h2.4c0.4,0,0.8-0.3,0.8-0.8c0-0.4-0.3-0.8-0.8-0.8H7z"/>
</svg>
