<svg width="16" height="16" viewBox="0 0 16 16" fill="none" xmlns="http://www.w3.org/2000/svg">
<path d="M8 15C11.866 15 15 11.866 15 8C15 4.13401 11.866 1 8 1C4.13401 1 1 4.13401 1 8C1 11.866 4.13401 15 8 15ZM10.7841 6.14385L8.92796 7.99965L10.7841 9.85616C11.0404 10.1124 11.0404 10.528 10.7841 10.7842C10.5278 11.0405 10.1123 11.0405 9.85604 10.7842L7.99988 8.92773L6.14373 10.7842C5.88744 11.0405 5.47193 11.0405 5.21565 10.7842C4.95937 10.528 4.95937 10.1124 5.21565 9.85616L7.0718 7.99965L5.21565 6.14385C4.95937 5.88757 4.95937 5.47205 5.21565 5.21577C5.47193 4.95949 5.88744 4.95949 6.14373 5.21577L7.99988 7.07157L9.85604 5.21577C10.1123 4.95949 10.5278 4.95949 10.7841 5.21577C11.0404 5.47205 11.0404 5.88757 10.7841 6.14385Z" fill="#212121"/>
</svg>
