<?xml version="1.0" encoding="UTF-8"?>
<svg width="28px" height="28px" viewBox="0 0 28 28" version="1.1" xmlns="http://www.w3.org/2000/svg" xmlns:xlink="http://www.w3.org/1999/xlink">
    <title>icon-footerShiftManageChecked</title>
    <g id="页面-1" stroke="none" stroke-width="1" fill="none" fill-rule="evenodd">
        <g id="画板" transform="translate(-346.000000, -134.000000)">
            <g id="icon-footerShiftManageChecked" transform="translate(346.000000, 134.000000)">
                <rect id="矩形备份-4" opacity="0" x="0" y="0" width="28" height="28"></rect>
                <path d="M19.5093782,14.7 C22.160345,14.7 24.3093782,16.8490332 24.3093782,19.5 C24.3093782,22.1509668 22.160345,24.3 19.5093782,24.3 C16.8584114,24.3 14.7093782,22.1509668 14.7093782,19.5 C14.7093782,16.8490332 16.8584114,14.7 19.5093782,14.7 Z M23,11 L23.0007474,14.3216724 C22.0020033,13.6451624 20.7971492,13.25 19.5,13.25 C16.0482203,13.25 13.25,16.0482203 13.25,19.5 C13.25,21.1875367 13.9188092,22.7188647 15.0058229,23.8433793 L15.1625223,23.9998743 L6,24 C4.8954305,24 4,23.1045695 4,22 L4,11 L23,11 Z M19,17.25 C18.6203042,17.25 18.306509,17.5321539 18.2568466,17.8982294 L18.25,18 L18.25,20 L18.2568466,20.1017706 C18.3019943,20.4345665 18.5654335,20.6980057 18.8982294,20.7431534 L19,20.75 L21,20.75 L21.1017706,20.7431534 C21.4345665,20.6980057 21.6980057,20.4345665 21.7431534,20.1017706 L21.75,20 L21.7431534,19.8982294 C21.6980057,19.5654335 21.4345665,19.3019943 21.1017706,19.2568466 L21,19.25 L19.75,19.25 L19.75,18 L19.7431534,17.8982294 C19.693491,17.5321539 19.3796958,17.25 19,17.25 Z M9.8125,16.75 L7.1875,16.75 L7.08572944,16.7568466 C6.71965388,16.806509 6.4375,17.1203042 6.4375,17.5 C6.4375,17.8796958 6.71965388,18.193491 7.08572944,18.2431534 L7.1875,18.25 L9.8125,18.25 L9.91427056,18.2431534 C10.2803461,18.193491 10.5625,17.8796958 10.5625,17.5 C10.5625,17.0857864 10.2267136,16.75 9.8125,16.75 Z M11.6875,13.75 L7.3125,13.75 L7.21072944,13.7568466 C6.84465388,13.806509 6.5625,14.1203042 6.5625,14.5 C6.5625,14.8796958 6.84465388,15.193491 7.21072944,15.2431534 L7.3125,15.25 L11.6875,15.25 L11.7892706,15.2431534 C12.1553461,15.193491 12.4375,14.8796958 12.4375,14.5 C12.4375,14.0857864 12.1017136,13.75 11.6875,13.75 Z M18.5,3.55 C18.8796958,3.55 19.193491,3.83215388 19.2431534,4.19822944 L19.25,4.3 L19.25,5.5 L21,5.5 C22.1045695,5.5 23,6.3954305 23,7.5 L23,9.5 L4,9.5 L4,7.5 C4,6.3954305 4.8954305,5.5 6,5.5 L7.75,5.5 L7.75,4.3 C7.75,3.88578644 8.08578644,3.55 8.5,3.55 C8.87969577,3.55 9.19349096,3.83215388 9.24315338,4.19822944 L9.25,4.3 L9.25,5.5 L17.75,5.5 L17.75,4.3 C17.75,3.88578644 18.0857864,3.55 18.5,3.55 Z" id="形状结合" fill="#212121"></path>
            </g>
        </g>
    </g>
</svg>