<?xml version="1.0" encoding="UTF-8"?>
<svg width="16px" height="16px" viewBox="0 0 16 16" version="1.1" xmlns="http://www.w3.org/2000/svg" xmlns:xlink="http://www.w3.org/1999/xlink">
    <title>icon-time</title>
    <g id="页面-1" stroke="none" stroke-width="1" fill="none" fill-rule="evenodd">
        <g id="画板" transform="translate(-242.000000, -561.000000)" fill="#212121" fill-rule="nonzero">
            <g id="icon-time" transform="translate(242.000000, 561.000000)">
                <path d="M8,0 C12.4180756,0 16,3.58219968 16,8 C16,12.4178003 12.4180756,16 8,16 C3.58192438,16 0,12.4178003 0,8 C0,3.58219968 3.58192438,0 8,0 Z M8,1.5 C4.41045456,1.5 1.5,4.41052374 1.5,8 C1.5,11.5894763 4.41045456,14.5 8,14.5 C11.5895454,14.5 14.5,11.5894763 14.5,8 C14.5,4.41052374 11.5895454,1.5 8,1.5 Z M7,4.25 C7.37969577,4.25 7.69349096,4.53215388 7.74315338,4.89822944 L7.75,5 L7.75,8.25 L11,8.25 C11.3796958,8.25 11.693491,8.5321539 11.7431534,8.8982294 L11.75,9 C11.75,9.3796958 11.4678461,9.693491 11.1017706,9.7431534 L11,9.75 L7,9.75 C6.62030423,9.75 6.30650904,9.4678461 6.25684662,9.1017706 L6.25,9 L6.25,5 C6.25,4.58578644 6.58578644,4.25 7,4.25 Z" id="形状结合"></path>
            </g>
        </g>
    </g>
</svg>