<?xml version="1.0" encoding="UTF-8"?>
<svg width="28px" height="28px" viewBox="0 0 28 28" version="1.1" xmlns="http://www.w3.org/2000/svg" xmlns:xlink="http://www.w3.org/1999/xlink">
    <title>icon-Rejection</title>
    <g id="页面-1" stroke="none" stroke-width="1" fill="none" fill-rule="evenodd">
        <g id="画板" transform="translate(-80.000000, -293.000000)">
            <g id="icon-Rejection" transform="translate(80.000000, 293.000000)">
                <rect id="矩形" opacity="0" x="0" y="0" width="28" height="28"></rect>
                <path d="M17,3.25 C17.9664983,3.25 18.75,4.03350169 18.75,5 L18.75,5 L18.75,5.25 L21,5.25 C22.4625318,5.25 23.6584043,6.3917046 23.7449812,7.83247767 L23.75,8 L23.75,22 C23.75,23.4625318 22.6082954,24.6584043 21.1675223,24.7449812 L21,24.75 L7,24.75 C5.53746816,24.75 4.34159572,23.6082954 4.25501879,22.1675223 L4.25,22 L4.25,8 C4.25,6.53746816 5.3917046,5.34159572 6.83247767,5.25501879 L7,5.25 L9.25,5.25 L9.25,5 C9.25,4.0818266 9.95711027,3.32880766 10.8564728,3.2558012 L11,3.25 Z M9.25,6.75 L7,6.75 C6.35279131,6.75 5.8204661,7.24187466 5.75645361,7.87219476 L5.75,8 L5.75,22 C5.75,22.6472087 6.24187466,23.1795339 6.87219476,23.2435464 L7,23.25 L21,23.25 C21.6472087,23.25 22.1795339,22.7581253 22.2435464,22.1278052 L22.25,22 L22.25,8 C22.25,7.35279131 21.7581253,6.8204661 21.1278052,6.75645361 L21,6.75 L18.75,6.75 L18.75,7 C18.75,7.9181734 18.0428897,8.67119234 17.1435272,8.7441988 L17,8.75 L11,8.75 C10.0335017,8.75 9.25,7.96649831 9.25,7 L9.25,7 L9.25,6.75 Z M10.5772762,11.9696699 C10.8701695,11.6767767 11.3450432,11.6767767 11.6379364,11.9696699 L11.6379364,11.9696699 L14.107,14.439 L16.5772762,11.9696699 C16.8701695,11.6767767 17.3450432,11.6767767 17.6379364,11.9696699 C17.904203,12.2359365 17.928409,12.6526002 17.7105546,12.9462117 L17.6379364,13.0303301 L15.168,15.5 L17.6379364,17.9696699 L17.7105546,18.0537883 C17.928409,18.3473998 17.904203,18.7640635 17.6379364,19.0303301 C17.3450432,19.3232233 16.8701695,19.3232233 16.5772762,19.0303301 L16.5772762,19.0303301 L14.107,16.56 L11.6379364,19.0303301 C11.3450432,19.3232233 10.8701695,19.3232233 10.5772762,19.0303301 C10.3110097,18.7640635 10.2868036,18.3473998 10.5046581,18.0537883 L10.5772762,17.9696699 L13.047,15.5 L10.5772762,13.0303301 L10.5046581,12.9462117 C10.2868036,12.6526002 10.3110097,12.2359365 10.5772762,11.9696699 Z M17,4.75 L11,4.75 C10.8619288,4.75 10.75,4.86192881 10.75,5 L10.75,5 L10.75,7 C10.75,7.13807119 10.8619288,7.25 11,7.25 L11,7.25 L17,7.25 C17.1380712,7.25 17.25,7.13807119 17.25,7 L17.25,7 L17.25,5 C17.25,4.86192881 17.1380712,4.75 17,4.75 L17,4.75 Z" id="形状结合" fill="#212121" fill-rule="nonzero"></path>
            </g>
        </g>
    </g>
</svg>