<?xml version="1.0" encoding="UTF-8"?>
<svg width="24px" height="24px" viewBox="0 0 24 24" version="1.1" xmlns="http://www.w3.org/2000/svg" xmlns:xlink="http://www.w3.org/1999/xlink">
    <title>icon/iconAssistantDownloadAPP</title>
    <g id="页面-1" stroke="none" stroke-width="1" fill="none" fill-rule="evenodd">
        <g id="画板" transform="translate(-304.000000, -420.000000)">
            <g id="icon/iconAssistantDownloadAPP" transform="translate(304.000000, 420.000000)">
                <rect id="矩形备份-2" fill="#FFFFFF" opacity="0" x="0" y="0" width="24" height="24"></rect>
                <path d="M16.875,1.5 C18.1866763,1.5 19.25,2.56332372 19.25,3.875 L19.25,3.875 L19.25,20.125 C19.25,21.4366763 18.1866763,22.5 16.875,22.5 L16.875,22.5 L7.125,22.5 C5.81332372,22.5 4.75,21.4366763 4.75,20.125 L4.75,20.125 L4.75,3.875 C4.75,2.56332372 5.81332372,1.5 7.125,1.5 L7.125,1.5 Z M17.75,17.3 L6.25,17.3 L6.25,20.125 C6.25,20.5710761 6.58379954,20.9391892 7.01524186,20.9931825 L7.01524186,20.9931825 L7.125,21 L16.875,21 C17.3582492,21 17.75,20.6082492 17.75,20.125 L17.75,20.125 L17.75,17.3 Z M12,18.2091732 C12.5384776,18.2091732 12.975,18.6456956 12.975,19.1841732 C12.975,19.7226508 12.5384776,20.1591732 12,20.1591732 C11.4615224,20.1591732 11.025,19.7226508 11.025,19.1841732 C11.025,18.6456956 11.4615224,18.2091732 12,18.2091732 Z M17.75,5.6 L6.25,5.6 L6.25,15.799 L17.75,15.799 L17.75,5.6 Z M16.875,3 L7.125,3 L7.125,3 L7.01524186,3.00681749 C6.58379954,3.06081077 6.25,3.42892386 6.25,3.875 L6.25,3.875 L6.25,4.1 L17.75,4.1 L17.75,3.875 C17.75,3.39175084 17.3582492,3 16.875,3 L16.875,3 Z" id="形状结合" fill="#212121" fill-rule="nonzero"></path>
                <path d="M12.1,7.45 C12.5142136,7.45 12.85,7.78578644 12.85,8.2 L12.8496453,11.675 L13.4997521,11.0251183 C13.7926453,10.7322251 14.2675191,10.7322251 14.5604123,11.0251183 C14.8533055,11.3180115 14.8533055,11.7928853 14.5604123,12.0857785 L12.863356,13.7828348 C12.8223919,13.8237989 12.7778681,13.8590337 12.7307804,13.8885393 C12.5982846,14.0949475 12.365219,14.2326126 12.1,14.2326126 C11.8238576,14.2326126 11.5825718,14.0833742 11.452397,13.8611519 L11.44349,13.8554529 C11.4141288,13.8336675 11.3859982,13.8094614 11.3593715,13.7828348 L9.66231525,12.0857785 C9.36942204,11.7928853 9.36942204,11.3180115 9.66231525,11.0251183 C9.95520847,10.7322251 10.4300822,10.7322251 10.7229754,11.0251183 L11.3496453,11.652 L11.35,8.2 C11.35,7.78578644 11.6857864,7.45 12.1,7.45 Z" id="形状结合" fill="#FE8F1D"></path>
            </g>
        </g>
    </g>
</svg>