<?xml version="1.0" encoding="UTF-8"?>
<svg width="28px" height="28px" viewBox="0 0 28 28" version="1.1" xmlns="http://www.w3.org/2000/svg" xmlns:xlink="http://www.w3.org/1999/xlink">
    <title>icon-footerWorkforceManageChecked</title>
    <g id="页面-1" stroke="none" stroke-width="1" fill="none" fill-rule="evenodd">
        <g id="画板" transform="translate(-406.000000, -134.000000)">
            <g id="icon-footerWorkforceManageChecked" transform="translate(406.000000, 134.000000)">
                <rect id="矩形备份-4" opacity="0" x="0" y="0" width="28" height="28"></rect>
                <path d="M10.2668445,5 C10.2668445,6.59768088 11.5157644,7.90366088 13.0905717,7.99490731 L13.2668445,8 L16.2668445,8 C17.8645253,8 19.1705053,6.75108004 19.2617518,5.17627279 L19.2668445,5 L21.5,5 C22.6045695,5 23.5,5.8954305 23.5,7 L23.5,23 C23.5,24.1045695 22.6045695,25 21.5,25 L7.5,25 C6.3954305,25 5.5,24.1045695 5.5,23 L5.5,7 C5.5,5.8954305 6.3954305,5 7.5,5 L10.2668445,5 Z M14.9545455,18.75 L9.95454545,18.75 L9.8527749,18.7568466 C9.48669934,18.806509 9.20454545,19.1203042 9.20454545,19.5 C9.20454545,19.8796958 9.48669934,20.193491 9.8527749,20.2431534 L9.95454545,20.25 L14.9545455,20.25 L15.056316,20.2431534 C15.4223916,20.193491 15.7045455,19.8796958 15.7045455,19.5 C15.7045455,19.0857864 15.368759,18.75 14.9545455,18.75 Z M18.9545455,14.75 L9.95454545,14.75 L9.8527749,14.7568466 C9.48669934,14.806509 9.20454545,15.1203042 9.20454545,15.5 C9.20454545,15.8796958 9.48669934,16.193491 9.8527749,16.2431534 L9.95454545,16.25 L18.9545455,16.25 L19.056316,16.2431534 C19.4223916,16.193491 19.7045455,15.8796958 19.7045455,15.5 C19.7045455,15.0857864 19.368759,14.75 18.9545455,14.75 Z M18.9545455,10.75 L9.95454545,10.75 L9.8527749,10.7568466 C9.48669934,10.806509 9.20454545,11.1203042 9.20454545,11.5 C9.20454545,11.8796958 9.48669934,12.193491 9.8527749,12.2431534 L9.95454545,12.25 L18.9545455,12.25 L19.056316,12.2431534 C19.4223916,12.193491 19.7045455,11.8796958 19.7045455,11.5 C19.7045455,11.0857864 19.368759,10.75 18.9545455,10.75 Z M16.2668445,3.5 L16.4113045,3.50686658 C17.1719564,3.57955132 17.7668445,4.22030388 17.7668445,5 C17.7668445,5.82842712 17.0952716,6.5 16.2668445,6.5 L16.2668445,6.5 L13.2668445,6.5 L13.1223845,6.49313342 C12.3617325,6.42044868 11.7668445,5.77969612 11.7668445,5 C11.7668445,4.17157288 12.4384173,3.5 13.2668445,3.5 L13.2668445,3.5 L16.2668445,3.5 Z" id="形状结合" fill="#212121"></path>
            </g>
        </g>
    </g>
</svg>