<?xml version="1.0" encoding="UTF-8"?>
<svg width="20px" height="20px" viewBox="0 0 20 20" version="1.1" xmlns="http://www.w3.org/2000/svg" xmlns:xlink="http://www.w3.org/1999/xlink">
    <title>icon-close</title>
    <g id="页面-1" stroke="none" stroke-width="1" fill="none" fill-rule="evenodd">
        <g id="画板" transform="translate(-302.000000, -546.000000)">
            <g id="icon-close" transform="translate(302.000000, 546.000000)">
                <rect id="矩形" opacity="0" x="0" y="0" width="20" height="20"></rect>
                <path d="M11.0377025,10.0005025 L15.7848025,5.2537925 C16.0717025,4.9666725 16.0717025,4.5024525 15.7848025,4.2172025 C15.4979025,3.9300925 15.0340025,3.9300925 14.7490025,4.2172025 L10,8.9620125 L5.2510525,4.2153325 C4.9641425,3.9282225 4.5002325,3.9282225 4.2151825,4.2153325 C3.9282725,4.5024525 3.9282725,4.9666725 4.2151825,5.2519225 L8.9622725,9.9986025 L4.2151825,14.7471025 C3.9282725,15.0343025 3.9282725,15.4985025 4.2151825,15.7837025 C4.3586425,15.9273025 4.5468125,15.9981025 4.7331225,15.9981025 C4.9212925,15.9981025 5.1075925,15.9273025 5.2510525,15.7837025 L10,11.0371025 L14.7490025,15.7856025 C14.8924025,15.9292025 15.0787025,16 15.2669025,16 C15.4551025,16 15.6414025,15.9292025 15.7848025,15.7856025 C16.0717025,15.4985025 16.0717025,15.0343025 15.7848025,14.7490025 L11.0377025,10.0005025 Z" id="路径" fill="#212121"></path>
            </g>
        </g>
    </g>
</svg>