<?xml version="1.0" encoding="UTF-8"?>
<svg width="24px" height="24px" viewBox="0 0 24 24" version="1.1" xmlns="http://www.w3.org/2000/svg" xmlns:xlink="http://www.w3.org/1999/xlink">
    <title>icon/icon-usercenterAssistant</title>
    <g id="页面-1" stroke="none" stroke-width="1" fill="none" fill-rule="evenodd">
        <g id="画板" transform="translate(-176.000000, -362.000000)">
            <g id="icon/icon-usercenterAssistant" transform="translate(176.000000, 362.000000)">
                <rect id="矩形备份-6" opacity="0" x="0" y="0" width="24" height="24"></rect>
                <path d="M20.9995556,11.25 L21,18.2500087 C21,19.3545782 20.1045695,20.2500087 19,20.2500087 L5,20.2500087 C3.8954305,20.2500087 3,19.3545782 3,18.2500087 L2.99955556,11.25 L9.2613098,11.2510967 C9.38305955,12.5961538 10.4733265,13.6616906 11.8291852,13.7447814 L12,13.75 C13.4342358,13.75 14.6120306,12.6520459 14.7387165,11.2508057 L14.7387165,11.2508057 L20.9995556,11.25 Z M13.2248055,11.2509341 C13.1086272,11.8210287 12.6044094,12.25 12,12.25 C11.3955906,12.25 10.8913728,11.8210287 10.7751945,11.2509341 L10.7751945,11.2509341 Z M19,6 C20.1045695,6 21,6.8954305 21,8 L20.9995556,9.75 L2.99955556,9.75 L3,8 C3,6.8954305 3.8954305,6 5,6 L19,6 Z M9,3 L15,3 C16.1045695,3 17,3.8954305 17,5 L17,6 L17,6 L7,6 L7,5 C7,3.8954305 7.8954305,3 9,3 Z" id="形状结合" fill="#212121"></path>
            </g>
        </g>
    </g>
</svg>