<?xml version="1.0" encoding="UTF-8"?>
<svg width="28px" height="28px" viewBox="0 0 28 28" version="1.1" xmlns="http://www.w3.org/2000/svg" xmlns:xlink="http://www.w3.org/1999/xlink">
    <title>icon-footerDeliveryChecked</title>
    <g id="页面-1" stroke="none" stroke-width="1" fill="none" fill-rule="evenodd">
        <g id="画板" transform="translate(-146.000000, -134.000000)">
            <g id="icon-footerDeliveryChecked" transform="translate(146.000000, 134.000000)">
                <rect id="矩形备份-4" opacity="0" x="0" y="0" width="28" height="28"></rect>
                <path d="M10,4.25 C10.4142136,4.25 10.75,4.58578644 10.75,5 C10.75,5.37969577 10.4678461,5.69349096 10.1017706,5.74315338 L10,5.75 L7.596,5.75 L6.87267307,8.89482738 C8.26287663,9.23327248 9.35125268,10.3879493 9.56163784,11.8592222 C9.81317658,13.6182919 11.3197901,14.9247921 13.0967531,14.9247921 L14.4473281,14.9243156 C15.8138168,12.7935691 18.2194389,11.3520841 20.9760629,11.2552049 L21.2727273,11.25 L24,11.25 C24.3796958,11.25 24.693491,11.5321539 24.7431534,11.8982294 L24.75,12 L24.7496554,18.1975978 C24.9111463,18.6001681 25,19.0397076 25,19.5 C25,21.4329966 23.4329966,23 21.5,23 C19.6512098,23 18.1372201,21.5665484 18.0088218,19.7504362 L9.99117817,19.7504362 C9.86277994,21.5665484 8.34879025,23 6.5,23 C4.56700338,23 3,21.4329966 3,19.5 C3,19.2471964 3.02680243,19.0006529 3.07772068,18.763056 C3.07701924,18.7511519 3.0778451,18.7386785 3.07898984,18.726179 L3.09513893,18.6254649 L6.26910008,4.83181765 C6.33961949,4.5253489 6.59220317,4.2992516 6.89674147,4.25709683 L7,4.25 L10,4.25 Z M6.5,18.5 C5.94771525,18.5 5.5,18.9477153 5.5,19.5 C5.5,20.0522847 5.94771525,20.5 6.5,20.5 C7.05228475,20.5 7.5,20.0522847 7.5,19.5 C7.5,18.9477153 7.05228475,18.5 6.5,18.5 Z M21.5,18.5 C20.9477153,18.5 20.5,18.9477153 20.5,19.5 C20.5,20.0522847 20.9477153,20.5 21.5,20.5 C22.0522847,20.5 22.5,20.0522847 22.5,19.5 C22.5,18.9477153 22.0522847,18.5 21.5,18.5 Z M22.8867529,5.60300781 C23.7151801,5.60300781 24.3867529,6.27458069 24.3867529,7.10300781 L24.3867529,8.86416016 C24.3867529,9.69258728 23.7151801,10.3641602 22.8867529,10.3641602 L19.168042,10.3641602 C18.3396149,10.3641602 17.668042,9.69258728 17.668042,8.86416016 L17.668042,7.10300781 C17.668042,6.27458069 18.3396149,5.60300781 19.168042,5.60300781 L22.8867529,5.60300781 Z" id="形状结合" fill="#212121" fill-rule="nonzero"></path>
            </g>
        </g>
    </g>
</svg>