<?xml version="1.0" encoding="UTF-8"?>
<svg width="28px" height="28px" viewBox="0 0 28 28" version="1.1" xmlns="http://www.w3.org/2000/svg" xmlns:xlink="http://www.w3.org/1999/xlink">
    <title>icon-footer已选</title>
    <g id="页面-1" stroke="none" stroke-width="1" fill="none" fill-rule="evenodd">
        <g id="画板" transform="translate(-586.000000, -134.000000)">
            <g id="icon-footer已选" transform="translate(586.000000, 134.000000)">
                <rect id="矩形备份-6" x="0" y="0" width="28" height="28"></rect>
                <path d="M14,3 C18.9705627,3 23,7.02943725 23,12 C23,16.9705627 15.0516641,25 14,25 C12.9483359,25 5,16.9705627 5,12 C5,7.02943725 9.02943725,3 14,3 Z M14,6.25 C10.8243627,6.25 8.25,8.82436269 8.25,12 C8.25,15.1756373 10.8243627,17.75 14,17.75 C17.1756373,17.75 19.75,15.1756373 19.75,12 C19.75,8.82436269 17.1756373,6.25 14,6.25 Z M14,7.75 C16.3472102,7.75 18.25,9.65278981 18.25,12 C18.25,14.3472102 16.3472102,16.25 14,16.25 C11.6527898,16.25 9.75,14.3472102 9.75,12 C9.75,9.65278981 11.6527898,7.75 14,7.75 Z M13.6482238,9.72119653 C13.2340103,9.72119653 12.8982238,10.056983 12.8982238,10.4711965 L12.8982238,10.4711965 L12.8982238,12.4711965 L12.9050704,12.5729671 C12.9547329,12.9390426 13.2685281,13.2211965 13.6482238,13.2211965 L13.6482238,13.2211965 L15.6482238,13.2211965 L15.7499944,13.2143499 C16.1160699,13.1646875 16.3982238,12.8508923 16.3982238,12.4711965 L16.3982238,12.4711965 L16.3913772,12.369426 C16.3417148,12.0033504 16.0279196,11.7211965 15.6482238,11.7211965 L15.6482238,11.7211965 L14.398,11.721 L14.3982238,10.4711965 L14.3913772,10.369426 C14.3417148,10.0033504 14.0279196,9.72119653 13.6482238,9.72119653 Z" id="形状结合" fill="#212121"></path>
            </g>
        </g>
    </g>
</svg>