<?xml version="1.0" encoding="UTF-8"?>
<svg width="24px" height="24px" viewBox="0 0 24 24" version="1.1" xmlns="http://www.w3.org/2000/svg" xmlns:xlink="http://www.w3.org/1999/xlink">
    <title>icon-shop</title>
    <g id="页面-1" stroke="none" stroke-width="1" fill="none" fill-rule="evenodd">
        <g id="画板" transform="translate(-462.000000, -290.000000)" fill-rule="nonzero">
            <g id="icon-shop" transform="translate(462.000000, 290.000000)">
                <rect id="矩形" opacity="0" x="0" y="0" width="24" height="24"></rect>
                <path d="M17.3606368,4 C18.2020771,4 18.9063183,4.42188346 19.2161455,5.13380498 L19.2727758,5.2800174 L20.7947202,9.16004039 L20.8142562,9.19002989 C20.8191401,9.20002725 20.8240241,9.21252459 20.8276871,9.22752257 L20.8337921,9.28001904 L20.8887051,9.46280599 C20.9736042,9.77114453 21.0223774,10.0933236 20.9898377,10.3599302 C20.9898377,11.6800217 20.2484034,12.9199856 19.1167746,13.5599695 C18.6094329,13.7999226 18.063096,13.9599258 17.3997329,13.9599258 C16.3070792,13.9599258 15.3314516,13.4799451 14.6680885,12.6799084 C14.0046045,13.47997 13.0290978,13.9599258 11.9754192,13.9599258 C10.9217647,13.9599258 9.94625809,13.4799451 9.28277408,12.6799084 C8.5804359,13.5199201 7.60483248,14 6.55115385,14 C6.00479323,14 5.48838405,13.9080654 5.05411715,13.697502 L4.87318404,13.5999197 L4.69778151,13.4999463 C3.66544236,12.8690991 3,11.6883226 3,10.3999795 C3,10.0399733 3.07804699,9.6399963 3.1950973,9.27999013 C3.22116135,9.25329055 3.22984936,9.2443907 3.23274537,9.22958699 L3.23419337,9.19999059 L4.87318404,5.23996805 C5.12812246,4.53064654 5.75695403,4.0652419 6.5694118,4.00634049 L6.74625116,4 L17.3606368,4 Z M17.3606368,5.5 L6.74625116,5.5 C6.50957834,5.5 6.37713356,5.56869343 6.29261622,5.73584989 L4.678,9.634 L4.66501333,9.67919898 L4.62631713,9.78703164 L4.575,9.902 L4.5450986,10.0283751 C4.52549659,10.1206162 4.51198677,10.2087087 4.50515823,10.2880667 L4.5,10.3999795 C4.5,11.0989766 4.82935286,11.7493353 5.31577433,12.1121784 L5.44055226,12.1967611 L5.64299228,12.312521 C5.83693911,12.4284928 6.14807443,12.5 6.55115385,12.5 C7.0861424,12.5 7.59289225,12.2799082 8.00007164,11.8637127 L8.13201245,11.7177506 C8.69977226,11.0386976 9.71778839,11.0029496 10.3331446,11.6087972 L10.4373834,11.7223713 C10.8269164,12.1920748 11.3851661,12.4599258 11.9754192,12.4599258 C12.5066835,12.4599258 13.0119801,12.2429767 13.3916846,11.8571767 L13.5134646,11.7223889 C14.0800003,11.0392324 15.1012549,11.001316 15.7182697,11.608608 L15.8227836,11.7224748 C16.2140504,12.1943549 16.7734509,12.4599258 17.3997329,12.4599258 C17.7158209,12.4599258 17.9945792,12.4039944 18.2933342,12.2838456 L18.424,12.225 L18.518642,12.1674316 C19.0649567,11.7984491 19.4302181,11.1777638 19.4831795,10.5239479 L19.4898377,10.3599302 L19.5004083,10.152138 L19.4857182,10.0445649 C19.4817147,10.0220413 19.4769239,9.99774238 19.4713311,9.97245101 L19.4521323,9.89438271 L19.393,9.693 L17.8532484,5.76472538 C17.8052151,5.62405401 17.6869099,5.53004144 17.4746853,5.50605156 L17.3606368,5.5 Z M15,8.75 C15.4142136,8.75 15.75,9.08578644 15.75,9.5 C15.75,9.87969577 15.4678461,10.193491 15.1017706,10.2431534 L15,10.25 L9,10.25 C8.58578644,10.25 8.25,9.91421356 8.25,9.5 C8.25,9.12030423 8.53215388,8.80650904 8.89822944,8.75684662 L9,8.75 L15,8.75 Z M19,14.25 C19.3796958,14.25 19.693491,14.5321539 19.7431534,14.8982294 L19.75,15 L19.75,19 C19.75,19.9181734 19.0428897,20.6711923 18.1435272,20.7441988 L18,20.75 L6,20.75 C5.0818266,20.75 4.32880766,20.0428897 4.2558012,19.1435272 L4.25,19 L4.25,15 C4.25,14.5857864 4.58578644,14.25 5,14.25 C5.37969577,14.25 5.69349096,14.5321539 5.74315338,14.8982294 L5.75,15 L5.75,19 C5.75,19.1183467 5.83223341,19.2174868 5.94267729,19.2433973 L6,19.25 L18,19.25 C18.1183467,19.25 18.2174868,19.1677666 18.2433973,19.0573227 L18.25,19 L18.25,15 C18.25,14.5857864 18.5857864,14.25 19,14.25 Z" id="形状结合" fill="#000000"></path>
            </g>
        </g>
    </g>
</svg>