<?xml version="1.0" encoding="utf-8"?>
<!-- Generator: Adobe Illustrator 24.0.3, SVG Export Plug-In . SVG Version: 6.00 Build 0)  -->
<svg version="1.1" id="图层_1" xmlns="http://www.w3.org/2000/svg" xmlns:xlink="http://www.w3.org/1999/xlink" x="0px" y="0px"
	 viewBox="0 0 36 36" style="enable-background:new 0 0 36 36;" xml:space="preserve">
<style type="text/css">
	.st0{fill:url(#SVGID_1_);}
</style>
<radialGradient id="SVGID_1_" cx="-462.1875" cy="500.1875" r="0.4375" gradientTransform="matrix(16 0 0 -16 7413 8021)" gradientUnits="userSpaceOnUse">
	<stop  offset="0.6226" style="stop-color:#FFFFFF;stop-opacity:1.000000e-02"/>
	<stop  offset="0.75" style="stop-color:#FFFFFF"/>
</radialGradient>
<path class="st0" d="M18,35.5C8.4,35.5,0.5,27.6,0.5,18c0-4.4,1.6-8.5,4.5-11.8c0.6-0.6,1.5-0.7,2.1-0.1c0.6,0.6,0.7,1.5,0.1,2.1
	c-2.4,2.7-3.8,6.1-3.8,9.7c0,8,6.5,14.5,14.5,14.5S32.5,26,32.5,18S26,3.5,18,3.5c-0.8,0-1.5-0.7-1.5-1.5s0.7-1.5,1.5-1.5
	c9.6,0,17.5,7.9,17.5,17.5S27.6,35.5,18,35.5z"/>
</svg>
