<?xml version="1.0" encoding="UTF-8"?>
<svg width="28px" height="28px" viewBox="0 0 28 28" version="1.1" xmlns="http://www.w3.org/2000/svg" xmlns:xlink="http://www.w3.org/1999/xlink">
    <title>icon/icon-location</title>
    <g id="页面-1" stroke="none" stroke-width="1" fill="none" fill-rule="evenodd">
        <g id="画板" transform="translate(-566.000000, -292.000000)">
            <g id="icon/icon-location" transform="translate(566.000000, 292.000000)">
                <rect id="矩形" fill="#000000" fill-rule="nonzero" opacity="0" x="0" y="0" width="28" height="28"></rect>
                <path d="M6.88553556,18.9700732 C5.01127575,17.1112032 3.95703126,14.5808306 3.95703126,11.9411464 C3.95703126,9.30146233 5.01127575,6.77108964 6.88553556,4.91221967 C10.7906701,1.02926011 17.1228883,1.02926011 21.0280228,4.91221967 C22.9025907,6.77112854 23.9570313,9.30171618 23.9570313,11.9416464 C23.9570313,14.5815767 22.9025907,17.1121643 21.0280228,18.9710732 L13.9567792,26 L6.88553556,18.9700732 Z" id="路径" fill="#212121"></path>
                <path d="M19.7565923,7 C19.8910227,7 20,7.11183562 20,7.24979184 C20,7.30891594 19.9799838,7.36324237 19.9465261,7.40602389 L19.9079031,7.44546795 L19.9079031,7.44546795 L19.68357,7.67443797 L18.3853955,9.00666112 L12.5422695,9.00666112 C10.7503937,9.00666112 9.29779129,10.4978027 9.29779129,12.337219 C9.29779129,14.1766353 10.7503937,15.6677769 12.5422695,15.6677769 C13.6034849,15.6677769 14.5457019,15.1447667 15.1376552,14.3361474 L12.0892965,14.3355537 L12.0576677,14.3290104 C12.0285468,14.3163703 12.0081136,14.2867788 12.0081136,14.2522898 C12.0081136,14.2253175 12.0206107,14.2013407 12.0399868,14.1861247 L12.040568,14.185729 L13.1926978,13.0033306 L15.7217206,13.0039663 C15.7217871,13.0036303 15.7218536,13.0032943 15.72192,13.0029583 L17.0385578,13.0031993 L17.7200811,13.0033306 C17.8545115,13.0033306 17.9634888,13.1151662 17.9634888,13.2531224 C17.9634888,13.3350202 17.9250829,13.4077126 17.8657456,13.4532666 L15.9602802,15.4082417 C15.1277145,16.3839069 13.9050806,17 12.5422695,17 C10.0336433,17 8,14.9124018 8,12.337219 C8,9.76203614 10.0336433,7.67443797 12.5422695,7.67443797 L12.624,7.676 L12.6247465,7.67443797 L18.3853955,7.67443797 L19.6452644,7.02759917 C19.6786274,7.00995898 19.7164766,7 19.7565923,7 Z M18.4584178,9.66444629 C18.5928482,9.66444629 18.7018256,9.77628191 18.7018256,9.91423813 C18.7018256,9.99482209 18.664642,10.0664936 18.6069219,10.112169 L18.3853955,10.3388843 L17.0872211,11.6711074 L13.387471,11.6711074 L13.3558422,11.6645641 C13.3267213,11.651924 13.306288,11.6223325 13.306288,11.5878435 C13.306288,11.5611719 13.318508,11.5374294 13.3375158,11.5221905 L13.3387424,11.5212827 L14.4908722,10.3388843 L17.0872211,10.3388843 L18.34709,9.69204546 C18.380453,9.67440527 18.4183021,9.66444629 18.4584178,9.66444629 Z" id="形状结合" fill="#FFFFFF"></path>
            </g>
        </g>
    </g>
</svg>