<?xml version="1.0" encoding="UTF-8"?>
<svg width="28px" height="28px" viewBox="0 0 28 28" version="1.1" xmlns="http://www.w3.org/2000/svg" xmlns:xlink="http://www.w3.org/1999/xlink">
    <title>icon-footerCheckingIn</title>
    <g id="页面-1" stroke="none" stroke-width="1" fill="none" fill-rule="evenodd">
        <g id="画板" transform="translate(-466.000000, -80.000000)">
            <g id="icon-footerCheckingIn" transform="translate(466.000000, 80.000000)">
                <rect id="矩形备份-4" opacity="0" x="0" y="0" width="28" height="28"></rect>
                <path d="M19.5,3.45 C19.8796958,3.45 20.193491,3.73215388 20.2431534,4.09822944 L20.25,4.2 L20.25,5.249 L22,5.25 C23.4625318,5.25 24.6584043,6.3917046 24.7449812,7.83247767 L24.75,8 L24.75,22 C24.75,23.5187831 23.5187831,24.75 22,24.75 L22,24.75 L6,24.75 C4.48121694,24.75 3.25,23.5187831 3.25,22 L3.25,22 L3.25,8 C3.25,6.48121694 4.48121694,5.25 6,5.25 L6,5.25 L7.75,5.249 L7.75,4.2 C7.75,3.78578644 8.08578644,3.45 8.5,3.45 C8.87969577,3.45 9.19349096,3.73215388 9.24315338,4.09822944 L9.25,4.2 L9.25,5.249 L18.75,5.249 L18.75,4.2 C18.75,3.78578644 19.0857864,3.45 19.5,3.45 Z M23.25,11.249 L4.75,11.249 L4.75,22 C4.75,22.6472087 5.24187466,23.1795339 5.87219476,23.2435464 L6,23.25 L22,23.25 C22.6903559,23.25 23.25,22.6903559 23.25,22 L23.25,22 L23.25,11.249 Z M19.5559431,14.4965844 C19.8086965,14.7757107 19.8122383,15.1930619 19.5801105,15.4755242 L19.5034156,15.5559431 L15.4679971,19.2100807 C15.2108309,19.442949 14.8324802,19.4662358 14.5510771,19.2799412 L14.4611659,19.2100807 L12.173,17.138 L9.5034156,19.5559431 C9.22428933,19.8086965 8.80693814,19.8122383 8.52447582,19.5801105 L8.4440569,19.5034156 C8.19130348,19.2242893 8.18776173,18.8069381 8.41988952,18.5244758 L8.4965844,18.4440569 L11.6698504,15.5706125 C11.9270166,15.3377442 12.3053673,15.3144574 12.5867704,15.500752 L12.6766816,15.5706125 L14.964,17.642 L18.4965844,14.4440569 C18.8036233,14.1660281 19.2779143,14.1895455 19.5559431,14.4965844 Z M22,6.75 L6,6.75 C5.30964406,6.75 4.75,7.30964406 4.75,8 L4.75,8 L4.75,9.749 L23.25,9.749 L23.25,8 C23.25,7.35279131 22.7581253,6.8204661 22.1278052,6.75645361 L22,6.75 Z" id="形状结合" fill="#212121" fill-rule="nonzero"></path>
            </g>
        </g>
    </g>
</svg>