<?xml version="1.0" encoding="utf-8"?>
<!-- Generator: Adobe Illustrator 24.0.3, SVG Export Plug-In . SVG Version: 6.00 Build 0)  -->
<svg version="1.1" id="图层_1" xmlns="http://www.w3.org/2000/svg" xmlns:xlink="http://www.w3.org/1999/xlink" x="0px" y="0px"
	 viewBox="0 0 20 20" style="enable-background:new 0 0 20 20;" xml:space="preserve">
<style type="text/css">
	.st0{fill-rule:evenodd;clip-rule:evenodd;fill:#757575;}
</style>
<path class="st0" d="M3.5,10c0-3.6,2.9-6.5,6.5-6.5c3.6,0,6.5,2.9,6.5,6.5c0,3.6-2.9,6.5-6.5,6.5C6.4,16.5,3.5,13.6,3.5,10z M10,2
	c-4.4,0-8,3.6-8,8s3.6,8,8,8c4.4,0,8-3.6,8-8S14.4,2,10,2z M9.8,7c0-0.4-0.3-0.8-0.8-0.8S8.2,6.6,8.2,7v4c0,0.4,0.3,0.8,0.8,0.8h4
	c0.4,0,0.8-0.3,0.8-0.8s-0.3-0.8-0.8-0.8H9.8V7z"/>
</svg>
