<?xml version="1.0" encoding="utf-8"?>
<!-- Generator: Adobe Illustrator 24.0.3, SVG Export Plug-In . SVG Version: 6.00 Build 0)  -->
<svg version="1.1" id="图层_1" xmlns="http://www.w3.org/2000/svg" xmlns:xlink="http://www.w3.org/1999/xlink" x="0px" y="0px"
	 viewBox="0 0 64 64" style="enable-background:new 0 0 64 64;" xml:space="preserve">
<style type="text/css">
	.st0{fill:#212121;fill-opacity:0.7;}
	.st1{fill:#FFFFFF;}
</style>
<circle id="æ_xA4__xAD_å_x9C__x86_å_xBD__xA2_" class="st0" cx="32" cy="32" r="32"/>
<g>
	<path class="st1" d="M45.7,16.8l-2.5-4.1c-0.7-1.1-1.8-1.7-3.1-1.7H24.3c-1.3,0-2.4,0.7-3.1,1.7l-2.5,4.1c-0.4,0.7-0.7,1.5-0.7,2.4
		c0,1.8,1,3.3,2.5,4c0,0,0,0,0,0v11.1l0,0.2c0.1,1.3,1,2.3,2.2,2.5l0.2,0l18.3,0l0.2,0c1.2-0.1,2.2-1.1,2.4-2.4l0-0.2l0-0.1
		c0-0.5-0.4-0.9-0.9-0.9c-0.6,0-1,0.4-1.1,0.9l0,0.2l0,0.1c-0.1,0.2-0.3,0.4-0.5,0.4H23.1L23,35l-0.1,0c-0.2-0.1-0.4-0.3-0.4-0.6
		V23.7h19.3v1.7l0,0.1c0.1,0.5,0.5,0.9,1,0.9c0.6,0,1-0.4,1-1v-2.1l0,0c0.1-0.1,0.3-0.1,0.4-0.2C46.4,21.7,47,18.9,45.7,16.8z
		 M43.2,21.3c-0.4,0.2-0.9,0.4-1.3,0.4H22.5c-1.4,0-2.5-1.1-2.5-2.5c0-0.5,0.1-0.9,0.4-1.3l2.5-4.1c0.3-0.5,0.8-0.8,1.4-0.8h15.7
		c0.6,0,1.1,0.3,1.4,0.8l2.5,4.1C44.7,19,44.4,20.6,43.2,21.3z"/>
	<path class="st1" d="M39.5,33.3L39.5,33.3c0.4,0.5,1,0.5,1.4,0.2l0.1-0.1l2.7-2.7c0.4-0.4,0.4-0.9,0.1-1.3l-0.1-0.1L41,26.7
		c-0.4-0.4-1-0.4-1.4,0c-0.4,0.4-0.4,0.9-0.1,1.3l0.1,0.1l0.9,0.9h-5l-0.1,0c-0.5,0.1-0.9,0.5-0.9,1c0,0.6,0.4,1,1,1h5l-1,1
		C39.2,32.4,39.2,32.9,39.5,33.3z"/>
	<path class="st1" d="M26.1,48.7H30v-3.3h-0.8V48h-6v-2.6h-0.8v3.3h3c0,0.1-0.1,0.2-0.1,0.3l0,0c-0.1,0.2-0.1,0.3-0.2,0.5h-3.4v4.6
		h0.8v-3.8h2.3c-0.3,0.7-0.6,1.2-0.9,1.7c-0.1,0.1-0.2,0.1-0.4,0.1l0.2,0.8c2-0.2,3.5-0.4,4.4-0.6c0,0.1,0.1,0.1,0.1,0.2v0
		c0.1,0.1,0.1,0.3,0.2,0.4l0.7-0.3c-0.4-0.8-0.9-1.6-1.4-2.4h2.2v2.6c0,0.3-0.2,0.4-0.5,0.4l-0.9,0l0.2,0.8h1c0.7,0,1-0.3,1-1v-3.6
		h-4.9C25.9,49.3,26,49,26.1,48.7z M27.4,50.3L27,50.5c0.2,0.4,0.5,0.7,0.7,1.2c-1,0.2-2,0.3-3,0.4c0.3-0.5,0.6-1.1,0.9-1.8H27.4z"
		/>
	<path class="st1" d="M24.1,47.8c1-0.3,1.7-0.7,2.4-1c0.6,0.3,1.2,0.6,1.8,1l0.4-0.6c-0.5-0.3-1-0.6-1.5-0.9c0.4-0.3,0.8-0.6,1.2-1
		L27.7,45c-0.4,0.4-0.9,0.7-1.3,1c-0.7-0.3-1.4-0.6-2.2-0.9l-0.4,0.6c0.6,0.2,1.2,0.5,1.8,0.8c-0.6,0.3-1.3,0.6-2,0.8L24.1,47.8z"/>
	<path class="st1" d="M39.3,45.7h-0.9v4h-2.7v4.5h0.9v-0.6h5.1v0.6h0.9v-4.5h-3.2V48h4v-0.8h-4V45.7z M41.6,50.5v2.3h-5.1v-2.3H41.6
		z"/>
	<path class="st1" d="M38.5,43.1l-0.9,0.1c0.2,0.3,0.4,0.7,0.6,1.1h-4.4v3.5c0,2.4-0.4,4.4-1.1,5.7l0.6,0.6c0.8-1.6,1.3-3.7,1.3-6.3
		v-2.6h8.8v-0.8h-4.4C38.9,43.9,38.7,43.5,38.5,43.1z"/>
	<path class="st1" d="M26.3,43l-0.9,0.1c0.1,0.3,0.3,0.5,0.4,0.9H21v0.8h10.3V44h-4.6C26.6,43.6,26.5,43.3,26.3,43z"/>
</g>
</svg>
