<?xml version="1.0" encoding="UTF-8"?>
<svg width="28px" height="28px" viewBox="0 0 28 28" version="1.1" xmlns="http://www.w3.org/2000/svg" xmlns:xlink="http://www.w3.org/1999/xlink">
    <title>icon-userCenter</title>
    <g id="页面-1" stroke="none" stroke-width="1" fill="none" fill-rule="evenodd">
        <g id="画板" transform="translate(-228.000000, -293.000000)">
            <g id="icon-userCenter" transform="translate(228.000000, 293.000000)">
                <rect id="矩形备份-6" opacity="0" x="0" y="0" width="28" height="28"></rect>
                <path d="M19.4545455,16 C21.9649307,16 24,18.2385763 24,21 L24,23 C24,23.5522847 23.5522847,24 23,24 L5,24 C4.44771525,24 4,23.5522847 4,23 L4,21 C4,18.2385763 6.03506932,16 8.54545455,16 L19.4545455,16 Z M19.4545455,17.5 L8.54545455,17.5 C6.95392226,17.5 5.59664927,18.9326318 5.50493667,20.798476 L5.5,21 L5.5,22.5 L22.5,22.5 L22.5,21 C22.5,19.1044869 21.1976074,17.6064926 19.6241234,17.5054365 L19.4545455,17.5 Z M14,4 C16.7614237,4 19,6.23857625 19,9 C19,11.6887547 16.8776933,13.8818181 14.2168896,13.9953805 L14,14 C11.2385763,14 9,11.7614237 9,9 C9,6.3112453 11.1223067,4.11818189 13.7831104,4.00461951 L14,4 Z M14,5.5 C12.0670034,5.5 10.5,7.06700338 10.5,9 C10.5,10.9329966 12.0670034,12.5 14,12.5 C15.9329966,12.5 17.5,10.9329966 17.5,9 C17.5,7.06700338 15.9329966,5.5 14,5.5 Z" id="形状结合" fill="#212121" fill-rule="nonzero"></path>
            </g>
        </g>
    </g>
</svg>