<?xml version="1.0" encoding="UTF-8"?>
<svg width="28px" height="28px" viewBox="0 0 28 28" version="1.1" xmlns="http://www.w3.org/2000/svg" xmlns:xlink="http://www.w3.org/1999/xlink">
    <title>icon-footerDelivery</title>
    <g id="页面-1" stroke="none" stroke-width="1" fill="none" fill-rule="evenodd">
        <g id="画板" transform="translate(-146.000000, -81.000000)">
            <g id="icon-footerDelivery" transform="translate(146.000000, 81.000000)">
                <rect id="矩形备份-4" opacity="0" x="0" y="0" width="28" height="28"></rect>
                <path d="M10,4.25 C10.4142136,4.25 10.75,4.58578644 10.75,5 C10.75,5.37969577 10.4678461,5.69349096 10.1017706,5.74315338 L10,5.75 L7.596,5.75 L6.90962481,8.73459919 C8.44111037,8.97847467 9.6844662,10.1530746 9.99395749,11.7001623 L10.0277649,11.8956643 L10.0911457,12.3294203 C10.2807956,13.6273192 11.3554169,14.6035755 12.6492914,14.6826769 L12.8192463,14.6878593 L14.6059806,14.6867214 C16.0035943,12.6751483 18.3507548,11.3326231 21.0231821,11.253681 L21.2727273,11.25 L24,11.25 C24.3796958,11.25 24.693491,11.5321539 24.7431534,11.8982294 L24.75,12 L24.7508723,18.2006355 C24.9115926,18.6023788 25,19.0408651 25,19.5 C25,21.4329966 23.4329966,23 21.5,23 C19.6512098,23 18.1372201,21.5665484 18.0088218,19.7504362 L9.99117817,19.7504362 C9.86277994,21.5665484 8.34879025,23 6.5,23 C4.56700338,23 3,21.4329966 3,19.5 C3,19.2471964 3.02680243,19.0006529 3.07772068,18.763056 C3.07701924,18.7511519 3.0778451,18.7386785 3.07898984,18.726179 L3.09513893,18.6254649 L6.26910008,4.83181765 C6.33961949,4.5253489 6.59220317,4.2992516 6.89674147,4.25709683 L7,4.25 L10,4.25 Z M6.5,17.5 C5.3954305,17.5 4.5,18.3954305 4.5,19.5 C4.5,20.6045695 5.3954305,21.5 6.5,21.5 C7.6045695,21.5 8.5,20.6045695 8.5,19.5 C8.5,18.3954305 7.6045695,17.5 6.5,17.5 Z M21.5,17.5 C20.3954305,17.5 19.5,18.3954305 19.5,19.5 C19.5,20.6045695 20.3954305,21.5 21.5,21.5 C22.6045695,21.5 23.5,20.6045695 23.5,19.5 C23.5,18.3954305 22.6045695,17.5 21.5,17.5 Z M23.25,12.75 L21.2727273,12.75 C17.9297052,12.75 15.1828089,15.1570146 14.7964917,18.2503978 L18.2295817,18.2506086 C18.7326326,16.934603 20.0071722,16 21.5,16 C22.1378073,16 22.7357682,16.170603 23.2507384,16.4686649 L23.25,12.75 Z M6.57188194,10.2021888 L5.17839176,16.2581156 C5.58617291,16.0917064 6.03237686,16 6.5,16 C7.99282782,16 9.26736741,16.934603 9.77041829,18.2506086 L13.2870017,18.2504342 C13.3586031,17.5290186 13.5324909,16.8367656 13.7944199,16.1872417 L12.8192463,16.1878593 C10.7763257,16.1878593 9.03238519,14.7390954 8.6423796,12.7535744 L8.60690718,12.5462983 L8.54352644,12.1125423 C8.39446161,11.0923938 7.5754508,10.3157369 6.57188194,10.2021888 Z M23,5.25 C23.9664983,5.25 24.75,6.03350169 24.75,7 L24.75,7 L24.75,9 C24.75,9.96649831 23.9664983,10.75 23,10.75 L23,10.75 L19,10.75 C18.0335017,10.75 17.25,9.96649831 17.25,9 L17.25,9 L17.25,7 C17.25,6.03350169 18.0335017,5.25 19,5.25 L19,5.25 Z M23,6.75 L19,6.75 C18.8619288,6.75 18.75,6.86192881 18.75,7 L18.75,7 L18.75,9 C18.75,9.13807119 18.8619288,9.25 19,9.25 L19,9.25 L23,9.25 C23.1380712,9.25 23.25,9.13807119 23.25,9 L23.25,9 L23.25,7 C23.25,6.86192881 23.1380712,6.75 23,6.75 L23,6.75 Z" id="形状结合" fill="#212121" fill-rule="nonzero"></path>
            </g>
        </g>
    </g>
</svg>