<?xml version="1.0" encoding="UTF-8"?>
<svg width="28px" height="28px" viewBox="0 0 28 28" version="1.1" xmlns="http://www.w3.org/2000/svg" xmlns:xlink="http://www.w3.org/1999/xlink">
    <title>icon-footerCheckingInChecked</title>
    <g id="页面-1" stroke="none" stroke-width="1" fill="none" fill-rule="evenodd">
        <g id="画板" transform="translate(-466.000000, -134.000000)">
            <g id="icon-footerCheckingInChecked" transform="translate(466.000000, 134.000000)">
                <rect id="矩形备份-4" x="0" y="0" width="28" height="28"></rect>
                <path d="M19.5,3.45 C19.8796958,3.45 20.193491,3.73215388 20.2431534,4.09822944 L20.25,4.2 L20.25,5.499 L22,5.5 C23.1045695,5.5 24,6.3954305 24,7.5 L24,9.5 L4,9.5 L4,7.5 C4,6.3954305 4.8954305,5.5 6,5.5 L7.75,5.499 L7.75,4.2 C7.75,3.78578644 8.08578644,3.45 8.5,3.45 C8.87969577,3.45 9.19349096,3.73215388 9.24315338,4.09822944 L9.25,4.2 L9.25,5.499 L18.75,5.499 L18.75,4.2 C18.75,3.78578644 19.0857864,3.45 19.5,3.45 Z M24,11 L24,22 C24,23.1045695 23.1045695,24 22,24 L6,24 C4.8954305,24 4,23.1045695 4,22 L4,11 L24,11 Z M19.5559431,14.4965844 C19.2779143,14.1895455 18.8036233,14.1660281 18.4965844,14.4440569 L18.4965844,14.4440569 L14.964,17.642 L12.6766816,15.5706125 L12.5867704,15.500752 C12.3053673,15.3144574 11.9270166,15.3377442 11.6698504,15.5706125 L11.6698504,15.5706125 L8.4965844,18.4440569 L8.41988952,18.5244758 C8.18776173,18.8069381 8.19130348,19.2242893 8.4440569,19.5034156 L8.4440569,19.5034156 L8.52447582,19.5801105 C8.80693814,19.8122383 9.22428933,19.8086965 9.5034156,19.5559431 L9.5034156,19.5559431 L12.173,17.138 L14.4611659,19.2100807 L14.5510771,19.2799412 C14.8324802,19.4662358 15.2108309,19.442949 15.4679971,19.2100807 L15.4679971,19.2100807 L19.5034156,15.5559431 L19.5801105,15.4755242 C19.8122383,15.1930619 19.8086965,14.7757107 19.5559431,14.4965844 Z" id="形状结合" fill="#212121" fill-rule="nonzero"></path>
            </g>
        </g>
    </g>
</svg>