<?xml version="1.0" encoding="UTF-8"?>
<svg width="28px" height="28px" viewBox="0 0 28 28" version="1.1" xmlns="http://www.w3.org/2000/svg" xmlns:xlink="http://www.w3.org/1999/xlink">
    <title>icon-footerShiftManage</title>
    <g id="页面-1" stroke="none" stroke-width="1" fill="none" fill-rule="evenodd">
        <g id="画板" transform="translate(-346.000000, -80.000000)">
            <g id="icon-footerShiftManage" transform="translate(346.000000, 80.000000)">
                <rect id="矩形备份-4" opacity="0" x="0" y="0" width="28" height="28"></rect>
                <path d="M19.5,14 C22.5375661,14 25,16.4624339 25,19.5 C25,22.5375661 22.5375661,25 19.5,25 C16.4624339,25 14,22.5375661 14,19.5 C14,16.4624339 16.4624339,14 19.5,14 Z M18.5,3.45 C18.8796958,3.45 19.193491,3.73215388 19.2431534,4.09822944 L19.25,4.2 L19.25,5.249 L21,5.25 C22.4625318,5.25 23.6584043,6.3917046 23.7449812,7.83247767 L23.75,8 L23.75,13.6006109 C23.75,14.0148245 23.4142136,14.3506109 23,14.3506109 C22.6203042,14.3506109 22.306509,14.068457 22.2568466,13.7023815 L22.25,13.6006109 L22.25,11.249 L4.75,11.249 L4.75,21.4550674 C4.75,22.1022761 5.24187466,22.6346013 5.87219476,22.6986138 L6,22.7050674 L14.0090799,22.7050674 C14.4232934,22.7050674 14.7590799,23.0408538 14.7590799,23.4550674 C14.7590799,23.8347631 14.476926,24.1485583 14.1108504,24.1982207 L14.0090799,24.2050674 L6,24.2050674 C4.53746816,24.2050674 3.34159572,23.0633628 3.25501879,21.6225897 L3.25,21.4550674 L3.25,8 C3.25,6.53746816 4.3917046,5.34159572 5.83247767,5.25501879 L6,5.25 L7.75,5.249 L7.75,4.2 C7.75,3.78578644 8.08578644,3.45 8.5,3.45 C8.87969577,3.45 9.19349096,3.73215388 9.24315338,4.09822944 L9.25,4.2 L9.25,5.249 L17.75,5.249 L17.75,4.2 C17.75,3.78578644 18.0857864,3.45 18.5,3.45 Z M19.5,15.5 C17.290861,15.5 15.5,17.290861 15.5,19.5 C15.5,21.709139 17.290861,23.5 19.5,23.5 C21.709139,23.5 23.5,21.709139 23.5,19.5 C23.5,17.290861 21.709139,15.5 19.5,15.5 Z M19,17.25 C19.3796958,17.25 19.693491,17.5321539 19.7431534,17.8982294 L19.75,18 L19.75,19.249 L21,19.25 C21.3796958,19.25 21.693491,19.5321539 21.7431534,19.8982294 L21.75,20 C21.75,20.3796958 21.4678461,20.693491 21.1017706,20.7431534 L21,20.75 L19,20.75 C18.6203042,20.75 18.306509,20.4678461 18.2568466,20.1017706 L18.25,20 L18.25,18 C18.25,17.5857864 18.5857864,17.25 19,17.25 Z M9.8125,16.75 C10.2267136,16.75 10.5625,17.0857864 10.5625,17.5 C10.5625,17.8796958 10.2803461,18.193491 9.91427056,18.2431534 L9.8125,18.25 L7.1875,18.25 C6.77328644,18.25 6.4375,17.9142136 6.4375,17.5 C6.4375,17.1203042 6.71965388,16.806509 7.08572944,16.7568466 L7.1875,16.75 L9.8125,16.75 Z M12.625,13.75 C13.0392136,13.75 13.375,14.0857864 13.375,14.5 C13.375,14.8796958 13.0928461,15.193491 12.7267706,15.2431534 L12.625,15.25 L7.375,15.25 C6.96078644,15.25 6.625,14.9142136 6.625,14.5 C6.625,14.1203042 6.90715388,13.806509 7.27322944,13.7568466 L7.375,13.75 L12.625,13.75 Z M21,6.75 L6,6.75 C5.35279131,6.75 4.8204661,7.24187466 4.75645361,7.87219476 L4.75,8 L4.75,9.749 L22.25,9.749 L22.25,8 C22.25,7.35279131 21.7581253,6.8204661 21.1278052,6.75645361 L21,6.75 Z" id="形状结合" fill="#212121" fill-rule="nonzero"></path>
            </g>
        </g>
    </g>
</svg>