<?xml version="1.0" encoding="UTF-8"?>
<svg width="28px" height="29px" viewBox="0 0 28 29" version="1.1" xmlns="http://www.w3.org/2000/svg" xmlns:xlink="http://www.w3.org/1999/xlink">
    <title>icon-Abnormal</title>
    <g id="页面-1" stroke="none" stroke-width="1" fill="none" fill-rule="evenodd">
        <g id="icon-Abnormal" transform="translate(0.000000, 0.967654)" fill="#212121" fill-rule="nonzero">
            <path d="M15.52994,3.33352637 C15.9321775,3.55294137 16.2717103,3.86962903 16.518325,4.25335576 L16.61824,4.42182637 L25.11494,19.9991464 C25.83624,21.3214464 25.34894,22.9780464 24.02664,23.6993464 C23.6832686,23.8866321 23.304338,23.9975096 22.9156674,24.0253668 L22.72064,24.0323464 L5.72727,24.0323464 C4.22104,24.0323464 3,22.8113464 3,21.3050464 C3,20.9139321 3.08412245,20.5281811 3.2457614,20.1736755 L3.33301,19.9991464 L11.82974,4.42182637 C12.55094,3.09951637 14.20764,2.61226637 15.52994,3.33352637 Z M13.2974967,4.922528 L13.21694,5.02615637 L13.14654,5.14010637 L4.64985,20.7173464 C4.55152,20.8976464 4.5,21.0997464 4.5,21.3050464 C4.5,21.8981797 4.92068569,22.3929646 5.47993321,22.5074398 L5.60179,22.5260464 L5.72727,22.5323464 L22.72064,22.5323464 C22.92604,22.5323464 23.12804,22.4808464 23.30834,22.3824464 C23.8240686,22.1011821 24.0574982,21.5037326 23.8993392,20.9620827 L23.85584,20.8382464 L23.79814,20.7173464 L15.30144,5.14010637 C15.18854,4.93322637 15.01854,4.76320637 14.81164,4.65036637 C14.2959114,4.36907423 13.6672288,4.49626198 13.2974967,4.922528 Z M14.00004,18.0000464 C14.55224,18.0000464 15.00004,18.4477464 15.00004,19.0000464 C15.00004,19.5522464 14.55224,20.0000464 14.00004,20.0000464 C13.44774,20.0000464 13.00004,19.5522464 13.00004,19.0000464 C13.00004,18.4477464 13.44774,18.0000464 14.00004,18.0000464 Z M14.00004,10.0000464 C14.55224,10.0000464 15.00004,10.4477464 15.00004,11.0000464 L15.00004,15.6317464 C15.00004,16.1839464 14.55224,16.6317464 14.00004,16.6317464 C13.44774,16.6317464 13.00004,16.1839464 13.00004,15.6317464 L13.00004,11.0000464 C13.00004,10.4477464 13.44774,10.0000464 14.00004,10.0000464 Z" id="形状结合"></path>
        </g>
    </g>
</svg>