<?xml version="1.0" encoding="UTF-8"?>
<svg width="20px" height="20px" viewBox="0 0 20 20" version="1.1" xmlns="http://www.w3.org/2000/svg" xmlns:xlink="http://www.w3.org/1999/xlink">
    <title>icon-Notice</title>
    <g id="页面-1" stroke="none" stroke-width="1" fill="none" fill-rule="evenodd">
        <g id="画板" transform="translate(-677.000000, -208.000000)">
            <g id="icon-Notice" transform="translate(677.000000, 208.000000)">
                <rect id="矩形" x="0" y="0" width="20" height="20"></rect>
                <path d="M10.05,3 C10.6023,3 11.05,3.44772 11.05,4 L11.0496282,4.04413202 C13.4988066,4.511609 15.35,6.66462965 15.35,9.25 L15.35,9.25 L15.35,11.566 L16.8820622,12.9293847 C16.9929673,13.0280593 17.0659045,13.1608904 17.0906431,13.3050822 L17.0906431,13.3050822 L17.1,13.415 L17.1,14.4 C17.1,14.7589851 16.8089851,15.05 16.45,15.05 L16.45,15.05 L3.65,15.05 C3.29101491,15.05 3,14.7589851 3,14.4 L3,14.4 L3,13.415 C3,13.2294385 3.07930822,13.0527239 3.21794247,12.9293805 L3.21794247,12.9293805 L4.749,11.566 L4.75,9.25 C4.75,6.66509877 6.60049188,4.5124071 9.0490008,4.04439253 L9.05,4 C9.05,3.44772 9.49772,3 10.05,3 Z M10.05,5.25 C7.84086142,5.25 6.05,7.04085876 6.05,9.25 L6.05,9.25 L6.05,11.5887 C6.05,11.9455156 5.89752159,12.2852827 5.63088753,12.5226195 L5.63088753,12.5226195 L4.299,13.707 L4.299,13.75 L15.799,13.75 L15.799,13.706 L14.4691046,12.5225858 C14.2358275,12.3150056 14.0899084,12.0289023 14.0570735,11.7215543 L14.0570735,11.7215543 L14.05,11.5887 L14.05,9.25 C14.05,7.04087243 12.2591223,5.25 10.05,5.25 Z M12.05,16 C12.05,16.2626 11.9983,16.5227 11.8978,16.7654 C11.7972,17.008 11.6499,17.2285 11.4642,17.4142 C11.2785,17.5999 11.058,17.7472 10.8154,17.8478 C10.5727,17.9483 10.3126,18 10.05,18 C9.78736,18 9.52728,17.9483 9.28463,17.8478 C9.04198,17.7472 8.8215,17.5999 8.63579,17.4142 C8.45007,17.2285 8.30275,17.008 8.20224,16.7654 C8.10173,16.5227 8.05,16.2626 8.05,16 L10.05,16 L12.05,16 Z" id="形状结合" fill="#212121" fill-rule="nonzero"></path>
            </g>
        </g>
    </g>
</svg>