<?xml version="1.0" encoding="utf-8"?>
<!-- Generator: Adobe Illustrator 24.0.3, SVG Export Plug-In . SVG Version: 6.00 Build 0)  -->
<svg version="1.1" id="图层_1" xmlns="http://www.w3.org/2000/svg" xmlns:xlink="http://www.w3.org/1999/xlink" x="0px" y="0px"
	 viewBox="0 0 28 28" style="enable-background:new 0 0 28 28;" xml:space="preserve">
<style type="text/css">
	.st0{fill-rule:evenodd;clip-rule:evenodd;fill:#212121;}
</style>
<path class="st0" d="M9.5,4C9.1,4,8.8,4.3,8.8,4.8v2c0,0.4,0.3,0.8,0.8,0.8s0.8-0.3,0.8-0.8v-2C10.2,4.3,9.9,4,9.5,4z M7.9,5.7
	C7.9,5.3,7.6,5,7.1,5H6.8L6.6,5C5.1,5.1,4,6.3,4,7.7V21l0,0.2c0.1,1.4,1.3,2.6,2.7,2.6h14l0.2,0c1.4-0.1,2.6-1.3,2.6-2.7V7.7l0-0.2
	C23.4,6.1,22.2,5,20.8,5h-0.5l-0.1,0c-0.4,0-0.6,0.4-0.6,0.7c0,0.4,0.3,0.8,0.8,0.8h0.5l0.1,0C21.5,6.6,22,7.1,22,7.7v1H5.5v-1
	l0-0.1C5.6,7,6.1,6.5,6.8,6.5h0.4l0.1,0C7.6,6.4,7.9,6.1,7.9,5.7z M5.5,10.2H22V21l0,0.1c-0.1,0.6-0.6,1.1-1.2,1.1h-14l-0.1,0
	C6,22.2,5.5,21.6,5.5,21V10.2z M16.2,5.7c0-0.4-0.3-0.8-0.8-0.8h-3.6l-0.1,0c-0.4,0-0.6,0.4-0.6,0.7c0,0.4,0.3,0.8,0.8,0.8h3.6
	l0.1,0C16,6.4,16.2,6.1,16.2,5.7z M18.1,16v0.8h-7.6v-2.4c-0.3,0.3-0.7,0.6-1,0.9l-0.3-0.9c1-0.8,1.7-1.7,2.1-2.7l1,0.2
	c-0.1,0.2-0.2,0.4-0.3,0.7h2.1c-0.1-0.3-0.3-0.5-0.4-0.7l1.1-0.2c0.1,0.3,0.3,0.6,0.4,0.9h2.8v0.8H15v0.4h2.5v0.7H15v0.4h2.5v0.7H15
	V16H18.1z M11.5,13.7H14v-0.4h-2.5V13.7z M14,14.8h-2.5v-0.4H14V14.8z M11.5,16H14v-0.4h-2.5V16z M11.5,20v-0.4h5V20h1v-2.8h-7.1V20
	H11.5z M11.5,18.8h5V18h-5V18.8z M17.9,4c-0.4,0-0.8,0.3-0.8,0.8v2c0,0.4,0.3,0.8,0.8,0.8s0.8-0.3,0.8-0.8v-2
	C18.7,4.3,18.4,4,17.9,4z"/>
</svg>
