<?xml version="1.0" encoding="UTF-8"?>
<svg width="24px" height="24px" viewBox="0 0 24 24" version="1.1" xmlns="http://www.w3.org/2000/svg" xmlns:xlink="http://www.w3.org/1999/xlink">
    <title>icon/iconAssistantAttendance</title>
    <g id="页面-1" stroke="none" stroke-width="1" fill="none" fill-rule="evenodd">
        <g id="画板" transform="translate(-270.000000, -420.000000)">
            <g id="icon/iconAssistantAttendance" transform="translate(270.000000, 420.000000)">
                <rect id="矩形备份-2" fill="#FFFFFF" opacity="0" x="0" y="0" width="24" height="24"></rect>
                <path d="M5.39777007,2.99999132 C5.81198363,2.99999132 6.14777007,3.33577776 6.14777007,3.74999132 C6.14777007,4.12968709 5.86561619,4.44348228 5.49954063,4.49314471 L5.39777007,4.49999132 L5,4.49999132 C4.35279131,4.49999132 3.8204661,4.99186599 3.75645361,5.62218608 L3.75,5.74999132 L3.75,6.75 L20.25,6.75 L20.25,5.74999132 C20.25,5.10278263 19.7581253,4.57045742 19.1278052,4.50644493 L19,4.49999132 L18.4771195,4.49999132 C18.062906,4.49999132 17.7271195,4.16420489 17.7271195,3.74999132 C17.7271195,3.37029556 18.0092734,3.05650036 18.375349,3.00683794 L18.4771195,2.99999132 L19,2.99999132 C20.4625318,2.99999132 21.6584043,4.14169592 21.7449812,5.58246899 L21.75,5.74999132 L21.75,18.9999913 C21.75,20.4625318 20.6082954,21.6584043 19.1675223,21.7449812 L19,21.75 L5,21.75 C3.53746816,21.75 2.34159572,20.6082954 2.25501879,19.1675223 L2.25,18.9999913 L2.25,5.74999132 C2.25,4.28745949 3.3917046,3.09158704 4.83247767,3.00501012 L5,2.99999132 L5.39777007,2.99999132 Z M20.25,8.25 L3.75,8.25 L3.75,18.9999913 C3.75,19.6472087 4.24187466,20.1795339 4.87219476,20.2435464 L5,20.25 L19,20.25 C19.6472087,20.25 20.1795339,19.7581253 20.2435464,19.1278052 L20.25,18.9999913 L20.25,8.25 Z M8.7,13.75 C9.11421356,13.75 9.45,14.0857864 9.45,14.5 C9.45,14.8796958 9.16784612,15.193491 8.80177056,15.2431534 L8.7,15.25 L6.3,15.25 C5.88578644,15.25 5.55,14.9142136 5.55,14.5 C5.55,14.1203042 5.83215388,13.806509 6.19822944,13.7568466 L6.3,13.75 L8.7,13.75 Z M10.3,10.75 C10.7142136,10.75 11.05,11.0857864 11.05,11.5 C11.05,11.8796958 10.7678461,12.193491 10.4017706,12.2431534 L10.3,12.25 L6.3,12.25 C5.88578644,12.25 5.55,11.9142136 5.55,11.5 C5.55,11.1203042 5.83215388,10.806509 6.19822944,10.7568466 L6.3,10.75 L10.3,10.75 Z M7.75,2 C8.16421356,2 8.5,2.33578644 8.5,2.75 L8.5,4.75859742 C8.5,5.17281099 8.16421356,5.50859742 7.75,5.50859742 C7.33578644,5.50859742 7,5.17281099 7,4.75859742 L7,2.75 C7,2.33578644 7.33578644,2 7.75,2 Z M16.1957104,2 C16.609924,2 16.9457104,2.33578644 16.9457104,2.75 L16.9457104,4.75859742 C16.9457104,5.17281099 16.609924,5.50859742 16.1957104,5.50859742 C15.7814969,5.50859742 15.4457104,5.17281099 15.4457104,4.75859742 L15.4457104,2.75 C15.4457104,2.33578644 15.7814969,2 16.1957104,2 Z M13.7498545,2.99999132 C14.1640681,2.99999132 14.4998545,3.33577776 14.4998545,3.74999132 C14.4998545,4.12968709 14.2177006,4.44348228 13.8516251,4.49314471 L13.7498545,4.49999132 L10.1856269,4.49999132 C9.7714133,4.49999132 9.43562686,4.16420489 9.43562686,3.74999132 C9.43562686,3.37029556 9.71778074,3.05650036 10.0838563,3.00683794 L10.1856269,2.99999132 L13.7498545,2.99999132 Z" id="形状结合" fill="#000000" fill-rule="nonzero"></path>
                <path d="M17.4544407,12.4853496 C17.7386742,12.1840455 18.2133463,12.1702071 18.5146504,12.4544407 C18.7885632,12.7128348 18.8249011,13.1286161 18.6156953,13.4284515 L18.5455593,13.5146504 L14.7721816,17.5146504 C14.5030716,17.7999226 14.066147,17.8258565 13.7665252,17.5924519 L13.6810629,17.5146504 L11.4544407,15.1543012 C11.1702071,14.8529971 11.1840455,14.378325 11.4853496,14.0940915 C11.7592625,13.8356974 12.1764546,13.8236437 12.4635928,14.0499618 L12.5455593,14.1250005 L14.226,15.907 L17.4544407,12.4853496 Z" id="路径-2" fill="#FE8F1D" fill-rule="nonzero"></path>
            </g>
        </g>
    </g>
</svg>