<?xml version="1.0" encoding="UTF-8"?>
<svg width="24px" height="24px" viewBox="0 0 24 24" version="1.1" xmlns="http://www.w3.org/2000/svg" xmlns:xlink="http://www.w3.org/1999/xlink">
    <title>icon/icon-usercenterRankList</title>
    <g id="页面-1" stroke="none" stroke-width="1" fill="none" fill-rule="evenodd">
        <g id="画板" transform="translate(-250.000000, -362.000000)">
            <g id="icon/icon-usercenterRankList" transform="translate(250.000000, 362.000000)">
                <rect id="矩形备份-6" opacity="0" x="0" y="0" width="24" height="24"></rect>
                <path d="M21.7719,7.16004 C21.7719,7.16004 21.8153,7.20002 21.8153,7.28002 C21.9454,7.64005 22.0321,8.04 21.9887,8.35993 C21.9887,9.68002 21.1649,10.92 19.9075,11.56 C19.3438,11.7999 18.7368,11.9599 17.9997,11.9599 C16.7856,11.9599 15.7016,11.4799 14.9645,10.6799 C14.2273,11.48 13.1434,11.9599 11.9727,11.9599 C10.802,11.9599 9.71806,11.4799 8.98085,10.6799 C8.20048,11.5199 7.11648,12 5.94572,12 C5.25193,12 4.60161,11.8799 4.08131,11.5999 C2.82382,11 2,9.75989 2,8.39998 C2,8.03997 2.08672,7.63999 2.21677,7.27999 C2.26021,7.23994 2.26021,7.23994 2.26021,7.19999 L4.08131,4.23997 C4.38481,3.47998 5.16521,3 6.1625,3 L17.9563,3 C18.9535,3 19.7773,3.48001 20.0808,4.28002 L21.7719,7.16004 Z M3.16723,12.5578 L3.20151,12.5777 C3.77962,12.951 4.37278,13.1111 5.14366,13.1111 L5.1742,13.1111 C6.46567,13.1112 7.80642,13.1112 8.66671,12 C9.48583,13.0667 10.8889,13.1111 12,13.1111 C13.1112,13.1111 14.4961,13.0667 15.3152,12 C16.1274,13.0578 17.532,13.0577 18.6386,13.0577 L18.6664,13.0577 C19.2223,13.0577 20.1598,12.8443 20.7862,12.5244 L20.8136,12.5075 C20.8621,12.625 20.8889,12.7538 20.8889,12.8888 L20.8889,18 L19,18 L19,16 C19,15.4477 18.5523,15 18,15 L16,15 C15.4477,15 15,15.4477 15,16 L15,17 L13,17 C12.4477,17 12,17.4477 12,18 L12,21.8888 L5.11114,21.8888 C3.93050808,21.8888 3.11114,21.1352607 3.11114,19.8888 L3.11114,12.8888 C3.11114,12.7728 3.13089,12.6614 3.16723,12.5578 Z M13,18.5 C13,18.2239 13.2239,18 13.5,18 L14.5,18 C14.7761,18 15,18.2239 15,18.5 L15,21.5 C15,21.7761 14.7761,22 14.5,22 L13.5,22 C13.2239,22 13,21.7761 13,21.5 L13,18.5 Z M16.5,16 C16.2239,16 16,16.2239 16,16.5 L16,21.5 C16,21.7761 16.2239,22 16.5,22 L17.5,22 C17.7761,22 18,21.7761 18,21.5 L18,16.5 C18,16.2239 17.7761,16 17.5,16 L16.5,16 Z M19,19.5 C19,19.2239 19.2239,19 19.5,19 L20.5,19 C20.7761,19 21,19.2239 21,19.5 L21,21.5 C21,21.7761 20.7761,22 20.5,22 L19.5,22 C19.2239,22 19,21.7761 19,21.5 L19,19.5 Z M9,7.75 C8.58579,7.75 8.25,8.08579 8.25,8.5 C8.25,8.91421 8.58579,9.25 9,9.25 L15,9.25 C15.4142,9.25 15.75,8.91421 15.75,8.5 C15.75,8.08579 15.4142,7.75 15,7.75 L9,7.75 Z" id="形状" fill="#212121"></path>
            </g>
        </g>
    </g>
</svg>