<?xml version="1.0" encoding="UTF-8"?>
<svg width="32px" height="32px" viewBox="0 0 32 32" version="1.1" xmlns="http://www.w3.org/2000/svg" xmlns:xlink="http://www.w3.org/1999/xlink">
    <title>icon-门店定位@3x</title>
    <g id="页面-1" stroke="none" stroke-width="1" fill="none" fill-rule="evenodd">
        <g id="画板" transform="translate(-520.000000, -290.000000)">
            <g id="icon-门店定位" transform="translate(520.000000, 290.000000)">
                <rect id="矩形" opacity="0" fill-rule="nonzero" x="0" y="0" width="32" height="32"></rect>
                <path d="M6.57209822,22.6267643 C4.07319726,20.148271 2.66760101,16.7744407 2.66760101,13.2548619 C2.66760101,9.73528312 4.07319726,6.36145286 6.57209822,3.88295956 C11.7787107,-1.29431984 20.2212894,-1.29431984 25.4279018,3.88295956 C27.9272135,6.36150473 29.3330712,9.73562158 29.3330712,13.2555286 C29.3330712,16.7754356 27.9272135,20.1495524 25.4279018,22.6280976 L16,32 L6.57209822,22.6267643 Z" id="路径" fill="#212121" fill-rule="nonzero"></path>
                <path d="M15.9998277,5 C20.1930447,4.99638178 23.7184026,8.25807933 23.9839598,12.4997519 C23.9946511,12.6675357 23.9998243,12.8346298 24,13.0005169 C24.0037904,17.1932165 20.7420928,20.7189193 16.5000754,20.9848214 C16.332464,20.9953402 16.1653699,21.0008583 15.9998277,21.0010343 C11.8069556,21.0049968 8.28177014,17.7426095 8.01586807,13.5007645 C8.00534924,13.3331531 8,13.166059 8,13.0005169 C7.9960375,8.80712744 11.2577351,5.28211442 15.4994076,5.01638479 C15.6675363,5.00569352 15.8342856,5.00052033 15.9998277,5 Z M23.6090758,12.5235486 C23.3736956,8.77022534 20.1401057,5.91807215 16.3871274,6.15345239 C16.2569354,6.16121218 16.1279504,6.1734554 15.9998277,6.18863009 C12.5632763,6.59869178 9.97443856,9.53775459 10.0034084,13.0008618 C10.0046155,13.124501 10.0090989,13.2493474 10.0168587,13.3755733 C10.2255108,16.7079711 12.7983116,19.3302622 15.9998277,19.7115264 C16.4040264,19.7594647 16.8185716,19.7718803 17.2389796,19.745497 C20.8321064,19.5208081 23.5995916,16.5472573 23.6225996,13.0005169 C23.6232159,12.8425621 23.6190773,12.6834002 23.6090758,12.5235486 Z M16.0889791,9.72892128 C16.5024895,9.76496118 16.6904488,10.0082736 16.6525121,10.4598933 C16.6238871,10.6154339 16.5524971,10.7642494 16.4392042,10.9077193 L16.4392042,10.9077193 L14.2145592,13.5548416 L13.7727686,16.221967 C13.6717189,16.679622 13.3951255,16.915692 12.9422988,16.9320738 C12.4943004,16.915692 12.2958222,16.679622 12.347899,16.221967 L12.347899,16.221967 L12.7893448,13.5548416 L11.4432802,10.9077193 C11.3879271,10.7706297 11.3729248,10.6214693 11.3962042,10.4598933 C11.5053585,10.0051697 11.7679842,9.76133995 12.1840813,9.72892128 C12.4356709,9.73616375 12.6134562,9.83686855 12.717265,10.0310357 L12.717265,10.0310357 L13.741557,12.1141077 L15.4462962,10.0310357 C15.6244264,9.83307488 15.8385966,9.73271495 16.0889791,9.72892128 Z M21.6605068,9.72888679 C22.1071257,9.75199371 22.2983614,10.0115155 22.2343863,10.5084868 L22.2343863,10.5084868 L21.295107,16.1733045 C21.2000927,16.6566531 20.9231545,16.9101395 20.4654995,16.9322118 C20.0099137,16.9128985 19.8147119,16.6599294 19.8793768,16.1733045 L19.8793768,16.1733045 L20.239431,14.0022883 L17.8038922,14.0022883 L17.4441829,16.1733045 C17.3457198,16.6566531 17.0658501,16.9101395 16.6056085,16.9322118 C16.1553684,16.9101395 15.9636154,16.6566531 16.0279354,16.1733045 L16.0279354,16.1733045 L16.9668697,10.5084868 C17.0675745,10.0115155 17.3457198,9.75199371 17.7995812,9.72888679 C18.2482694,9.75544251 18.4427814,10.0142745 18.3836346,10.5084868 L18.3836346,10.5084868 L18.0328922,12.6203562 L20.468431,12.6203562 L20.8181387,10.5084868 C20.9193609,10.0115155 21.2009549,9.75199371 21.6605068,9.72888679 Z" id="形状结合" fill="#FFFFFF"></path>
            </g>
        </g>
    </g>
</svg>