<?xml version="1.0" encoding="utf-8"?>
<!-- Generator: Adobe Illustrator 24.0.3, SVG Export Plug-In . SVG Version: 6.00 Build 0)  -->
<svg version="1.1" id="图层_1" xmlns="http://www.w3.org/2000/svg" xmlns:xlink="http://www.w3.org/1999/xlink" x="0px" y="0px"
	 viewBox="0 0 29 28" style="enable-background:new 0 0 29 28;" xml:space="preserve">
<style type="text/css">
	.st0{fill-rule:evenodd;clip-rule:evenodd;fill:#212121;}
</style>
<path class="st0" d="M22.5,5.5h-16C6.2,5.5,6,5.7,6,6v12c0,0.3,0.2,0.5,0.5,0.5h16c0.3,0,0.5-0.2,0.5-0.5V6
	C23,5.7,22.8,5.5,22.5,5.5z M6.5,4c-1.1,0-2,0.9-2,2v12c0,1.1,0.9,2,2,2h16c1.1,0,2-0.9,2-2V6c0-1.1-0.9-2-2-2H6.5z M5.8,23.5
	c0-0.4,0.3-0.8,0.8-0.8h16c0.4,0,0.8,0.3,0.8,0.8s-0.3,0.8-0.8,0.8h-16C6.1,24.2,5.8,23.9,5.8,23.5z M13.6,9.5
	c-0.3-0.3-0.8-0.3-1.1,0L9,12.9c-0.3,0.3-0.3,0.8,0,1.1c0.3,0.3,0.8,0.3,1.1,0l3-2.9l2.9,2.9c0.1,0.1,0.3,0.2,0.5,0.2
	s0.4-0.1,0.5-0.2l3.4-3.4c0.3-0.3,0.3-0.8,0-1.1c-0.3-0.3-0.8-0.3-1.1,0l-2.9,2.9L13.6,9.5z"/>
</svg>
