<?xml version="1.0" encoding="UTF-8"?>
<svg width="21px" height="20px" viewBox="0 0 21 20" version="1.1" xmlns="http://www.w3.org/2000/svg" xmlns:xlink="http://www.w3.org/1999/xlink">
    <title>icon-pickUpCode</title>
    <g id="页面-1" stroke="none" stroke-width="1" fill="none" fill-rule="evenodd">
        <g id="画板" transform="translate(-459.000000, -509.000000)" fill="#212121" fill-rule="nonzero">
            <g id="icon-pickUpCode" transform="translate(459.000000, 509.000000)">
                <path d="M17.909091,0 C19.5659452,0 20.909091,1.3431458 20.909091,3 L20.909091,17 C20.909091,18.6568542 19.5659452,20 17.909091,20 L3,20 C1.3431458,20 0,18.6568542 0,17 L0,3 C0,1.3431458 1.3431458,0 3,0 L17.909091,0 Z M17.909091,1.5 L3,1.5 C2.2203039,1.5 1.5795514,2.0948881 1.5068666,2.85554 L1.5,3 L1.5,17 C1.5,17.7796961 2.0948881,18.4204487 2.85554,18.4931334 L3,18.5 L17.909091,18.5 C18.6887871,18.5 19.3295396,17.9051119 19.4022244,17.14446 L19.409091,17 L19.409091,3 C19.409091,2.2203039 18.8142029,1.5795513 18.053551,1.5068666 L17.909091,1.5 Z M11.4545455,13 C11.7306879,13 11.9545455,13.2238576 11.9545455,13.5 L11.9545455,15 C11.9545455,15.2761424 11.7306879,15.5 11.4545455,15.5 L9.4545455,15.5 C9.1784031,15.5 8.9545455,15.2761424 8.9545455,15 L8.9545455,13.5 C8.9545455,13.2238576 9.1784031,13 9.4545455,13 L11.4545455,13 Z M6.4545455,9 C6.7306879,9 6.9545455,9.2238576 6.9545455,9.5 L6.9545455,11 C6.9545455,11.2761424 6.7306879,11.5 6.4545455,11.5 L4.4545455,11.5 C4.1784031,11.5 3.9545455,11.2761424 3.9545455,11 L3.9545455,9.5 C3.9545455,9.2238576 4.1784031,9 4.4545455,9 L6.4545455,9 Z M11.4545455,9 C11.7306879,9 11.9545455,9.2238576 11.9545455,9.5 L11.9545455,11 C11.9545455,11.2761424 11.7306879,11.5 11.4545455,11.5 L9.4545455,11.5 C9.1784031,11.5 8.9545455,11.2761424 8.9545455,11 L8.9545455,9.5 C8.9545455,9.2238576 9.1784031,9 9.4545455,9 L11.4545455,9 Z M16.4545455,9 C16.7306879,9 16.9545455,9.2238576 16.9545455,9.5 L16.9545455,11 C16.9545455,11.2761424 16.7306879,11.5 16.4545455,11.5 L14.4545455,11.5 C14.1784031,11.5 13.9545455,11.2761424 13.9545455,11 L13.9545455,9.5 C13.9545455,9.2238576 14.1784031,9 14.4545455,9 L16.4545455,9 Z M6.4545455,5 C6.7306879,5 6.9545455,5.2238576 6.9545455,5.5 L6.9545455,7 C6.9545455,7.2761424 6.7306879,7.5 6.4545455,7.5 L4.4545455,7.5 C4.1784031,7.5 3.9545455,7.2761424 3.9545455,7 L3.9545455,5.5 C3.9545455,5.2238576 4.1784031,5 4.4545455,5 L6.4545455,5 Z M11.4545455,5 C11.7306879,5 11.9545455,5.2238576 11.9545455,5.5 L11.9545455,7 C11.9545455,7.2761424 11.7306879,7.5 11.4545455,7.5 L9.4545455,7.5 C9.1784031,7.5 8.9545455,7.2761424 8.9545455,7 L8.9545455,5.5 C8.9545455,5.2238576 9.1784031,5 9.4545455,5 L11.4545455,5 Z M16.4545455,5 C16.7306879,5 16.9545455,5.2238576 16.9545455,5.5 L16.9545455,7 C16.9545455,7.2761424 16.7306879,7.5 16.4545455,7.5 L14.4545455,7.5 C14.1784031,7.5 13.9545455,7.2761424 13.9545455,7 L13.9545455,5.5 C13.9545455,5.2238576 14.1784031,5 14.4545455,5 L16.4545455,5 Z" id="形状结合"></path>
            </g>
        </g>
    </g>
</svg>