<?xml version="1.0" encoding="UTF-8"?>
<svg width="24px" height="24px" viewBox="0 0 24 24" version="1.1" xmlns="http://www.w3.org/2000/svg" xmlns:xlink="http://www.w3.org/1999/xlink">
    <title>icon/iconAssistantMonitoring</title>
    <g id="页面-1" stroke="none" stroke-width="1" fill="none" fill-rule="evenodd">
        <g id="画板" transform="translate(-66.000000, -420.000000)">
            <g id="icon/iconAssistantMonitoring" transform="translate(66.000000, 420.000000)">
                <rect id="矩形备份-2" fill="#FFFFFF" opacity="0" x="0" y="0" width="24" height="24"></rect>
                <path d="M20.5625,3 C21.9086941,3 23,4.09130592 23,5.4375 L23,15.5625 C23,16.9086941 21.9086941,18 20.5625,18 L15,18 L15,20.288 L20.25,20.2880569 C20.6642136,20.2880569 21,20.6238434 21,21.0380569 C21,21.4522705 20.6642136,21.7880569 20.25,21.7880569 L4.75,21.7880569 C4.33578644,21.7880569 4,21.4522705 4,21.0380569 C4,20.6238434 4.33578644,20.2880569 4.75,20.2880569 L10,20.288 L10,18 L4.4375,18 C3.09130592,18 2,16.9086941 2,15.5625 L2,5.4375 C2,4.09130592 3.09130592,3 4.4375,3 L20.5625,3 Z M13.5,18.271 L11.5,18.271 L11.5,20.271 L13.5,20.271 L13.5,18.271 Z M20.5625,4.5 L4.4375,4.5 C3.9567164,4.5 3.56046204,4.86191268 3.50630725,5.32816769 L3.5,5.4375 L3.5,15.5625 C3.5,16.0432836 3.86191268,16.439538 4.32816769,16.4936928 L4.4375,16.5 L20.5625,16.5 C21.0432836,16.5 21.439538,16.1380873 21.4936928,15.6718323 L21.5,15.5625 L21.5,5.4375 C21.5,4.9567164 21.1380873,4.56046204 20.6718323,4.50630725 L20.5625,4.5 Z" id="形状结合" fill="#212121" fill-rule="nonzero"></path>
                <path d="M12.5798833,6.48015124 C12.792596,5.92869214 13.5154766,5.83904115 13.8646468,6.27993783 L13.9292362,6.3752115 L15.9681362,9.90906312 L18.75,9.90936286 C19.1296958,9.90936286 19.443491,10.1915167 19.4931534,10.5575923 L19.5,10.6593629 C19.5,11.0390586 19.2178461,11.3528538 18.8517706,11.4025162 L18.75,11.4093629 L15.5354763,11.4093629 C15.3057531,11.4093629 15.0909943,11.3042914 14.9499682,11.1280872 L14.8858716,11.0342145 L13.4141362,8.48406312 L11.2214306,14.169975 C11.0139704,14.7078169 10.315735,14.8102236 9.95660549,14.3938864 L9.88954688,14.3036777 L8.0421362,11.4090631 L5.75,11.4093629 C5.37030423,11.4093629 5.05650904,11.127209 5.00684662,10.7611334 L5,10.6593629 C5,10.2796671 5.28215388,9.9658719 5.64822944,9.91620948 L5.75,9.90936286 L8.45251537,9.90936286 C8.67196257,9.90936286 8.87841539,10.0053125 9.01968789,10.1686161 L9.08465085,10.2557483 L10.3551362,12.2460631 L12.5798833,6.48015124 Z" id="路径-7" fill="#FE8F1D" fill-rule="nonzero"></path>
            </g>
        </g>
    </g>
</svg>