<?xml version="1.0" encoding="UTF-8"?>
<svg width="24px" height="24px" viewBox="0 0 24 24" version="1.1" xmlns="http://www.w3.org/2000/svg" xmlns:xlink="http://www.w3.org/1999/xlink">
    <title>icon/iconAssistantBuildingGuide</title>
    <g id="页面-1" stroke="none" stroke-width="1" fill="none" fill-rule="evenodd">
        <g id="画板" transform="translate(-236.000000, -420.000000)">
            <g id="icon/iconAssistantBuildingGuide" transform="translate(236.000000, 420.000000)">
                <rect id="矩形备份-2" fill="#FFFFFF" opacity="0" x="0" y="0" width="24" height="24"></rect>
                <path d="M15.2868658,3.40776129 C15.3148316,3.5266159 15.3335693,3.64736118 15.3429538,3.7689188 L15.35,3.9517297 L15.35,5.22619448 L19.6418847,6.79811147 C20.5226831,7.12074827 21.1257071,7.92866452 21.1936033,8.85351648 L21.2,9.02820663 L21.2,21.5 L2.8,21.5 L2.8,5.78702382 C2.8,4.74290798 3.48049589,3.82875844 4.46431743,3.52079142 L4.63103158,3.47515805 L12.4310316,1.63986393 C13.7078398,1.33943847 14.9864403,2.13095307 15.2868658,3.40776129 Z M12.8829925,3.08148701 L12.7745906,3.09998968 L4.97459058,4.9352838 C4.61527129,5.01982951 4.35174692,5.3189987 4.30680298,5.67776203 L4.3,5.78702382 L4.3,20 L13.849,19.9991945 L13.85,4.67654199 L13.85,4.67619448 L13.85,3.9517297 L13.8441656,3.85085235 L13.82674,3.75132029 C13.724571,3.31710211 13.3153325,3.03522773 12.8829925,3.08148701 Z M15.35,6.82219448 L15.35,19.9991945 L19.699,20 L19.7,9.02820663 C19.7,8.74261487 19.5613141,8.48065208 19.3374514,8.31890457 L19.2364514,8.25594312 L19.1259575,8.20659263 L15.35,6.82219448 Z M17.5,14.75 C17.8796958,14.75 18.193491,15.0321539 18.2431534,15.3982294 L18.25,15.5 L18.25,17.5 C18.25,17.9142136 17.9142136,18.25 17.5,18.25 C17.1203042,18.25 16.806509,17.9678461 16.7568466,17.6017706 L16.75,17.5 L16.75,15.5 C16.75,15.0857864 17.0857864,14.75 17.5,14.75 Z M17.5,9.75 C17.8796958,9.75 18.193491,10.0321539 18.2431534,10.3982294 L18.25,10.5 L18.25,12.5 C18.25,12.9142136 17.9142136,13.25 17.5,13.25 C17.1203042,13.25 16.806509,12.9678461 16.7568466,12.6017706 L16.75,12.5 L16.75,10.5 C16.75,10.0857864 17.0857864,9.75 17.5,9.75 Z M11.35,9.925 C11.7642136,9.925 12.1,10.2607864 12.1,10.675 C12.1,11.0546958 11.8178461,11.368491 11.4517706,11.4181534 L11.35,11.425 L6.8,11.425 C6.38578644,11.425 6.05,11.0892136 6.05,10.675 C6.05,10.2953042 6.33215388,9.98150904 6.69822944,9.93184662 L6.8,9.925 L11.35,9.925 Z M11.35,6.675 C11.7642136,6.675 12.1,7.01078644 12.1,7.425 C12.1,7.80469577 11.8178461,8.11849096 11.4517706,8.16815338 L11.35,8.175 L6.8,8.175 C6.38578644,8.175 6.05,7.83921356 6.05,7.425 C6.05,7.04530423 6.33215388,6.73150904 6.69822944,6.68184662 L6.8,6.675 L11.35,6.675 Z" id="形状结合" fill="#212121" fill-rule="nonzero"></path>
                <path d="M9.99166667,13.2 L11.411436,16.6074464 C11.4977305,16.8145532 11.3997928,17.0524019 11.192686,17.1386964 C11.0945417,17.1795899 10.984277,17.1803775 10.8855586,17.1408901 L9.61666667,16.6333333 L9.61666667,16.6333333 L8.34777478,17.1408901 C8.13945648,17.2242174 7.90303099,17.1228922 7.81970366,16.9145739 C7.7802163,16.8158555 7.78100386,16.7055907 7.82189732,16.6074464 L9.24166667,13.2 C9.32796116,12.9928932 9.56580989,12.8949555 9.77291667,12.98125 C9.87182926,13.0224636 9.95045309,13.1010874 9.99166667,13.2 Z" id="矩形" fill="#FE8F1D" transform="translate(9.616667, 14.900000) rotate(-315.000000) translate(-9.616667, -14.900000) "></path>
            </g>
        </g>
    </g>
</svg>