<?xml version="1.0" encoding="UTF-8"?>
<svg width="20px" height="20px" viewBox="0 0 20 20" version="1.1" xmlns="http://www.w3.org/2000/svg" xmlns:xlink="http://www.w3.org/1999/xlink">
    <title>已选</title>
    <g id="页面-1" stroke="none" stroke-width="1" fill="none" fill-rule="evenodd">
        <g id="画板" transform="translate(-866.000000, -285.000000)" fill="#FE8F1D" fill-rule="nonzero">
            <g id="已选" transform="translate(866.000000, 285.000000)">
                <path d="M10,0 C15.5228475,0 20,4.4771525 20,10 C20,15.5228475 15.5228475,20 10,20 C4.4771525,20 0,15.5228475 0,10 C0,4.4771525 4.4771525,0 10,0 Z M15.6450798,6.22317882 C15.3244798,5.91623882 14.8158798,5.92726882 14.5088798,6.24781882 L14.5088798,6.24781882 L9.24357983,11.7460488 L6.35163983,9.04924882 L6.30406983,9.00814882 C5.97911983,8.74894882 5.50418983,8.77974882 5.21590983,9.08884882 C4.91321983,9.41344882 4.93094983,9.92184882 5.25550983,10.2245488 L5.25550983,10.2245488 L9.30757983,14.0035488 L15.6696798,7.35932882 L15.7113798,7.31229882 C15.9748798,6.99079882 15.9503798,6.51549882 15.6450798,6.22317882 Z" id="形状结合"></path>
            </g>
        </g>
    </g>
</svg>