<?xml version="1.0" encoding="UTF-8"?>
<svg width="24px" height="24px" viewBox="0 0 24 24" version="1.1" xmlns="http://www.w3.org/2000/svg" xmlns:xlink="http://www.w3.org/1999/xlink">
    <title>icon/iconAssistantEstimate</title>
    <g id="页面-1" stroke="none" stroke-width="1" fill="none" fill-rule="evenodd">
        <g id="画板" transform="translate(-100.000000, -420.000000)">
            <g id="icon/iconAssistantEstimate" transform="translate(100.000000, 420.000000)">
                <rect id="矩形备份-2" fill="#FFFFFF" opacity="0" x="0" y="0" width="24" height="24"></rect>
                <path d="M14.6,1.6 C15.4111584,1.6 16.1066375,2.09528199 16.4005221,2.79993074 L18.5051587,2.8 C19.9366637,2.8 21.1068067,3.91804297 21.1947001,5.32929513 L21.2,5.5 L21.2,19.8 C21.2,21.2333892 20.0849148,22.4065625 18.6756322,22.4946862 L18.5051587,22.5 L5.49484127,22.5 C4.06333633,22.5 2.89319327,21.381957 2.80529987,19.9707049 L2.8,19.8 L2.8,5.5 C2.8,4.06661084 3.91508518,2.89343752 5.32436775,2.80531382 L5.49484127,2.8 L7.59947789,2.79993074 C7.89336247,2.09528199 8.58884158,1.6 9.4,1.6 L14.6,1.6 Z M18.5051587,4.3 L16.4001062,4.3010658 C16.1059817,5.00518493 15.410776,5.5 14.6,5.5 L9.4,5.5 C8.58922402,5.5 7.8940183,5.00518493 7.59989384,4.3010658 L5.49484127,4.3 C4.87660951,4.3 4.36740884,4.77180936 4.30617372,5.37723379 L4.3,5.5 L4.3,19.8 C4.3,20.4217367 4.77056118,20.9324046 5.37274909,20.9938094 L5.49484127,21 L18.5051587,21 C19.1233905,21 19.6325912,20.5281906 19.6938263,19.9227662 L19.7,19.8 L19.7,5.5 C19.7,4.87826331 19.2294388,4.36759541 18.6272509,4.30619059 L18.5051587,4.3 Z M16.8558853,16.1253336 C17.2700988,16.1253336 17.6058853,16.4611201 17.6058853,16.8753336 C17.6058853,17.2550294 17.3237314,17.5688246 16.9576558,17.618487 L16.8558853,17.6253336 L7.10588526,17.6253336 C6.6916717,17.6253336 6.35588526,17.2895472 6.35588526,16.8753336 C6.35588526,16.4956379 6.63803915,16.1818427 7.00411471,16.1321803 L7.10588526,16.1253336 L16.8558853,16.1253336 Z M14.6,3.1 L9.4,3.1 C9.15147186,3.1 8.95,3.30147186 8.95,3.55 C8.95,3.7709139 9.10918764,3.95464753 9.31911193,3.9927499 L9.4,4 L14.6,4 C14.8485281,4 15.05,3.79852814 15.05,3.55 C15.05,3.3290861 14.8908124,3.14535247 14.6808881,3.1072501 L14.6,3.1 Z" id="形状结合" fill="#212121" fill-rule="nonzero"></path>
                <path d="M16.0221118,8.21723918 C16.3163475,7.9256946 16.7912162,7.92787616 17.0827608,8.22211184 C17.3478013,8.48959881 17.370093,8.9063693 17.150892,9.19897688 L17.0778882,9.28276082 L12.4858895,13.8327608 C12.2201388,14.096081 11.8066204,14.1200192 11.5140028,13.9045754 L11.4301132,13.8327608 L9.652,12.071 L7.97788816,13.7305158 C7.71040119,13.9955564 7.2936307,14.017848 7.00102312,13.798647 L6.91723918,13.7256432 C6.65219865,13.4581562 6.629907,13.0413857 6.84910801,12.7487781 L6.92211184,12.6649942 L9.12451815,10.4827312 C9.39026894,10.219411 9.80378726,10.1954728 10.0964049,10.4109166 L10.1802945,10.4827312 L11.958,12.244 L16.0221118,8.21723918 Z" id="路径-8" fill="#FE8F1D" fill-rule="nonzero"></path>
            </g>
        </g>
    </g>
</svg>