<?xml version="1.0" encoding="UTF-8"?>
<svg width="28px" height="28px" viewBox="0 0 28 28" version="1.1" xmlns="http://www.w3.org/2000/svg" xmlns:xlink="http://www.w3.org/1999/xlink">
    <title>icon-footer打卡</title>
    <g id="页面-1" stroke="none" stroke-width="1" fill="none" fill-rule="evenodd">
        <g id="画板" transform="translate(-586.000000, -81.000000)">
            <g id="icon-footer打卡" transform="translate(586.000000, 81.000000)">
                <rect id="矩形备份-6" x="0" y="0" width="28" height="28"></rect>
                <path d="M14,3 C18.9705627,3 23,7.02943725 23,12 C23,13.8935477 21.8465,16.2310137 20.3602153,18.399374 L19.982186,18.9375863 L19.5931404,19.4666239 C19.5275398,19.553914 19.4615989,19.6407332 19.3953771,19.7270371 L18.9951502,20.2383217 L18.5910313,20.7351104 L18.18587,21.2152744 L17.7825161,21.6766854 L17.3838192,22.1172146 L16.9926291,22.5347336 L16.6117954,22.9271139 C16.4868936,23.053481 16.3641928,23.1753035 16.244168,23.2922267 L15.8925964,23.6279437 C15.8354974,23.6813286 15.7791862,23.7334 15.7237221,23.7841135 L15.4015775,24.0717456 C15.3497392,24.1168503 15.2988668,24.1605084 15.2490196,24.2026757 L14.9627139,24.4374336 C14.5076251,24.7976962 14.1669308,25 14,25 C13.8330692,25 13.4923749,24.7976962 13.0372861,24.4374336 L12.7509804,24.2026757 L12.4400696,23.9321362 C12.3863591,23.8841827 12.3317421,23.834827 12.2762779,23.7841135 L11.9338029,23.4638927 C11.8165728,23.3519575 11.6964293,23.2349456 11.5738472,23.1132117 L11.1992604,22.7341991 L10.8128923,22.3289834 L10.4175926,21.8996932 L10.016211,21.4484571 L9.61159719,20.9774035 C9.54405052,20.8973614 9.47648791,20.8165822 9.40896874,20.7351104 L9.00484981,20.2383217 L8.60462295,19.7270371 C8.53840113,19.6407332 8.47246021,19.553914 8.40685957,19.4666239 L8.017814,18.9375863 L7.63978475,18.399374 C6.1535,16.2310137 5,13.8935477 5,12 C5,7.02943725 9.02943725,3 14,3 Z M14,4.5 C9.85786438,4.5 6.5,7.85786438 6.5,12 C6.5,13.7750013 7.95098733,16.5408822 10.273541,19.4226988 C11.2291554,20.6084219 12.2673675,21.7285034 13.1715265,22.5692612 L13.5020651,22.869144 C13.6076802,22.9624239 13.7084261,23.0487955 13.803388,23.127576 L13.999,23.285 L14.0586216,23.2399682 C14.1920453,23.1334399 14.3395122,23.0090639 14.4979349,22.869144 L14.8284735,22.5692612 C15.7326325,21.7285034 16.7708446,20.6084219 17.726459,19.4226988 C20.0490127,16.5408822 21.5,13.7750013 21.5,12 C21.5,7.85786438 18.1421356,4.5 14,4.5 Z M14,7 C16.7614237,7 19,9.23857625 19,12 C19,14.7614237 16.7614237,17 14,17 C11.2385763,17 9,14.7614237 9,12 C9,9.23857625 11.2385763,7 14,7 Z M14,8.5 C12.0670034,8.5 10.5,10.0670034 10.5,12 C10.5,13.9329966 12.0670034,15.5 14,15.5 C15.9329966,15.5 17.5,13.9329966 17.5,12 C17.5,10.0670034 15.9329966,8.5 14,8.5 Z M13.6482238,9.72119653 C14.0279196,9.72119653 14.3417148,10.0033504 14.3913772,10.369426 L14.3982238,10.4711965 L14.398,11.721 L15.6482238,11.7211965 C16.0279196,11.7211965 16.3417148,12.0033504 16.3913772,12.369426 L16.3982238,12.4711965 C16.3982238,12.8508923 16.1160699,13.1646875 15.7499944,13.2143499 L15.6482238,13.2211965 L13.6482238,13.2211965 C13.2685281,13.2211965 12.9547329,12.9390426 12.9050704,12.5729671 L12.8982238,12.4711965 L12.8982238,10.4711965 C12.8982238,10.056983 13.2340103,9.72119653 13.6482238,9.72119653 Z" id="形状结合" fill="#212121" fill-rule="nonzero"></path>
            </g>
        </g>
    </g>
</svg>