<?xml version="1.0" encoding="UTF-8"?>
<svg width="20px" height="20px" viewBox="0 0 20 20" version="1.1" xmlns="http://www.w3.org/2000/svg" xmlns:xlink="http://www.w3.org/1999/xlink">
    <title>icon-Arrow-收起</title>
    <g id="页面-1" stroke="none" stroke-width="1" fill="none" fill-rule="evenodd">
        <g id="画板" transform="translate(-106.000000, -580.000000)">
            <g id="icon-Arrow-收起" transform="translate(116.000000, 590.000000) rotate(-270.000000) translate(-116.000000, -590.000000) translate(106.000000, 580.000000)">
                <rect id="bg" opacity="0" x="0" y="5.68434189e-14" width="20" height="20"></rect>
                <path d="M12.4696699,3.96966991 C12.7625631,3.6767767 13.2374369,3.6767767 13.5303301,3.96966991 C13.7965966,4.23593648 13.8208027,4.65260016 13.6029482,4.94621165 L13.5303301,5.03033009 L8.561,10 L13.5303301,14.9696699 C13.7965966,15.2359365 13.8208027,15.6526002 13.6029482,15.9462117 L13.5303301,16.0303301 C13.2640635,16.2965966 12.8473998,16.3208027 12.5537883,16.1029482 L12.4696699,16.0303301 L6.96966991,10.5303301 C6.70340335,10.2640635 6.6791973,9.84739984 6.89705176,9.55378835 L6.96966991,9.46966991 L12.4696699,3.96966991 Z" id="arrow" fill="#212121" fill-rule="nonzero"></path>
            </g>
        </g>
    </g>
</svg>