<?xml version="1.0" encoding="UTF-8"?>
<svg width="20px" height="20px" viewBox="0 0 20 20" version="1.1" xmlns="http://www.w3.org/2000/svg" xmlns:xlink="http://www.w3.org/1999/xlink">
    <title>icon-warning</title>
    <g id="页面-1" stroke="none" stroke-width="1" fill="none" fill-rule="evenodd">
        <g id="画板" transform="translate(-151.000000, -547.000000)" fill-rule="nonzero">
            <g id="icon-warning" transform="translate(151.000000, 547.000000)">
                <rect id="矩形" opacity="0" x="0" y="0" width="20" height="20"></rect>
                <path d="M10,2 C14.4180756,2 18,5.58219968 18,10 C18,14.4178003 14.4180756,18 10,18 C5.58192438,18 2,14.4178003 2,10 C2,5.58219968 5.58192438,2 10,2 Z M10,3.5 C6.41045456,3.5 3.5,6.41052374 3.5,10 C3.5,13.5894763 6.41045456,16.5 10,16.5 C13.5895454,16.5 16.5,13.5894763 16.5,10 C16.5,6.41052374 13.5895454,3.5 10,3.5 Z M10,13 C10.2882483,13 10.5210643,13.0939597 10.713969,13.2885906 C10.9068736,13.4832215 11,13.7181208 11,14.0089485 C11,14.2863535 10.9068736,14.5167785 10.713969,14.7114094 C10.5232816,14.9038031 10.2882483,15 10.0022173,15 C9.71396896,15 9.4789357,14.9060403 9.28824834,14.7114094 C9.09534368,14.5167785 9,14.2863535 9,14.0089485 C9,13.7203579 9.09312639,13.4832215 9.28603104,13.2885906 C9.4789357,13.0939597 9.71175166,13 10,13 Z M10.1362666,5 C10.6230601,5 11.0508484,5.07644917 11.4104118,5.22934752 C11.7681313,5.38028563 12.0631577,5.58611033 12.2862714,5.83898068 L12.3157741,5.87230468 C12.5333561,6.11929432 12.6900888,6.29767572 12.8578851,6.74264912 C13.0717792,7.3091571 12.9888031,7.76393167 12.9593004,7.88938673 C12.8523534,8.33239989 12.7269671,8.62839541 12.5407317,8.87734528 C12.3249937,9.16353962 12.0815969,9.43013162 11.817917,9.66928031 C11.5597689,9.89862784 11.0951024,10.3220386 11.0951024,10.3220386 C10.8498617,10.5455055 10.7373828,10.7552506 10.7521342,10.966956 L10.7521342,11.3472417 C10.7613537,11.5177821 10.7078802,11.6628395 10.5898696,11.7941753 C10.4755469,11.9196304 10.3169702,11.9901988 10.1067639,12 C9.89840152,11.9882386 9.73613699,11.9215906 9.61075077,11.7941753 C9.48905238,11.6706805 9.46139366,11.5785494 9.42451536,11.3864464 C9.38948097,11.200224 9.39685663,11.0590871 9.40607621,10.8983478 L9.41160795,10.7944553 C9.42082753,10.600392 9.47614498,10.4102492 9.57387247,10.2436292 C9.67897563,10.0672081 9.80436185,9.90646878 9.9574068,9.75161019 C10.1159835,9.59479137 10.2837798,9.44385326 10.4552638,9.30271633 C10.6285919,9.16157939 10.800076,9.01260151 10.9660283,8.85774293 C11.1319807,8.70288435 11.2647425,8.54802576 11.3735335,8.38140577 C11.4878563,8.2049846 11.5450176,8.01288155 11.5450176,7.80509661 C11.5671446,7.40716886 11.4251631,7.06608793 11.124605,6.79949594 C10.8295786,6.53878465 10.4349808,6.40744889 9.95371897,6.40744889 C9.70110261,6.40744889 9.46876932,6.47213666 9.26409475,6.60347242 C9.06310802,6.73088771 8.89162392,6.88770652 8.7533303,7.0700084 C8.61503667,7.25035004 8.50440177,7.44245309 8.42326951,7.64239709 C8.34029333,7.85018202 8.2997272,8.02268272 8.2997272,8.16774013 C8.2997272,8.34808177 8.23887801,8.48137777 8.11349179,8.57546906 C7.98626165,8.66956035 7.8442802,8.71856623 7.69307917,8.71856623 L7.66910827,8.71856623 C7.50315592,8.71268552 7.35564272,8.65387847 7.21550518,8.53822459 C7.08089938,8.42845141 7.01083061,8.25203024 7.00161104,7.9991599 C6.99054755,7.77373285 7.03664542,7.4875385 7.13437292,7.14645757 C7.23394433,6.80537665 7.40727234,6.47213666 7.65251304,6.15653878 C7.89959765,5.83702044 8.22781452,5.56062728 8.62610016,5.33716046 C9.0243858,5.11369364 9.53330634,5 10.1362666,5 Z" id="形状结合" fill="#212121"></path>
            </g>
        </g>
    </g>
</svg>