<?xml version="1.0" encoding="UTF-8"?>
<svg width="24px" height="24px" viewBox="0 0 24 24" version="1.1" xmlns="http://www.w3.org/2000/svg" xmlns:xlink="http://www.w3.org/1999/xlink">
    <title>icon/iconAssistantETA</title>
    <g id="页面-1" stroke="none" stroke-width="1" fill="none" fill-rule="evenodd">
        <g id="画板" transform="translate(-338.000000, -420.000000)">
            <g id="icon/iconAssistantETA" transform="translate(338.000000, 420.000000)">
                <rect id="矩形备份-2" fill="#FFFFFF" opacity="0" x="0" y="0" width="24" height="24"></rect>
                <path d="M14.8839515,3.25 C15.8666594,3.25 16.7478757,3.85521859 17.1007037,4.77257155 L17.1007037,4.77257155 L17.284,5.25 L20.375,5.25 C21.6320231,5.25 22.6609585,6.22655946 22.7445208,7.46239292 L22.7445208,7.46239292 L22.75,7.625 L22.75,19.375 C22.75,20.6866763 21.6866763,21.75 20.375,21.75 L20.375,21.75 L4.625,21.75 C3.31332372,21.75 2.25,20.6866763 2.25,19.375 L2.25,19.375 L2.25,7.625 C2.25,6.31332372 3.31332372,5.25 4.625,5.25 L4.625,5.25 L7.715,5.25 L7.89935272,4.77242469 C8.23137303,3.90917189 9.03149666,3.32228173 9.94376994,3.25622286 L9.94376994,3.25622286 L10.1160485,3.25 Z M14.8839515,4.75 L10.1160485,4.75 C9.75399826,4.75 9.4293396,4.97297527 9.2994276,5.31074645 L9.2994276,5.31074645 L8.93106567,6.26908745 C8.81970426,6.55880852 8.54138631,6.75 8.231,6.75 L8.231,6.75 L4.625,6.75 C4.14175084,6.75 3.75,7.14175084 3.75,7.625 L3.75,7.625 L3.75,19.375 C3.75,19.8582492 4.14175084,20.25 4.625,20.25 L4.625,20.25 L20.375,20.25 C20.8582492,20.25 21.25,19.8582492 21.25,19.375 L21.25,19.375 L21.25,7.625 C21.25,7.14175084 20.8582492,6.75 20.375,6.75 L20.375,6.75 L16.769,6.75 C16.4586137,6.75 16.1802957,6.55880852 16.0689343,6.26908745 L16.0689343,6.26908745 L15.7006289,5.31089331 C15.5706604,4.97297527 15.2460017,4.75 14.8839515,4.75 L14.8839515,4.75 Z M12.5,8.25 C15.3994949,8.25 17.75,10.6005051 17.75,13.5 C17.75,16.3994949 15.3994949,18.75 12.5,18.75 C9.60050506,18.75 7.25,16.3994949 7.25,13.5 C7.25,10.6005051 9.60050506,8.25 12.5,8.25 Z M12.5,9.75 C10.4289322,9.75 8.75,11.4289322 8.75,13.5 C8.75,15.5710678 10.4289322,17.25 12.5,17.25 C14.5710678,17.25 16.25,15.5710678 16.25,13.5 C16.25,11.4289322 14.5710678,9.75 12.5,9.75 Z M19.5,8.75 C19.9142136,8.75 20.25,9.08578644 20.25,9.5 C20.25,9.87969577 19.9678461,10.193491 19.6017706,10.2431534 L19.5,10.25 L18.5,10.25 C18.0857864,10.25 17.75,9.91421356 17.75,9.5 C17.75,9.12030423 18.0321539,8.80650904 18.3982294,8.75684662 L18.5,8.75 L19.5,8.75 Z" id="形状结合" fill="#212121" fill-rule="nonzero"></path>
                <path d="M12.1761479,11.2468643 C12.5558437,11.2468643 12.8696389,11.5290182 12.9193013,11.8950938 L12.9261479,11.9968643 L12.926,13.246 L14.1761479,13.2468643 C14.5558437,13.2468643 14.8696389,13.5290182 14.9193013,13.8950938 L14.9261479,13.9968643 C14.9261479,14.3765601 14.643994,14.6903553 14.2779185,14.7400177 L14.1761479,14.7468643 L12.1761479,14.7468643 C11.7964521,14.7468643 11.482657,14.4647105 11.4329945,14.0986349 L11.4261479,13.9968643 L11.4261479,11.9968643 C11.4261479,11.5826508 11.7619344,11.2468643 12.1761479,11.2468643 Z" id="路径-10" fill="#FE8F1D" fill-rule="nonzero"></path>
            </g>
        </g>
    </g>
</svg>