<?xml version="1.0" encoding="UTF-8"?>
<svg width="28px" height="28px" viewBox="0 0 28 28" version="1.1" xmlns="http://www.w3.org/2000/svg" xmlns:xlink="http://www.w3.org/1999/xlink">
    <title>icon-footerDeliveryStaff</title>
    <g id="页面-1" stroke="none" stroke-width="1" fill="none" fill-rule="evenodd">
        <g id="画板" transform="translate(-282.000000, -15.000000)">
            <g id="icon-footerDeliveryStaff" transform="translate(282.000000, 15.000000)">
                <rect id="矩形备份-4" opacity="0" x="0" y="0" width="28" height="28"></rect>
                <path d="M16,3 C17.6568542,3 19,4.34314575 19,6 L19,6.75 L21.5,6.75 C21.9142136,6.75 22.25,7.08578644 22.25,7.5 C22.25,7.87969577 21.9678461,8.19349096 21.6017706,8.24315338 L21.5,8.25 L19,8.25 L19,9 C19,11.7614237 16.7614237,14 14,14 C11.2385763,14 9,11.7614237 9,9 L9,6 C9,4.34314575 10.3431458,3 12,3 L16,3 Z M17.5,8.25 L10.5,8.25 L10.5,9 C10.5,10.9329966 12.0670034,12.5 14,12.5 C15.8685634,12.5 17.3951264,11.0357224 17.4948211,9.1920352 L17.5,9 L17.5,8.25 Z M16,4.5 L12,4.5 C11.2203039,4.5 10.5795513,5.09488808 10.5068666,5.85553999 L10.5,6 L10.5,6.75 L17.5,6.75 L17.5,6 C17.5,5.22030388 16.9051119,4.57955132 16.14446,4.50686658 L16,4.5 Z M12,15.25 C12.4142136,15.25 12.75,15.5857864 12.75,16 C12.75,16.3796958 12.4678461,16.693491 12.1017706,16.7431534 L12,16.75 L10,16.75 C7.72182541,16.75 5.86231326,18.542507 5.75490093,20.7940837 L5.75,21 L5.75,23 C5.75,23.1183467 5.83223341,23.2174868 5.94267729,23.2433973 L6,23.25 L12,23.25 C12.4142136,23.25 12.75,23.5857864 12.75,24 C12.75,24.3796958 12.4678461,24.693491 12.1017706,24.7431534 L12,24.75 L6,24.75 C5.0818266,24.75 4.32880766,24.0428897 4.2558012,23.1435272 L4.25,23 L4.25,21 C4.25,17.8982147 6.70601719,15.370063 9.77944429,15.2541521 L10,15.25 L12,15.25 Z M22,16 C23.1045695,16 24,16.8954305 24,18 L24,23 C24,24.1045695 23.1045695,25 22,25 L16,25 C14.8954305,25 14,24.1045695 14,23 L14,18 C14,16.8954305 14.8954305,16 16,16 L22,16 Z M22,17.5 L21,17.5 L21,20 C21,20.5522847 20.5522847,21 20,21 L18,21 C17.4477153,21 17,20.5522847 17,20 L17,17.5 L16,17.5 C15.7545401,17.5 15.5503916,17.6768752 15.5080557,17.9101244 L15.5,18 L15.5,23 C15.5,23.2454599 15.6768752,23.4496084 15.9101244,23.4919443 L16,23.5 L22,23.5 C22.2454599,23.5 22.4496084,23.3231248 22.4919443,23.0898756 L22.5,23 L22.5,18 C22.5,17.7545401 22.3231248,17.5503916 22.0898756,17.5080557 L22,17.5 Z M19.5,17.5 L18.5,17.5 L18.5,19.5 L19.5,19.5 L19.5,17.5 Z" id="形状结合" fill="#212121" fill-rule="nonzero"></path>
            </g>
        </g>
    </g>
</svg>