<?xml version="1.0" encoding="UTF-8"?>
<svg width="24px" height="25px" viewBox="0 0 24 25" version="1.1" xmlns="http://www.w3.org/2000/svg" xmlns:xlink="http://www.w3.org/1999/xlink">
    <title>icon/iconAssistantDeliveryComment</title>
    <g id="页面-1" stroke="none" stroke-width="1" fill="none" fill-rule="evenodd">
        <g id="画板" transform="translate(-134.000000, -420.000000)">
            <g id="icon/iconAssistantDeliveryComment" transform="translate(134.000000, 420.000000)">
                <rect id="矩形备份-2" fill="#FFFFFF" opacity="0" x="0" y="0" width="24" height="24"></rect>
                <path d="M10.1995879,2.68820124 L7.87,6.965 L3.08212431,7.85934124 C2.69416119,7.93172265 2.33533771,8.11455234 2.04874093,8.38587637 L1.931317,8.50640077 C1.22504174,9.29280624 1.2299589,10.5028556 1.96940845,11.2839285 L5.318,14.821 L4.68803763,19.6510088 C4.63698924,20.0423508 4.69998806,20.4401096 4.86946927,20.7965231 L4.94383809,20.9385561 C5.47169648,21.8583082 6.62738412,22.2305713 7.60116558,21.7675202 L12,19.675 L16.3988344,21.7675202 C16.7552479,21.9370014 17.1530068,22.0000002 17.5443487,21.9489518 L17.69533,21.9235866 C18.7370278,21.708782 19.4517521,20.7226507 19.3119624,19.6510088 L18.681,14.821 L22.0305916,11.2839285 C22.3019156,10.9973318 22.4847453,10.6385083 22.5571267,10.2505452 L22.5796587,10.0991151 C22.6972698,9.04202337 21.9802651,8.05754885 20.9178757,7.85934124 L16.129,6.965 L13.8004121,2.68820124 C13.6116861,2.34159348 13.3269222,2.05682955 12.9803144,1.86810355 C11.9859743,1.32669086 10.7410006,1.6938611 10.1995879,2.68820124 Z M12.2630112,3.18547825 C12.3560035,3.23611205 12.4324036,3.31251213 12.4830374,3.40550446 L14.9828282,7.99653538 C15.0907359,8.19471487 15.282138,8.33377668 15.5039632,8.37516211 L20.642771,9.33389792 C20.9413752,9.38960784 21.1382799,9.6768362 21.08257,9.97544043 C21.0631506,10.0795281 21.0140987,10.1757978 20.9413045,10.2526896 L17.3474525,14.0488386 C17.1923179,14.2127057 17.1192087,14.4377124 17.1483966,14.6614695 L17.8245636,19.8450317 C17.8638541,20.1462366 17.6515306,20.4222625 17.3503258,20.461553 C17.2453316,20.4752489 17.1386158,20.4583468 17.0429927,20.4128763 L12.3220791,18.1679944 C12.118293,18.0710904 11.881707,18.0710904 11.6779209,18.1679944 L6.95700731,20.4128763 C6.68268595,20.5433211 6.35455807,20.4266862 6.22411318,20.1523649 C6.17864261,20.0567417 6.16174049,19.9500259 6.1754364,19.8450317 L6.85160338,14.6614695 C6.88079125,14.4377124 6.80768213,14.2127057 6.65254753,14.0488386 L3.05869551,10.2526896 C2.84986509,10.0321042 2.8593944,9.68399386 3.07997984,9.47516344 C3.15687166,9.40236919 3.25314137,9.35331732 3.35722904,9.33389792 L8.49603677,8.37516211 C8.71786195,8.33377668 8.90926412,8.19471487 9.01717175,7.99653538 L11.5169626,3.40550446 C11.6622197,3.13873027 11.996237,3.04022118 12.2630112,3.18547825 Z" id="星形" fill="#212121" fill-rule="nonzero"></path>
                <path d="M8.70716991,11.7946699 C9.00006313,11.5017767 9.47493687,11.5017767 9.76783009,11.7946699 C10.6129174,12.6397572 11.4084029,13.0375 12.1625,13.0375 C12.9165971,13.0375 13.7120826,12.6397572 14.5571699,11.7946699 C14.8500631,11.5017767 15.3249369,11.5017767 15.6178301,11.7946699 C15.9107233,12.0875631 15.9107233,12.5624369 15.6178301,12.8553301 C14.5129174,13.9602428 13.3584029,14.5375 12.1625,14.5375 C10.9665971,14.5375 9.81208259,13.9602428 8.70716991,12.8553301 C8.4142767,12.5624369 8.4142767,12.0875631 8.70716991,11.7946699 Z" id="路径-2" fill="#FE8F1D" fill-rule="nonzero"></path>
            </g>
        </g>
    </g>
</svg>