<?xml version="1.0" encoding="utf-8"?>
<!-- Generator: Adobe Illustrator 24.0.3, SVG Export Plug-In . SVG Version: 6.00 Build 0)  -->
<svg version="1.1" id="图层_1" xmlns="http://www.w3.org/2000/svg" xmlns:xlink="http://www.w3.org/1999/xlink" x="0px" y="0px"
	 viewBox="0 0 29 28" style="enable-background:new 0 0 29 28;" xml:space="preserve">
<style type="text/css">
	.st0{fill-rule:evenodd;clip-rule:evenodd;fill:#FE8F1D;}
</style>
<path class="st0" d="M9.5,6c0-1.7,1.3-3,3-3h4c1.6,0,2.9,1.2,3,2.8H22c0.4,0,0.8,0.3,0.8,0.8S22.4,7.2,22,7.2h-2.5v0l-10,0V6z
	 M19.5,8.5V9c0,2.8-2.2,5-5,5s-5-2.2-5-5V8.5L19.5,8.5z M13.4,23.5L13.4,23.5L13.4,23.5L13.4,23.5z M13.4,23.5L13.4,23.5L13.4,23.5
	L13.4,23.5z M13.4,16.5c0.2-0.2,0.2-0.5,0.1-0.8c-0.1-0.3-0.4-0.4-0.7-0.4h-2.3c-3.2,0-5.8,2.6-5.8,5.8v2c0,1,0.8,1.8,1.8,1.8h6.3
	c0.3,0,0.6-0.2,0.7-0.4c0.1-0.3,0.1-0.6-0.1-0.8l0,0c0,0,0,0,0,0c0,0-0.1-0.1-0.1-0.2c-0.1-0.2-0.2-0.4-0.2-0.8v-4.9
	c0-0.4,0.1-0.7,0.2-0.9C13.3,16.6,13.3,16.5,13.4,16.5C13.4,16.5,13.4,16.5,13.4,16.5L13.4,16.5z M14.5,18c0-1.1,0.9-2,2-2h1v3.3
	c0,0.4,0.4,0.7,1,0.7h2c0.6,0,1-0.3,1-0.7V16h1c1.1,0,2,0.9,2,2v5c0,1.1-0.9,2-2,2h-6c-1.1,0-2-0.9-2-2V18z M19,18.5V16h1v2.5H19z"
	/>
</svg>
