<?xml version="1.0" encoding="utf-8"?>
<!-- Generator: Adobe Illustrator 24.0.3, SVG Export Plug-In . SVG Version: 6.00 Build 0)  -->
<svg version="1.1" id="图层_1" xmlns="http://www.w3.org/2000/svg" xmlns:xlink="http://www.w3.org/1999/xlink" x="0px" y="0px"
	 viewBox="0 0 20 20" style="enable-background:new 0 0 20 20;" xml:space="preserve">
<style type="text/css">
	.st0{fill-rule:evenodd;clip-rule:evenodd;fill:#9E9E9E;}
</style>
<path class="st0" d="M10,18c-4.4,0-8-3.6-8-8c0-4.4,3.6-8,8-8c4.4,0,8,3.6,8,8C18,14.4,14.4,18,10,18z M10,3c-3.9,0-7,3.1-7,7
	c0,3.9,3.1,7,7,7c3.9,0,7-3.1,7-7C17,6.1,13.9,3,10,3z M10.1,12c-0.2,0-0.4-0.1-0.5-0.2c-0.1-0.1-0.1-0.2-0.2-0.4c0-0.2,0-0.3,0-0.5
	l0-0.1c0-0.2,0.1-0.4,0.2-0.6c0.1-0.2,0.2-0.3,0.4-0.5c0.2-0.2,0.3-0.3,0.5-0.4C10.6,9.2,10.8,9,11,8.9c0.2-0.2,0.3-0.3,0.4-0.5
	c0.1-0.2,0.2-0.4,0.2-0.6c0-0.4-0.1-0.7-0.4-1c-0.3-0.3-0.7-0.4-1.2-0.4c-0.3,0-0.5,0.1-0.7,0.2C9.1,6.7,8.9,6.9,8.8,7.1
	C8.6,7.3,8.5,7.4,8.4,7.6C8.3,7.9,8.3,8,8.3,8.2c0,0.2-0.1,0.3-0.2,0.4C8,8.7,7.8,8.7,7.7,8.7h0c-0.2,0-0.3-0.1-0.5-0.2
	C7.1,8.4,7,8.3,7,8c0-0.2,0-0.5,0.1-0.9c0.1-0.3,0.3-0.7,0.5-1c0.2-0.3,0.6-0.6,1-0.8C9,5.1,9.5,5,10.1,5c0.5,0,0.9,0.1,1.3,0.2
	c0.4,0.2,0.7,0.4,0.9,0.6l0,0c0.2,0.2,0.4,0.4,0.5,0.9c0.2,0.6,0.1,1,0.1,1.1c-0.1,0.4-0.2,0.7-0.4,1c-0.2,0.3-0.5,0.6-0.7,0.8
	c-0.3,0.2-0.7,0.7-0.7,0.7c-0.2,0.2-0.4,0.4-0.3,0.6v0.4c0,0.2,0,0.3-0.2,0.4C10.5,11.9,10.3,12,10.1,12z M10,15
	c-0.3,0-0.5-0.1-0.7-0.3C9.1,14.5,9,14.3,9,14c0-0.3,0.1-0.5,0.3-0.7C9.5,13.1,9.7,13,10,13c0.3,0,0.5,0.1,0.7,0.3
	c0.2,0.2,0.3,0.4,0.3,0.7c0,0.3-0.1,0.5-0.3,0.7C10.5,14.9,10.3,15,10,15z"/>
</svg>
