<?xml version="1.0" encoding="utf-8"?>
<!-- Generator: Adobe Illustrator 24.0.3, SVG Export Plug-In . SVG Version: 6.00 Build 0)  -->
<svg version="1.1" id="图层_1" xmlns="http://www.w3.org/2000/svg" xmlns:xlink="http://www.w3.org/1999/xlink" x="0px" y="0px"
	 viewBox="0 0 40 40" style="enable-background:new 0 0 40 40;" xml:space="preserve">
<style type="text/css">
	.st0{fill:#F5F5F5;}
	.st1{fill-rule:evenodd;clip-rule:evenodd;fill:#9E9E9E;}
</style>
<circle class="st0" cx="20" cy="20" r="20"/>
<path class="st1" d="M12.8,14.6l0.1-0.1l1.2-1.7c0.4-0.6,1.3-0.7,1.9-0.3c0.5,0.4,1.1,0.9,1.7,1.6c0.6,0.7,1.1,1.3,1.3,1.9
	c0.3,0.6,0.1,1.4-0.5,1.8l-0.1,0L17.8,18l-0.3,0.1l0.1,0.3c0.2,0.4,0.5,0.8,1,1.3l0.3,0.3l0.3,0.3l0.2,0.2l0.2,0.2l0.3,0.3
	c0.7,0.6,1.1,1,1.6,1.3l0.3,0.1l0.4-0.9c0.3-0.6,1.1-0.9,1.7-0.6l0.1,0c0.6,0.3,1.2,0.7,1.9,1.3c0.7,0.6,1.2,1.2,1.6,1.7
	c0.4,0.6,0.3,1.4-0.2,1.9L27.2,26l-1.6,1.2c-0.9,0.7-2.1,0.8-3.2,0.4c-1.7-0.6-3.5-1.8-5.5-3.7l-0.3-0.3l-0.2-0.2
	c-2-2-3.3-3.9-3.9-5.7C12.1,16.6,12.2,15.5,12.8,14.6z"/>
</svg>
