<?xml version="1.0" encoding="UTF-8"?>
<svg width="14px" height="26px" viewBox="0 0 14 26" version="1.1" xmlns="http://www.w3.org/2000/svg" xmlns:xlink="http://www.w3.org/1999/xlink">
    <title>icon- 手电筒关闭</title>
    <g id="页面-1" stroke="none" stroke-width="1" fill="none" fill-rule="evenodd">
        <g id="画板" transform="translate(-722.000000, -615.000000)" fill="#212121" fill-rule="nonzero">
            <g id="icon--手电筒关闭" transform="translate(722.000000, 615.000000)">
                <path d="M12.5145549,3.4325264 C13.2617044,3.4325264 13.869597,4.0401828 13.869597,4.78759 L13.869597,7.0713546 C13.869597,10.4129481 12.3201882,12.6256055 11.2663714,13.7232878 L11.0488843,13.9414446 L10.85104,14.1255 C10.8199513,14.1533358 10.7898673,14.179752 10.7608813,14.2047493 L10.7608813,23.4325264 C10.7608813,24.5370959 9.8654508,25.4325264 8.7608813,25.4325264 L5.1087158,25.4325264 C4.0041463,25.4325264 3.1087158,24.5370959 3.1087158,23.4325264 L3.1087158,14.2056944 L2.9223697,14.0395463 C2.8893646,14.0090381 2.8554479,13.9771199 2.8207127,13.9437897 L2.6032257,13.7268448 C2.4903167,13.6098818 2.3717186,13.4801696 2.2499465,13.3376483 L2.0029157,13.0355092 C1.0454557,11.8117041 -3.55271368e-15,9.8326583 -3.55271368e-15,7.0713546 L-3.55271368e-15,4.78759 C-3.55271368e-15,4.0401828 0.6078927,3.4325264 1.3550422,3.4325264 L12.5145549,3.4325264 Z M12.2581447,8.50122 L1.6098667,8.50122 C1.9111153,10.4078725 2.8021651,11.8939602 3.9122088,12.9134462 L4.0856331,13.0674358 L4.6087158,13.5163747 L4.6087158,23.4325264 C4.6087158,23.6779863 4.7855909,23.8821348 5.0188401,23.9244707 L5.1087158,23.9325264 L8.7608813,23.9325264 C9.0063412,23.9325264 9.2104897,23.7556513 9.2528256,23.522402 L9.2608813,23.4325264 L9.2608813,13.5175853 L9.781264,13.0688136 C10.966913,12.0463241 11.9388142,10.4979307 12.2581447,8.50122 Z M6.875975,16.8 C7.2556708,16.8 7.569466,17.0821539 7.6191284,17.4482294 L7.625975,17.55 L7.625975,19.95 C7.625975,20.3642136 7.2901886,20.7 6.875975,20.7 C6.4962792,20.7 6.182484,20.4178461 6.1328216,20.0517706 L6.125975,19.95 L6.125975,17.55 C6.125975,17.1357864 6.4617614,16.8 6.875975,16.8 Z M12.369,4.932 L1.5,4.932 L1.5,7 L12.369,7 L12.369,4.932 Z M3.75,0.75 C3.75,0.3703042 4.0321539,0.056509 4.3982295,0.0068466 L4.5,0 L9.5,0 C9.9142136,0 10.25,0.3357864 10.25,0.75 C10.25,1.1296958 9.9678462,1.443491 9.6017706,1.4931534 L9.5,1.5 L4.5,1.5 C4.0857865,1.5 3.75,1.1642136 3.75,0.75 Z" id="形状结合"></path>
            </g>
        </g>
    </g>
</svg>