<?xml version="1.0" encoding="UTF-8"?>
<svg width="28px" height="28px" viewBox="0 0 28 28" version="1.1" xmlns="http://www.w3.org/2000/svg" xmlns:xlink="http://www.w3.org/1999/xlink">
    <title>icon-afterSales</title>
    <g id="页面-1" stroke="none" stroke-width="1" fill="none" fill-rule="evenodd">
        <g id="icon-afterSales" fill="#212121">
            <path d="M9.5,4 C9.1,4 8.8,4.3 8.8,4.8 L8.8,6.8 C8.8,7.2 9.1,7.6 9.6,7.6 C10.1,7.6 10.4,7.3 10.4,6.8 L10.4,4.8 C10.2,4.3 9.9,4 9.5,4 Z M7.9,5.7 C7.9,5.3 7.6,5 7.1,5 L6.8,5 L6.6,5 C5.1,5.1 4,6.3 4,7.7 L4,21 L4,21.2 C4.1,22.6 5.3,23.8 6.7,23.8 L20.7,23.8 L20.9,23.8 C22.3,23.7 23.5,22.5 23.5,21.1 L23.5,7.7 L23.5,7.5 C23.4,6.1 22.2,5 20.8,5 L20.3,5 L20.2,5 C19.8,5 19.6,5.4 19.6,5.7 C19.6,6.1 19.9,6.5 20.4,6.5 L20.9,6.5 L21,6.5 C21.5,6.6 22,7.1 22,7.7 L22,8.7 L5.5,8.7 L5.5,7.7 L5.5,7.6 C5.6,7 6.1,6.5 6.8,6.5 L7.2,6.5 L7.3,6.5 C7.6,6.4 7.9,6.1 7.9,5.7 Z M5.5,10.2 L22,10.2 L22,21 L22,21.1 C21.9,21.7 21.4,22.2 20.8,22.2 L6.8,22.2 L6.7,22.2 C6,22.2 5.5,21.6 5.5,21 L5.5,10.2 Z M16.2,5.7 C16.2,5.3 15.9,4.9 15.4,4.9 L11.8,4.9 L11.7,4.9 C11.3,4.9 11.1,5.3 11.1,5.6 C11.1,6 11.4,6.4 11.9,6.4 L15.5,6.4 L15.6,6.4 C16,6.4 16.2,6.1 16.2,5.7 Z M18.1,16 L18.1,16.8 L10.5,16.8 L10.5,14.4 C10.2,14.7 9.8,15 9.5,15.3 L9.2,14.4 C10.2,13.6 10.9,12.7 11.3,11.7 L12.3,11.9 C12.2,12.1 12.1,12.3 12,12.6 L14.1,12.6 C14,12.3 13.8,12.1 13.7,11.9 L14.8,11.7 C14.9,12 15.1,12.3 15.2,12.6 L18,12.6 L18,13.4 L15,13.4 L15,13.8 L17.5,13.8 L17.5,14.5 L15,14.5 L15,14.9 L17.5,14.9 L17.5,15.6 L15,15.6 L15,16 L18.1,16 Z M11.5,13.7 L14,13.7 L14,13.3 L11.5,13.3 L11.5,13.7 Z M14,14.8 L11.5,14.8 L11.5,14.4 L14,14.4 L14,14.8 Z M11.5,16 L14,16 L14,15.6 L11.5,15.6 L11.5,16 Z M11.5,20 L11.5,19.6 L16.5,19.6 L16.5,20 L17.5,20 L17.5,17.2 L10.4,17.2 L10.4,20 L11.5,20 Z M11.5,18.8 L16.5,18.8 L16.5,18 L11.5,18 L11.5,18.8 Z M17.9,4 C17.5,4 17.1,4.3 17.1,4.8 L17.1,6.8 C17.1,7.2 17.4,7.6 17.9,7.6 C18.4,7.6 18.7,7.3 18.7,6.8 L18.7,4.8 C18.7,4.3 18.4,4 17.9,4 Z" id="形状"></path>
        </g>
    </g>
</svg>