<?xml version="1.0" encoding="UTF-8"?>
<svg width="36px" height="36px" viewBox="0 0 36 36" version="1.1" xmlns="http://www.w3.org/2000/svg" xmlns:xlink="http://www.w3.org/1999/xlink">
    <title>icon-toast失败</title>
    <g id="页面-1" stroke="none" stroke-width="1" fill="none" fill-rule="evenodd">
        <g id="画板" transform="translate(-777.000000, -202.000000)" fill="#212121" fill-rule="nonzero">
            <g id="icon-toast失败" transform="translate(777.000000, 202.000000)">
                <path d="M18,0 C27.9411255,0 36,8.0588745 36,18 C36,27.9411255 27.9411255,36 18,36 C8.0588745,36 0,27.9411255 0,18 C0,8.0588745 8.0588745,0 18,0 Z M18,2.5 C9.43958638,2.5 2.5,9.43958638 2.5,18 C2.5,26.5604136 9.43958638,33.5 18,33.5 C26.5604136,33.5 33.5,26.5604136 33.5,18 C33.5,9.43958638 26.5604136,2.5 18,2.5 Z M12.0225244,11.2807112 C12.3916787,10.9064296 12.9901719,10.9064296 13.3594207,11.2807112 L13.3594207,11.2807112 L18.1097419,16.0971065 L22.6406502,11.5033632 C23.0098045,11.1290816 23.6083922,11.1290816 23.9775465,11.5033632 L23.9775465,11.5033632 L24.3117234,11.8421815 C24.6809722,12.2165589 24.6809722,12.8233647 24.3117234,13.1977421 L24.3117234,13.1977421 L19.7809096,17.7914854 L24.7231343,22.8023537 C25.0922886,23.1766353 25.0922886,23.7834411 24.7231343,24.1578185 L24.7231343,24.1578185 L24.3888629,24.4966368 C24.0197086,24.8710142 23.4211209,24.8710142 23.0519666,24.4966368 L23.0519666,24.4966368 L18.1097419,19.4858643 L12.9480098,24.7192888 C12.5788555,25.0935704 11.9802678,25.0935704 11.6111135,24.7192888 L11.6111135,24.7192888 L11.2769366,24.3803747 C10.9076878,24.0060931 10.9076878,23.3991915 11.2769366,23.0249099 L11.2769366,23.0249099 L16.4386687,17.7914854 L11.688253,12.9750901 C11.3190987,12.6008085 11.3190987,11.9939069 11.688253,11.6196253 L11.688253,11.6196253 Z" id="形状结合"></path>
            </g>
        </g>
    </g>
</svg>