<?xml version="1.0" encoding="UTF-8"?>
<svg width="24px" height="24px" viewBox="0 0 24 24" version="1.1" xmlns="http://www.w3.org/2000/svg" xmlns:xlink="http://www.w3.org/1999/xlink">
    <title>icon/icon-wisdomAcademy</title>
    <g id="页面-1" stroke="none" stroke-width="1" fill="none" fill-rule="evenodd">
        <g id="画板" transform="translate(-216.000000, -362.000000)">
            <g id="icon/icon-wisdomAcademy" transform="translate(216.000000, 362.000000)">
                <rect id="矩形备份-6" opacity="0" x="0" y="0" width="24" height="24"></rect>
                <path d="M19.1900518,11.4208382 L19.1900518,17.8029294 C19.1900518,19.522398 16.0560451,20.9163028 12.1900518,20.9163028 C8.32405857,20.9163028 5.19005181,19.522398 5.19005181,17.8029294 L5.19005181,17.8029294 L5.19005181,11.4208382 L11.7961325,14.2520156 C12.0476813,14.3598222 12.3324223,14.3598222 12.5839711,14.2520156 L12.5839711,14.2520156 L19.1900518,11.4208382 Z M12.558562,3.03517298 L12.6840125,3.07848877 L23.0942924,7.46568446 C23.2147865,7.51646416 23.3105941,7.61242488 23.3611815,7.73299982 C23.4561451,7.95934572 23.3720243,8.21602668 23.1733172,8.3453055 L23.0935568,8.387505 L22.44,8.661 L22.4400518,13.4163028 C22.4400518,13.8305163 22.1042654,14.1663028 21.6900518,14.1663028 C21.310356,14.1663028 20.9965609,13.8841489 20.9468984,13.5180733 L20.9400518,13.4163028 L20.94,9.29 L12.6825546,12.7554512 C12.4780461,12.841253 12.252066,12.8561718 12.0400191,12.8000936 L11.9147462,12.7579261 L1.30966697,8.38873967 C1.18670057,8.33807875 1.08898385,8.24051588 1.03812923,8.11762945 C0.94426922,7.89082369 1.02963929,7.63455552 1.22897373,7.50624611 L1.30893876,7.46443561 L11.9132765,3.07599663 C12.1190471,2.99084167 12.346087,2.97727241 12.558562,3.03517298 Z" id="形状结合" fill="#212121" fill-rule="nonzero"></path>
            </g>
        </g>
    </g>
</svg>