<?xml version="1.0" encoding="UTF-8"?>
<svg width="28px" height="28px" viewBox="0 0 28 28" version="1.1" xmlns="http://www.w3.org/2000/svg" xmlns:xlink="http://www.w3.org/1999/xlink">
    <title>icon-footer统计</title>
    <g id="页面-1" stroke="none" stroke-width="1" fill="none" fill-rule="evenodd">
        <g id="画板" transform="translate(-646.000000, -81.000000)">
            <g id="icon-footer统计" transform="translate(646.000000, 81.000000)">
                <rect id="矩形备份-4" opacity="0" x="0" y="0" width="28" height="28"></rect>
                <path d="M12.9619534,4.14604149 C13.3908481,4.12383483 13.7507654,4.46562409 13.7507338,4.89509332 L13.7507338,4.89509332 L13.749,14.132 L22.987074,14.1324063 C23.3835083,14.1324168 23.7052017,14.4391233 23.7348461,14.8236453 L23.7348461,14.8236453 L23.736047,14.9212645 C23.4542957,20.3520314 18.9600159,24.6321442 13.5,24.6321442 C7.83908131,24.6321442 3.25,20.0430629 3.25,14.3821442 C3.25,8.92172849 7.53071963,4.42725169 12.9619534,4.14604149 Z M12.25,5.72 L12.0267387,5.7554478 C7.88314783,6.45698461 4.75,10.0662794 4.75,14.3821442 C4.75,19.2146357 8.66750844,23.1321442 13.5,23.1321442 C17.8155485,23.1321442 21.4246761,19.9994401 22.1265564,15.856233 L22.1265564,15.856233 L22.161,15.632 L12.9999803,15.6321442 C12.6202719,15.6321342 12.3064782,15.3499539 12.2568396,14.9838634 L12.2568396,14.9838634 L12.25,14.8820891 L12.25,5.72 Z M16.0214193,3.25016071 L16.1182031,3.25926881 C20.4840448,3.95208655 23.9304662,7.39873277 24.6229857,11.7646363 C24.6952184,12.2200186 24.343323,12.6321442 23.8822475,12.6321442 L23.8822475,12.6321442 L16.0000011,12.6321442 C15.5857627,12.6321442 15.25,12.2963201 15.25,11.8820817 L15.25,11.8820817 L15.2506561,3.99993757 C15.2506945,3.53886598 15.6628297,3.18700535 16.1182031,3.25926881 Z M16.75,4.924 L16.749,11.132 L22.957,11.132 L22.9028851,10.9333239 C22.0699674,8.0703309 19.8123235,5.81253791 16.9493942,4.97942579 L16.9493942,4.97942579 L16.75,4.924 Z" id="形状结合" fill="#212121" fill-rule="nonzero"></path>
            </g>
        </g>
    </g>
</svg>