<?xml version="1.0" encoding="UTF-8"?>
<svg width="20px" height="20px" viewBox="0 0 20 20" version="1.1" xmlns="http://www.w3.org/2000/svg" xmlns:xlink="http://www.w3.org/1999/xlink">
    <title>icon-refresh</title>
    <g id="页面-1" stroke="none" stroke-width="1" fill="none" fill-rule="evenodd">
        <g id="画板" transform="translate(-443.000000, -503.000000)" fill="#212121" fill-rule="nonzero">
            <g id="icon-refresh" transform="translate(443.000000, 503.000000)">
                <path d="M19.2307692,9.23076923 C19.6555897,9.23076923 20,9.57516923 20,10 C20,15.5228718 15.5228718,20 10,20 C7.3124,20 4.79169231,18.9338462 2.92893333,17.0710769 C2.74335385,16.8855385 2.56534359,16.6929231 2.39526154,16.4939487 L2.23794872,16.3025641 L2.23883077,17.0196923 C2.23883077,17.4091282 1.94944615,17.7309744 1.57397949,17.7819487 L1.4696,17.7889231 C1.08017436,17.7889231 0.758330256,17.4994872 0.707393846,17.1241026 L0.700372308,17.0196923 L0.700372308,13.5332308 C0.700372308,12.6916923 1.85781538,12.4612308 2.1801641,13.2386667 C2.60572308,14.2649231 3.23109744,15.1975385 4.01678974,15.9831795 C5.59389744,17.5603077 7.72462564,18.4615385 10,18.4615385 C14.6731282,18.4615385 18.4615385,14.6731282 18.4615385,10 C18.4615385,9.57516923 18.8059487,9.23076923 19.2307692,9.23076923 Z M10,0 C12.6875897,0 15.2083077,1.06617436 17.0710769,2.92893333 C17.2566154,3.11451282 17.4346667,3.30704615 17.6047179,3.50604103 L17.7610256,3.69641026 L17.7611282,2.89129231 C17.7611282,2.50186667 18.0505641,2.18002051 18.4260513,2.12908718 L18.530359,2.12206154 C18.9197949,2.12206154 19.241641,2.41145641 19.2926154,2.78691282 L19.2995897,2.89129231 L19.2995897,6.46672821 C19.2995897,7.30828718 18.1421538,7.53874872 17.8197949,6.76137436 C17.3942564,5.73509744 16.7689231,4.80248205 15.9831795,4.01678974 C14.4061538,2.43968205 12.2753846,1.53846154 10,1.53846154 C5.32682051,1.53846154 1.53846154,5.32682051 1.53846154,10 C1.53846154,10.4248205 1.19406154,10.7692308 0.769230769,10.7692308 C0.344395897,10.7692308 0,10.4248205 0,10 C0,4.47714872 4.47714872,0 10,0 Z" id="形状结合"></path>
            </g>
        </g>
    </g>
</svg>