<?xml version="1.0" encoding="UTF-8"?>
<svg width="32px" height="32px" viewBox="0 0 32 32" version="1.1" xmlns="http://www.w3.org/2000/svg" xmlns:xlink="http://www.w3.org/1999/xlink">
    <title>icon-loading</title>
    <g id="页面-1" stroke="none" stroke-width="1" fill="none" fill-rule="evenodd">
        <g id="画板" transform="translate(-308.000000, -488.000000)" fill="#212121">
            <g id="icon-loading" transform="translate(308.000000, 488.000000)">
                <path d="M14.6286,1.37143 C14.6286,0.61401 15.2426,0 16,0 C24.8366,0 32,7.16344 32,16 C32,24.8366 24.8366,32 16,32 C7.16344,32 0,24.8366 0,16 C0,11.8593 1.57473,8.0832 4.15566,5.24291 C4.66504,4.68235 5.53239,4.64087 6.09294,5.15024 C6.65349,5.65961 6.69498,6.52696 6.18561,7.08752 C4.04546,9.4427 2.74286,12.5676 2.74286,16 C2.74286,23.3217 8.6783,29.2571 16,29.2571 C23.3217,29.2571 29.2571,23.3217 29.2571,16 C29.2571,8.6783 23.3217,2.74286 16,2.74286 C15.2426,2.74286 14.6286,2.12885 14.6286,1.37143 Z" id="路径"></path>
            </g>
        </g>
    </g>
</svg>