<?xml version="1.0" encoding="UTF-8"?>
<svg width="24px" height="24px" viewBox="0 0 24 24" version="1.1" xmlns="http://www.w3.org/2000/svg" xmlns:xlink="http://www.w3.org/1999/xlink">
    <title>icon/iconAssistantIntroduction</title>
    <g id="页面-1" stroke="none" stroke-width="1" fill="none" fill-rule="evenodd">
        <g id="画板" transform="translate(-374.000000, -420.000000)">
            <g id="icon/iconAssistantIntroduction" transform="translate(374.000000, 420.000000)">
                <rect id="矩形备份-2" fill="#FFFFFF" opacity="0" x="0" y="0" width="24" height="24"></rect>
                <path d="M12,6.25 C8.82436269,6.25 6.25,8.82436269 6.25,12 C6.25,15.1756373 8.82436269,17.75 12,17.75 C15.1756373,17.75 17.75,15.1756373 17.75,12 C17.75,8.82436269 15.1756373,6.25 12,6.25 Z M12,7.75 C14.3472102,7.75 16.25,9.65278981 16.25,12 C16.25,14.3472102 14.3472102,16.25 12,16.25 C9.65278981,16.25 7.75,14.3472102 7.75,12 C7.75,9.65278981 9.65278981,7.75 12,7.75 Z" id="椭圆形" fill="#FE8F1D" fill-rule="nonzero"></path>
                <path d="M19,2 C20.6568542,2 22,3.34314575 22,5 L22,19 C22,20.6568542 20.6568542,22 19,22 L5,22 C3.34314575,22 2,20.6568542 2,19 L2,5 C2,3.34314575 3.34314575,2 5,2 L19,2 Z M19,3.5 L5,3.5 C4.22030388,3.5 3.57955132,4.09488808 3.50686658,4.85553999 L3.5,5 L3.5,19 C3.5,19.7796961 4.09488808,20.4204487 4.85553999,20.4931334 L5,20.5 L19,20.5 C19.7796961,20.5 20.4204487,19.9051119 20.4931334,19.14446 L20.5,19 L20.5,5 C20.5,4.22030388 19.9051119,3.57955132 19.14446,3.50686658 L19,3.5 Z M12,14.8816113 C12.3796958,14.8816113 12.693491,15.1637652 12.7431534,15.5298407 L12.75,15.6316113 L12.75,17.8478306 C12.75,18.2620442 12.4142136,18.5978306 12,18.5978306 C11.6203042,18.5978306 11.306509,18.3156768 11.2568466,17.9496012 L11.25,17.8478306 L11.25,15.6316113 C11.25,15.2173977 11.5857864,14.8816113 12,14.8816113 Z M12,11 C12.5522847,11 13,11.4477153 13,12 C13,12.5522847 12.5522847,13 12,13 C11.4477153,13 11,12.5522847 11,12 C11,11.4477153 11.4477153,11 12,11 Z M8.34531181,11.1970092 C8.75952537,11.1970092 9.09531181,11.5327956 9.09531181,11.9470092 C9.09531181,12.326705 8.81315793,12.6405002 8.44708237,12.6901626 L8.34531181,12.6970092 L5.84531181,12.6970092 C5.43109825,12.6970092 5.09531181,12.3612228 5.09531181,11.9470092 C5.09531181,11.5673134 5.37746569,11.2535182 5.74354125,11.2038558 L5.84531181,11.1970092 L8.34531181,11.1970092 Z M17.9961765,11.1970092 C18.4103901,11.1970092 18.7461765,11.5327956 18.7461765,11.9470092 C18.7461765,12.326705 18.4640226,12.6405002 18.0979471,12.6901626 L17.9961765,12.6970092 L15.4961765,12.6970092 C15.081963,12.6970092 14.7461765,12.3612228 14.7461765,11.9470092 C14.7461765,11.5673134 15.0283304,11.2535182 15.394406,11.2038558 L15.4961765,11.1970092 L17.9961765,11.1970092 Z M12,5.29618776 C12.3796958,5.29618776 12.693491,5.57834164 12.7431534,5.9444172 L12.75,6.04618776 L12.75,8.34783064 C12.75,8.7620442 12.4142136,9.09783064 12,9.09783064 C11.6203042,9.09783064 11.306509,8.81567675 11.2568466,8.44960119 L11.25,8.34783064 L11.25,6.04618776 C11.25,5.63197419 11.5857864,5.29618776 12,5.29618776 Z" id="形状结合" fill="#000000" fill-rule="nonzero"></path>
            </g>
        </g>
    </g>
</svg>