<?xml version="1.0" encoding="UTF-8"?>
<svg width="28px" height="28px" viewBox="0 0 28 28" version="1.1" xmlns="http://www.w3.org/2000/svg" xmlns:xlink="http://www.w3.org/1999/xlink">
    <title>icon-watch</title>
    <g id="页面-1" stroke="none" stroke-width="1" fill="none" fill-rule="evenodd">
        <g id="画板" transform="translate(-214.000000, -81.000000)">
            <g id="icon-watch" transform="translate(214.000000, 81.000000)">
                <rect id="矩形备份-4" opacity="0" x="0" y="0" width="28" height="28"></rect>
                <path d="M22,4 C23.1045695,4 24,4.8954305 24,6 L24,18 C24,19.1045695 23.1045695,20 22,20 L6,20 C4.8954305,20 4,19.1045695 4,18 L4,6 C4,4.8954305 4.8954305,4 6,4 L22,4 Z M22,5.5 L6,5.5 C5.75454011,5.5 5.55039163,5.67687516 5.50805567,5.91012437 L5.5,6 L5.5,18 C5.5,18.2454599 5.67687516,18.4496084 5.91012437,18.4919443 L6,18.5 L22,18.5 C22.2454599,18.5 22.4496084,18.3231248 22.4919443,18.0898756 L22.5,18 L22.5,6 C22.5,5.75454011 22.3231248,5.55039163 22.0898756,5.50805567 L22,5.5 Z M12.982124,9.39770068 L13.065376,9.46966991 L15.971,12.375 L18.876357,9.46966991 C19.1692502,9.1767767 19.644124,9.1767767 19.9370172,9.46966991 C20.2032838,9.73593648 20.2274898,10.1526002 20.0096353,10.4462117 L19.9370172,10.5303301 L16.5011966,13.9661507 C16.23493,14.2324173 15.8182663,14.2566233 15.5246548,14.0387688 L15.4405364,13.9661507 L12.527,11.053 L9.52272826,13.9736451 C9.25269894,14.2360949 8.83573294,14.2543682 8.54525188,14.0323569 L8.46217553,13.9585489 C8.19972567,13.6885196 8.18145237,13.2715536 8.40346369,12.9810725 L8.47727174,12.8979961 L12.0123176,9.46217553 C12.2796332,9.20236321 12.6915887,9.18150276 12.982124,9.39770068 Z M22,22.75 C22.4142136,22.75 22.75,23.0857864 22.75,23.5 C22.75,23.8796958 22.4678461,24.193491 22.1017706,24.2431534 L22,24.25 L6,24.25 C5.58578644,24.25 5.25,23.9142136 5.25,23.5 C5.25,23.1203042 5.53215388,22.806509 5.89822944,22.7568466 L6,22.75 L22,22.75 Z" id="形状结合" fill="#212121" fill-rule="nonzero"></path>
            </g>
        </g>
    </g>
</svg>