<?xml version="1.0" encoding="UTF-8"?>
<svg width="27px" height="24px" viewBox="0 0 27 24" version="1.1" xmlns="http://www.w3.org/2000/svg" xmlns:xlink="http://www.w3.org/1999/xlink">
    <title>icon-footerScan</title>
    <g id="页面-1" stroke="none" stroke-width="1" fill="none" fill-rule="evenodd">
        <g id="画板" transform="translate(-1217.000000, -137.000000)" fill="#212121">
            <g id="icon-footerScan" transform="translate(1217.196520, 137.000000)">
                <path d="M23.75,16.25 C24.3997468,16.25 24.9337072,16.7457401 24.9942779,17.3796167 L25,17.5 L25,20 C25,21.7851628 23.5966929,23.2425657 21.8330336,23.3292539 L21.6666667,23.3333333 L18.3333333,23.3333333 C17.6429774,23.3333333 17.0833333,22.7736893 17.0833333,22.0833333 C17.0833333,21.4335866 17.5790734,20.8996261 18.21295,20.8390555 L18.3333333,20.8333333 L21.6666667,20.8333333 C22.0940299,20.8333333 22.446256,20.5116332 22.4943936,20.0971843 L22.5,20 L22.5,17.5 C22.5,16.8096441 23.0596441,16.25 23.75,16.25 Z M2.91666667,16.25 C3.56641343,16.25 4.1003739,16.7457401 4.16094452,17.3796167 L4.16666667,17.5 L4.16666667,20 C4.16666667,20.4273632 4.48836683,20.7795893 4.90281573,20.8277269 L5,20.8333333 L8.33333333,20.8333333 C9.02368927,20.8333333 9.58333333,21.3929774 9.58333333,22.0833333 C9.58333333,22.7330801 9.08759326,23.2670406 8.45371668,23.3276112 L8.33333333,23.3333333 L5,23.3333333 C3.21483717,23.3333333 1.75743427,21.9300263 1.67074609,20.166367 L1.66666667,20 L1.66666667,17.5 C1.66666667,16.8096441 2.22631073,16.25 2.91666667,16.25 Z M25.4166667,10.4166667 C26.1070226,10.4166667 26.6666667,10.9763107 26.6666667,11.6666667 C26.6666667,12.3570226 26.1070226,12.9166667 25.4166667,12.9166667 L1.25,12.9166667 C0.559644063,12.9166667 0,12.3570226 0,11.6666667 C0,10.9763107 0.559644063,10.4166667 1.25,10.4166667 L25.4166667,10.4166667 Z M21.6666667,0 C23.4518295,0 24.9092324,1.40330706 24.9959206,3.16696638 L25,3.33333333 L25,5.83333333 C25,6.52368927 24.4403559,7.08333333 23.75,7.08333333 C23.1002532,7.08333333 22.5662928,6.58759326 22.5057221,5.95371668 L22.5,5.83333333 L22.5,3.33333333 C22.5,2.90597013 22.1782998,2.55374403 21.7638509,2.50560644 L21.6666667,2.5 L18.3333333,2.5 C17.6429774,2.5 17.0833333,1.94035594 17.0833333,1.25 C17.0833333,0.600253235 17.5790734,0.0662927682 18.21295,0.00572214838 L18.3333333,0 L21.6666667,0 Z M8.33333333,0 C9.02368927,0 9.58333333,0.559644063 9.58333333,1.25 C9.58333333,1.89974676 9.08759326,2.43370723 8.45371668,2.49427785 L8.33333333,2.5 L5,2.5 C4.5726368,2.5 4.2204107,2.82170016 4.17227311,3.23614906 L4.16666667,3.33333333 L4.16666667,5.83333333 C4.16666667,6.52368927 3.6070226,7.08333333 2.91666667,7.08333333 C2.2669199,7.08333333 1.73295943,6.58759326 1.67238882,5.95371668 L1.66666667,5.83333333 L1.66666667,3.33333333 C1.66666667,1.54817051 3.06997373,0.0907676033 4.83363305,0.00407942269 L5,0 L8.33333333,0 Z" id="形状"></path>
            </g>
        </g>
    </g>
</svg>