<?xml version="1.0" encoding="UTF-8"?>
<svg width="24px" height="24px" viewBox="0 0 24 24" version="1.1" xmlns="http://www.w3.org/2000/svg" xmlns:xlink="http://www.w3.org/1999/xlink">
    <title>icon/iconAssistantCargoSpace</title>
    <g id="页面-1" stroke="none" stroke-width="1" fill="none" fill-rule="evenodd">
        <g id="画板" transform="translate(-202.000000, -420.000000)">
            <g id="icon/iconAssistantCargoSpace" transform="translate(202.000000, 420.000000)">
                <rect id="矩形备份-2" fill="#FFFFFF" opacity="0" x="0" y="0" width="24" height="24"></rect>
                <path d="M18.825,1.5 C20.0820231,1.5 21.1109585,2.47655946 21.1945208,3.71239292 L21.2,3.875 L21.2,22.35 C21.2,22.7642136 20.8642136,23.1 20.45,23.1 C20.0703042,23.1 19.756509,22.8178461 19.7068466,22.4517706 L19.7,22.35 L19.7,21.199 L4.3,21.199 L4.3,22.35 C4.3,22.7296958 4.01784612,23.043491 3.65177056,23.0931534 L3.55,23.1 C3.17030423,23.1 2.85650904,22.8178461 2.80684662,22.4517706 L2.8,22.35 L2.8,3.875 C2.8,2.6179769 3.77655946,1.58904148 5.01239292,1.50547919 L5.175,1.5 L18.825,1.5 Z M19.699,12.099 L4.3,12.099 L4.3,19.699 L19.7,19.699 L19.699,12.099 Z M18.825,3 L5.175,3 C4.72892386,3 4.36081077,3.33379954 4.30681749,3.76524186 L4.3,3.875 L4.3,10.599 L19.7,10.599 L19.7,3.875 C19.7,3.42892386 19.3662005,3.06081077 18.9347581,3.00681749 L18.825,3 Z" id="形状结合" fill="#212121" fill-rule="nonzero"></path>
                <path d="M6.9625,5.5 L7.9375,5.5 C8.38623136,5.5 8.75,5.86376864 8.75,6.3125 L8.75,7.2875 C8.75,7.73623136 8.38623136,8.1 7.9375,8.1 L6.9625,8.1 C6.51376864,8.1 6.15,7.73623136 6.15,7.2875 L6.15,6.3125 C6.15,5.86376864 6.51376864,5.5 6.9625,5.5 Z M11.5125,5.5 L12.4875,5.5 C12.9362314,5.5 13.3,5.86376864 13.3,6.3125 L13.3,7.2875 C13.3,7.73623136 12.9362314,8.1 12.4875,8.1 L11.5125,8.1 C11.0637686,8.1 10.7,7.73623136 10.7,7.2875 L10.7,6.3125 C10.7,5.86376864 11.0637686,5.5 11.5125,5.5 Z M16.0625,5.5 L17.0375,5.5 C17.4862314,5.5 17.85,5.86376864 17.85,6.3125 L17.85,7.2875 C17.85,7.73623136 17.4862314,8.1 17.0375,8.1 L16.0625,8.1 C15.6137686,8.1 15.25,7.73623136 15.25,7.2875 L15.25,6.3125 C15.25,5.86376864 15.6137686,5.5 16.0625,5.5 Z M6.9625,14.6 L7.9375,14.6 C8.38623136,14.6 8.75,14.9637686 8.75,15.4125 L8.75,16.3875 C8.75,16.8362314 8.38623136,17.2 7.9375,17.2 L6.9625,17.2 C6.51376864,17.2 6.15,16.8362314 6.15,16.3875 L6.15,15.4125 C6.15,14.9637686 6.51376864,14.6 6.9625,14.6 Z M11.5125,14.6 L12.4875,14.6 C12.9362314,14.6 13.3,14.9637686 13.3,15.4125 L13.3,16.3875 C13.3,16.8362314 12.9362314,17.2 12.4875,17.2 L11.5125,17.2 C11.0637686,17.2 10.7,16.8362314 10.7,16.3875 L10.7,15.4125 C10.7,14.9637686 11.0637686,14.6 11.5125,14.6 Z M16.0625,14.6 L17.0375,14.6 C17.4862314,14.6 17.85,14.9637686 17.85,15.4125 L17.85,16.3875 C17.85,16.8362314 17.4862314,17.2 17.0375,17.2 L16.0625,17.2 C15.6137686,17.2 15.25,16.8362314 15.25,16.3875 L15.25,15.4125 C15.25,14.9637686 15.6137686,14.6 16.0625,14.6 Z" id="形状结合" fill="#FE8F1D"></path>
            </g>
        </g>
    </g>
</svg>