<?xml version="1.0" encoding="UTF-8"?>
<svg width="28px" height="28px" viewBox="0 0 28 28" version="1.1" xmlns="http://www.w3.org/2000/svg" xmlns:xlink="http://www.w3.org/1999/xlink">
    <title>icon-footerWorkforceManage</title>
    <g id="页面-1" stroke="none" stroke-width="1" fill="none" fill-rule="evenodd">
        <g id="画板" transform="translate(-406.000000, -80.000000)">
            <g id="icon-footerWorkforceManage" transform="translate(406.000000, 80.000000)">
                <rect id="矩形备份-4" opacity="0" x="0" y="0" width="28" height="28"></rect>
                <path d="M16,3 C17.0314501,3 17.9170069,3.62464351 18.2990238,4.51628389 L21.5,4.51617366 C22.9629153,4.51617366 24.1584327,5.66021599 24.2449828,7.10314693 L24.25,7.2709173 L24.25,22.26143 C24.25,23.7261022 23.1086647,24.9243916 21.6675634,25.0111446 L21.5,25.0161737 L7.5,25.0161737 C6.03708465,25.0161737 4.84156731,23.8721313 4.75501722,22.4292004 L4.75,22.26143 L4.75,7.2709173 C4.75,5.80624516 5.89133529,4.60795572 7.33243663,4.52120269 L7.5,4.51617366 L10.7009762,4.51628389 C11.0829931,3.62464351 11.9685499,3 13,3 L16,3 Z M16,8 L13,8 C11.7963756,8 10.7914159,7.1494149 10.5534273,6.01655096 L7.5,6.01617366 C6.85316468,6.01617366 6.32051277,6.50956583 6.25645798,7.14256159 L6.25,7.2709173 L6.25,22.26143 C6.25,22.9114672 6.7422247,23.4454867 7.37226039,23.5096999 L7.5,23.5161737 L21.5,23.5161737 C22.1468353,23.5161737 22.6794872,23.0227815 22.743542,22.3897857 L22.75,22.26143 L22.75,7.2709173 C22.75,6.62088012 22.2577753,6.08686063 21.6277396,6.0226474 L21.5,6.01617366 L18.4465727,6.01655096 C18.2085841,7.1494149 17.2036244,8 16,8 Z M14.9545455,18.75 C15.368759,18.75 15.7045455,19.0857864 15.7045455,19.5 C15.7045455,19.8796958 15.4223916,20.193491 15.056316,20.2431534 L14.9545455,20.25 L9.95454545,20.25 C9.54033189,20.25 9.20454545,19.9142136 9.20454545,19.5 C9.20454545,19.1203042 9.48669934,18.806509 9.8527749,18.7568466 L9.95454545,18.75 L14.9545455,18.75 Z M18.9545455,14.75 C19.368759,14.75 19.7045455,15.0857864 19.7045455,15.5 C19.7045455,15.8796958 19.4223916,16.193491 19.056316,16.2431534 L18.9545455,16.25 L9.95454545,16.25 C9.54033189,16.25 9.20454545,15.9142136 9.20454545,15.5 C9.20454545,15.1203042 9.48669934,14.806509 9.8527749,14.7568466 L9.95454545,14.75 L18.9545455,14.75 Z M18.9545455,10.75 C19.368759,10.75 19.7045455,11.0857864 19.7045455,11.5 C19.7045455,11.8796958 19.4223916,12.193491 19.056316,12.2431534 L18.9545455,12.25 L9.95454545,12.25 C9.54033189,12.25 9.20454545,11.9142136 9.20454545,11.5 C9.20454545,11.1203042 9.48669934,10.806509 9.8527749,10.7568466 L9.95454545,10.75 L18.9545455,10.75 Z M16,4.5 L13,4.5 C12.4477153,4.5 12,4.94771525 12,5.5 C12,6.01283584 12.3860402,6.43550716 12.8833789,6.49327227 L13,6.5 L16,6.5 C16.5522847,6.5 17,6.05228475 17,5.5 C17,4.98716416 16.6139598,4.56449284 16.1166211,4.50672773 L16,4.5 Z" id="形状结合" fill="#212121" fill-rule="nonzero"></path>
            </g>
        </g>
    </g>
</svg>