<?xml version="1.0" encoding="utf-8"?>
<!-- Generator: Adobe Illustrator 24.0.3, SVG Export Plug-In . SVG Version: 6.00 Build 0)  -->
<svg version="1.1" id="图层_1" xmlns="http://www.w3.org/2000/svg" xmlns:xlink="http://www.w3.org/1999/xlink" x="0px" y="0px"
	 viewBox="0 0 28 28" style="enable-background:new 0 0 28 28;" xml:space="preserve">
<style type="text/css">
	.st0{fill-rule:evenodd;clip-rule:evenodd;fill:#212121;}
</style>
<path class="st0" d="M24.1,12.6L20.2,6c-0.5-0.9-1.4-1.4-2.4-1.4h-7.7c-1,0-1.9,0.5-2.4,1.4l-3.8,6.7c-0.5,0.9-0.5,1.9,0,2.8L7.8,22
	c0.5,0.9,1.4,1.4,2.4,1.4h7.7c1,0,1.9-0.5,2.4-1.4l3.8-6.7C24.6,14.5,24.6,13.5,24.1,12.6z M22.8,14.6l-3.8,6.7
	c-0.2,0.4-0.6,0.6-1.1,0.6h-7.7c-0.4,0-0.9-0.2-1.1-0.6l-3.8-6.7c-0.2-0.4-0.2-0.9,0-1.2l3.8-6.7c0.2-0.4,0.6-0.6,1.1-0.6h7.7
	c0.4,0,0.9,0.2,1.1,0.6l3.8,6.7C23,13.8,23,14.2,22.8,14.6z M14,10.2c-2.1,0-3.8,1.7-3.8,3.8c0,2.1,1.7,3.8,3.8,3.8
	c2.1,0,3.8-1.7,3.8-3.8C17.7,11.9,16.1,10.2,14,10.2z M14,11.8c1.2,0,2.2,1,2.2,2.2c0,1.2-1,2.2-2.2,2.2c-1.2,0-2.2-1-2.2-2.2
	C11.7,12.8,12.8,11.8,14,11.8z"/>
</svg>
