<?xml version="1.0" encoding="UTF-8"?>
<svg width="29px" height="28px" viewBox="0 0 29 28" version="1.1" xmlns="http://www.w3.org/2000/svg" xmlns:xlink="http://www.w3.org/1999/xlink">
    <title>icon-footerPickUp</title>
    <g id="页面-1" stroke="none" stroke-width="1" fill="none" fill-rule="evenodd">
        <g id="画板" transform="translate(-78.000000, -81.000000)">
            <g id="icon-footerPickUp" transform="translate(78.500000, 81.000000)">
                <rect id="矩形备份-4" opacity="0" x="0" y="0" width="28" height="28"></rect>
                <path d="M23,5.25 C23.9664983,5.25 24.75,6.03350169 24.75,7 L24.75,7 L24.75,10 C24.75,10.6977646 24.3416283,11.3001489 23.7508494,11.5811884 L23.75,21 C23.75,22.5187831 22.5187831,23.75 21,23.75 L21,23.75 L7,23.75 C5.48121694,23.75 4.25,22.5187831 4.25,21 L4.25,21 L4.25014872,11.5816628 C3.65883171,11.3008273 3.25,10.6981575 3.25,10 L3.25,10 L3.25,7 C3.25,6.03350169 4.03350169,5.25 5,5.25 L5,5.25 Z M22.25,11.75 L17.75,11.75 L17.75,16.3333333 C17.75,16.980542 17.2581253,17.5128672 16.6278052,17.5768797 L16.5,17.5833333 C16.3815536,17.5833333 16.2637085,17.5664983 16.15,17.5333333 L16.15,17.5333333 L14,16.905 L11.85,17.5333333 C11.2286797,17.7145518 10.5799226,17.3914031 10.3419809,16.8042194 L10.3419809,16.8042194 L10.3,16.6833333 C10.266835,16.5696248 10.25,16.4517797 10.25,16.3333333 L10.25,16.3333333 L10.25,11.75 L5.75,11.75 L5.75,21 C5.75,21.6040614 6.17847749,22.1080466 6.7480814,22.2246044 L6.87219476,22.2435464 L7,22.25 L21,22.25 C21.6903559,22.25 22.25,21.6903559 22.25,21 L22.25,21 L22.25,11.75 Z M16.25,11.75 L11.75,11.75 L11.75,16 L14,15.34375 L16.25,16 L16.25,11.75 Z M23,6.75 L5,6.75 C4.86192881,6.75 4.75,6.86192881 4.75,7 L4.75,7 L4.75,10 C4.75,10.1380712 4.86192881,10.25 5,10.25 L5,10.25 L10.25,10.25 L10.25,10.25 L17.75,10.25 L17.75,10.25 L23,10.25 C23.1183467,10.25 23.2174868,10.1677666 23.2433973,10.0573227 L23.25,10 L23.25,7 C23.25,6.86192881 23.1380712,6.75 23,6.75 L23,6.75 Z" id="形状结合" fill="#212121" fill-rule="nonzero"></path>
            </g>
        </g>
    </g>
</svg>