<?xml version="1.0" encoding="UTF-8"?>
<svg width="15px" height="30px" viewBox="0 0 15 30" version="1.1" xmlns="http://www.w3.org/2000/svg" xmlns:xlink="http://www.w3.org/1999/xlink">
    <title>icon-手电筒开启</title>
    <g id="页面-1" stroke="none" stroke-width="1" fill="none" fill-rule="evenodd">
        <g id="画板" transform="translate(-743.000000, -611.000000)" fill="#212121" fill-rule="nonzero">
            <g id="icon-手电筒开启" transform="translate(743.000000, 611.000000)">
                <path d="M12.8886747,7.43252641 C13.6358241,7.43252641 14.2437168,8.04018278 14.2437168,8.78759 L14.2437168,11.0713546 C14.2437168,14.4129481 12.694308,16.6256055 11.6404911,17.7232878 L11.4230041,17.9414446 L11.2251598,18.1255 C11.1940711,18.1533358 11.1639871,18.179752 11.1350011,18.2047493 L11.1350011,27.4325264 C11.1350011,28.5370959 10.2395706,29.4325264 9.13500107,29.4325264 L5.48283555,29.4325264 C4.37826605,29.4325264 3.48283555,28.5370959 3.48283555,27.4325264 L3.48283555,18.2056944 L3.29648948,18.0395463 C3.26348438,18.0090381 3.22956768,17.9771199 3.19483252,17.9437897 L2.97734548,17.7268448 C2.86443653,17.6098818 2.74583839,17.4801696 2.62406631,17.3376483 L2.37703552,17.0355092 C1.4195755,15.8117041 0.374119828,13.8326583 0.374119828,11.0713546 L0.374119828,8.78759 C0.374119828,8.04018278 0.982012479,7.43252641 1.72916194,7.43252641 L12.8886747,7.43252641 Z M12.6322645,12.5013645 L1.98398653,12.50122 C2.28523509,14.4078725 3.17628485,15.8939602 4.2863286,16.9134462 L4.45975285,17.0674358 L4.98283555,17.5163747 L4.98283555,27.4325264 C4.98283555,27.6779863 5.15971071,27.8821348 5.39295992,27.9244707 L5.48283555,27.9325264 L9.13500107,27.9325264 C9.38046096,27.9325264 9.58460944,27.7556513 9.6269454,27.522402 L9.63500107,27.4325264 L9.63500107,17.5175853 L10.1553838,17.0688136 C11.3410328,16.0463241 12.312934,14.4979307 12.6322645,12.5013645 Z M7.25009478,20.8 C7.62979055,20.8 7.94358574,21.0821539 7.99324817,21.4482294 L8.00009478,21.55 L8.00009478,23.95 C8.00009478,24.3642136 7.66430834,24.7 7.25009478,24.7 C6.87039902,24.7 6.55660382,24.4178461 6.5069414,24.0517706 L6.50009478,23.95 L6.50009478,21.55 C6.50009478,21.1357864 6.83588122,20.8 7.25009478,20.8 Z M12.7431198,8.932 L1.87411983,8.932 L1.874,11 L12.743,11 L12.7431198,8.932 Z M7.25009478,0 C7.62979055,0 7.94358574,0.282153882 7.99324817,0.648229443 L8.00009478,0.75 L8.00009478,3.95 C8.00009478,4.36421356 7.66430834,4.7 7.25009478,4.7 C6.87039902,4.7 6.55660382,4.41784612 6.5069414,4.05177056 L6.50009478,3.95 L6.50009478,0.75 C6.50009478,0.335786438 6.83588122,0 7.25009478,0 Z M0.34758872,1.6171581 C0.665324112,1.41506905 1.07730094,1.48192448 1.31659566,1.7583414 L1.38293668,1.84749394 L2.65499551,3.84749394 C2.87729346,4.19700287 2.7741686,4.66054394 2.42465967,4.8828419 C2.10692428,5.08493095 1.69494745,5.01807552 1.45565273,4.7416586 L1.38931171,4.65250606 L0.117252882,2.65250606 C-0.105045078,2.30299713 -0.00192021008,1.83945606 0.34758872,1.6171581 Z M14.1526008,1.6171581 C13.8348655,1.41506905 13.4228886,1.48192448 13.1835939,1.7583414 L13.1172529,1.84749394 L11.8451941,3.84749394 C11.6228961,4.19700287 11.726021,4.66054394 12.0755299,4.8828419 C12.3932653,5.08493095 12.8052421,5.01807552 13.0445368,4.7416586 L13.1108779,4.65250606 L14.3829367,2.65250606 C14.6052346,2.30299713 14.5021098,1.83945606 14.1526008,1.6171581 Z" id="形状结合"></path>
            </g>
        </g>
    </g>
</svg>