<?xml version="1.0" encoding="UTF-8"?>
<svg width="29px" height="26px" viewBox="0 0 29 26" version="1.1" xmlns="http://www.w3.org/2000/svg" xmlns:xlink="http://www.w3.org/1999/xlink">
    <title>icon-reportArrive</title>
    <g id="页面-1" stroke="none" stroke-width="1" fill="none" fill-rule="evenodd">
        <g id="画板" transform="translate(-1029.000000, -154.000000)" fill="#212121" fill-rule="nonzero">
            <g id="icon/icon-到店" transform="translate(1011.000000, 143.000000)">
                <path d="M40.0518601,11 C41.3160902,11 42.4911466,11.6512722 43.1611872,12.7233372 L43.1611872,12.7233372 L45.7111854,16.8033344 C47.0242375,18.9042177 46.3855741,21.6717591 44.2846908,22.9848112 C44.1478924,23.0703101 44.0070121,23.1481024 43.8627135,23.2179976 L43.8631871,23.2387993 L43.8631871,26.6792614 C43.8631871,27.2315461 43.4154719,27.6792614 42.8631871,27.6792614 C42.3569261,27.6792614 41.9385325,27.3030562 41.8723159,26.8149555 L41.8631871,26.6792614 L41.863,23.666 L22.529,23.666 L22.5298538,34.3333333 C22.5298538,34.6436722 22.7061308,34.8931332 22.8879341,34.96909 L22.9656904,34.9906919 L23.0854093,35 L41.3076316,35 C41.5402293,35 41.7592046,34.8175899 41.8322052,34.579175 L41.8541681,34.4739369 L41.8631871,34.3333333 L41.8631871,33.5981506 C41.8631871,33.0458658 42.3109024,32.5981506 42.8631871,32.5981506 C43.3694481,32.5981506 43.7878417,32.9743557 43.8540583,33.4624565 L43.8631871,33.5981506 L43.8617407,34.3870983 L43.8468972,34.6354757 C43.7103891,35.8947146 42.7358329,36.8902041 41.5135397,36.9915043 L41.3076316,37 L23.0237176,36.9980953 L22.7805065,36.9811327 C21.5562984,36.8287864 20.6316661,35.792743 20.5377275,34.5434146 L20.5298538,34.3333333 L20.5298538,23.2387993 L20.5299702,23.2189595 C19.0324401,22.4922876 18,20.9571262 18,19.1808255 C18,18.3400904 18.2362668,17.5162763 18.6818555,16.8033344 L18.6818555,16.8033344 L21.2318537,12.7233372 C21.9018943,11.6512722 23.0769507,11 24.3411808,11 L24.3411808,11 Z M36.9977188,26.661161 C37.3527409,27.0161831 37.3850156,27.5717347 37.094543,27.9632167 L36.9977188,28.0753746 L36.072,29 L42.1965204,29 C42.7488052,29 43.1965204,29.4477153 43.1965204,30 C43.1965204,30.506261 42.8203153,30.9246546 42.3322145,30.9908712 L42.1965204,31 L36.003,31 L36.9977188,31.9944944 C37.3527409,32.3495165 37.3850156,32.905068 37.094543,33.29655 L36.9977188,33.4087079 C36.6426967,33.76373 36.0871451,33.7960048 35.6956631,33.5055321 L35.5835052,33.4087079 L32.9168386,30.7420413 C32.5618165,30.3870192 32.5295418,29.8314676 32.8200144,29.4399856 L32.9168386,29.3278277 L35.5835052,26.661161 C35.9740295,26.2706367 36.6071945,26.2706367 36.9977188,26.661161 Z M40.0518601,13 L24.3411808,13 C23.7665308,13 23.2324142,13.2960328 22.9278503,13.7833351 L22.9278503,13.7833351 L20.3778521,17.8633323 C20.1309279,18.258411 20,18.7149298 20,19.1808255 C20,20.5537177 21.112949,21.6666667 22.4858412,21.6666667 L22.4858412,21.6666667 L41.9071997,21.6666667 C42.3730953,21.6666667 42.8296142,21.5357388 43.2246929,21.2888146 C44.3889031,20.5611832 44.7428202,19.0275425 44.0151888,17.8633323 L44.0151888,17.8633323 L41.4651906,13.7833351 C41.1606266,13.2960328 40.6265101,13 40.0518601,13 L40.0518601,13 Z" id="icon-reportArrive"></path>
            </g>
        </g>
    </g>
</svg>