<?xml version="1.0" encoding="UTF-8"?>
<svg width="29px" height="28px" viewBox="0 0 29 28" version="1.1" xmlns="http://www.w3.org/2000/svg" xmlns:xlink="http://www.w3.org/1999/xlink">
    <title>icon-footerPickUpChecked</title>
    <g id="页面-1" stroke="none" stroke-width="1" fill="none" fill-rule="evenodd">
        <g id="画板" transform="translate(-78.000000, -134.000000)">
            <g id="icon-footerPickUpChecked" transform="translate(78.500000, 134.000000)">
                <rect id="矩形备份-4" opacity="0" x="0" y="0" width="28" height="28"></rect>
                <path d="M5.22299519,5.25547825 L22.7708845,5.25547825 C23.875454,5.25547825 24.7708845,6.15090875 24.7708845,7.25547825 L24.7708845,9.25547825 C24.7708845,9.807763 24.3231693,10.2554783 23.7708845,10.2554783 L4.22299519,10.2554783 C3.67071044,10.2554783 3.22299519,9.807763 3.22299519,9.25547825 L3.22299519,7.25547825 C3.22299519,6.15090875 4.11842569,5.25547825 5.22299519,5.25547825 Z M16.25,11.7536979 L16.25,15.9994783 L14,15.34375 L11.75,15.9994783 L11.75,11.7536979 L16.25,11.7536979 Z M23.7291695,11.7536979 L23.7291695,21.7419773 C23.7291695,22.8465467 22.833739,23.7419773 21.7291695,23.7419773 L6.29305392,23.7419773 C5.18848442,23.7419773 4.29305392,22.8465467 4.29305392,21.7419773 L4.29305392,11.7536979 L10.25,11.7536979 L10.25,16.3333333 L10.255593,16.4514483 C10.2630378,16.5298835 10.27789,16.6075277 10.3,16.6833333 L10.3,16.6833333 L10.3419809,16.8042194 C10.5799226,17.3914031 11.2286797,17.7145518 11.85,17.5333333 L11.85,17.5333333 L13.9999952,16.9054783 L16.15,17.5333333 L16.2649564,17.5610363 C16.3423387,17.5758511 16.4210358,17.5833333 16.5,17.5833333 C17.1903559,17.5833333 17.75,17.0236893 17.75,16.3333333 L17.75,16.3333333 L17.75,11.7536979 L23.7291695,11.7536979 Z" id="形状结合" fill="#212121"></path>
            </g>
        </g>
    </g>
</svg>