<?xml version="1.0" encoding="UTF-8"?>
<svg width="24px" height="24px" viewBox="0 0 24 24" version="1.1" xmlns="http://www.w3.org/2000/svg" xmlns:xlink="http://www.w3.org/1999/xlink">
    <title>icon/icon-usercenterAttendance</title>
    <g id="页面-1" stroke="none" stroke-width="1" fill="none" fill-rule="evenodd">
        <g id="画板" transform="translate(-132.000000, -362.000000)">
            <g id="icon/icon-usercenterAttendance" transform="translate(132.000000, 362.000000)">
                <rect id="矩形备份-6" opacity="0" x="0" y="0" width="24" height="24"></rect>
                <path d="M21,9.24999132 L21,20 C21,21.1045695 20.1045695,22 19,22 L5,22 C3.8954305,22 3,21.1045695 3,20 L3,9.24999132 L21,9.24999132 Z M17.5364072,13.410311 L17.4544407,13.4853496 L14.226,16.907 L12.5455593,15.1250005 L12.4635928,15.0499618 C12.1764546,14.8236437 11.7592625,14.8356974 11.4853496,15.0940915 C11.2114368,15.3524856 11.1750989,15.768267 11.3843047,16.0681023 L11.4544407,16.1543012 L13.6810629,18.5146504 L13.7665252,18.5924519 C14.0361848,18.802516 14.4170597,18.802516 14.6867193,18.5924519 L14.7721816,18.5146504 L18.5455593,14.5146504 L18.6156953,14.4284515 C18.8249011,14.1286161 18.7885632,13.7128348 18.5146504,13.4544407 C18.2407375,13.1960465 17.8235454,13.1839929 17.5364072,13.410311 Z M8.7,14.75 L6.3,14.75 L6.19822944,14.7568466 C5.83215388,14.806509 5.55,15.1203042 5.55,15.5 C5.55,15.8796958 5.83215388,16.193491 6.19822944,16.2431534 L6.3,16.25 L8.7,16.25 L8.80177056,16.2431534 C9.16784612,16.193491 9.45,15.8796958 9.45,15.5 C9.45,15.0857864 9.11421356,14.75 8.7,14.75 Z M10.3,11.75 L6.3,11.75 L6.19822944,11.7568466 C5.83215388,11.806509 5.55,12.1203042 5.55,12.5 C5.55,12.8796958 5.83215388,13.193491 6.19822944,13.2431534 L6.3,13.25 L10.3,13.25 L10.4017706,13.2431534 C10.7678461,13.193491 11.05,12.8796958 11.05,12.5 C11.05,12.0857864 10.7142136,11.75 10.3,11.75 Z M16.1957104,2.25 C17.0241376,2.25 17.6957104,2.92157288 17.6957104,3.75 L17.6957104,3.75 L17.695,4.749 L19,4.74999132 C20.1045695,4.74999132 21,5.64542182 21,6.74999132 L21,7.74999132 L3,7.74999132 L3,6.74999132 C3,5.64542182 3.8954305,4.74999132 5,4.74999132 L6.25,4.749 L6.25,3.75 C6.25,2.97030388 6.84488808,2.32955132 7.60553999,2.25686658 L7.75,2.25 C8.57842712,2.25 9.25,2.92157288 9.25,3.75 L9.25,3.75 L9.25,4.749 L14.695,4.749 L14.6957104,3.75 C14.6957104,2.97030388 15.2905985,2.32955132 16.0512504,2.25686658 Z" id="形状结合" fill="#212121"></path>
            </g>
        </g>
    </g>
</svg>