<?xml version="1.0" encoding="utf-8"?>
<!-- Generator: Adobe Illustrator 24.0.3, SVG Export Plug-In . SVG Version: 6.00 Build 0)  -->
<svg version="1.1" id="图层_1" xmlns="http://www.w3.org/2000/svg" xmlns:xlink="http://www.w3.org/1999/xlink" x="0px" y="0px"
	 viewBox="0 0 29 28" style="enable-background:new 0 0 29 28;" xml:space="preserve">
<style type="text/css">
	.st0{fill-rule:evenodd;clip-rule:evenodd;fill:#212121;}
</style>
<g>
	<path class="st0" d="M18.7,10.8h-9c-0.4,0-0.8,0.3-0.8,0.8s0.3,0.8,0.8,0.8h9c0.4,0,0.8-0.3,0.8-0.8S19.1,10.8,18.7,10.8z"/>
	<path class="st0" d="M18.7,14.8h-9c-0.4,0-0.8,0.3-0.8,0.8s0.3,0.8,0.8,0.8h9c0.4,0,0.8-0.3,0.8-0.8S19.1,14.8,18.7,14.8z"/>
	<path class="st0" d="M14.7,18.8h-5c-0.4,0-0.8,0.3-0.8,0.8s0.3,0.8,0.8,0.8h5c0.4,0,0.8-0.3,0.8-0.8S15.1,18.8,14.7,18.8z"/>
	<path class="st0" d="M21.2,4.5H18C17.7,3.6,16.8,3,15.8,3h-3c-1,0-1.9,0.6-2.3,1.5H7.2c-1.5,0-2.8,1.2-2.8,2.8v15
		c0,1.5,1.2,2.8,2.8,2.8h14c1.5,0,2.8-1.2,2.8-2.8v-15C24,5.8,22.8,4.5,21.2,4.5z M12.8,4.5h3c0.6,0,1,0.4,1,1s-0.4,1-1,1h-3
		c-0.6,0-1-0.4-1-1S12.2,4.5,12.8,4.5z M22.5,22.3c0,0.7-0.6,1.3-1.2,1.3h-14C6.6,23.5,6,23,6,22.3v-15C6,6.6,6.6,6,7.2,6h3.1
		c0.2,1.1,1.2,2,2.4,2h3C17,8,18,7.1,18.2,6h3.1c0.7,0,1.2,0.6,1.2,1.3V22.3z"/>
</g>
</svg>
